<mxfile host="app.diagrams.net" modified="2023-04-13T16:05:07.401Z" agent="Mozilla/5.0 (Windows NT 10.0; Win64; x64) AppleWebKit/537.36 (KHTML, like Gecko) Chrome/112.0.0.0 Safari/537.36 Edg/112.0.1722.39" etag="obtUiPvIidvVpyC140UM" version="21.1.7" type="github" pages="4">
  <diagram name="Page-1" id="099fd60b-425b-db50-ffb0-6b813814b670">
    <mxGraphModel dx="1484" dy="838" grid="1" gridSize="10" guides="1" tooltips="1" connect="1" arrows="1" fold="1" page="1" pageScale="1" pageWidth="850" pageHeight="1100" background="none" math="0" shadow="0">
      <root>
        <mxCell id="0" />
        <mxCell id="1" parent="0" />
        <mxCell id="HQ2Fdn0g2VNDSRRO2uoz-34" style="edgeStyle=orthogonalEdgeStyle;rounded=0;hachureGap=4;orthogonalLoop=1;jettySize=auto;html=1;entryX=0;entryY=0.75;entryDx=0;entryDy=0;fontFamily=Times New Roman;fontSize=14;" parent="1" source="HQ2Fdn0g2VNDSRRO2uoz-8" target="HQ2Fdn0g2VNDSRRO2uoz-27" edge="1">
          <mxGeometry relative="1" as="geometry">
            <Array as="points">
              <mxPoint x="390" y="180" />
              <mxPoint x="390" y="231" />
            </Array>
          </mxGeometry>
        </mxCell>
        <mxCell id="HQ2Fdn0g2VNDSRRO2uoz-8" value="" style="shape=image;html=1;verticalAlign=top;verticalLabelPosition=bottom;labelBackgroundColor=none;imageAspect=0;aspect=fixed;image=https://cdn4.iconfinder.com/data/icons/ionicons/512/icon-wifi-128.png;hachureGap=4;fontFamily=Times New Roman;fontSize=14;" parent="1" vertex="1">
          <mxGeometry x="300" y="160" width="40" height="40" as="geometry" />
        </mxCell>
        <mxCell id="HQ2Fdn0g2VNDSRRO2uoz-35" style="edgeStyle=orthogonalEdgeStyle;rounded=0;hachureGap=4;orthogonalLoop=1;jettySize=auto;html=1;exitX=1;exitY=0.5;exitDx=0;exitDy=0;entryX=0;entryY=0.75;entryDx=0;entryDy=0;fontFamily=Times New Roman;fontSize=14;" parent="1" source="HQ2Fdn0g2VNDSRRO2uoz-11" target="HQ2Fdn0g2VNDSRRO2uoz-27" edge="1">
          <mxGeometry relative="1" as="geometry">
            <Array as="points">
              <mxPoint x="390" y="275" />
              <mxPoint x="390" y="231" />
            </Array>
          </mxGeometry>
        </mxCell>
        <mxCell id="HQ2Fdn0g2VNDSRRO2uoz-11" value="" style="shape=image;verticalLabelPosition=bottom;labelBackgroundColor=none;verticalAlign=top;aspect=fixed;imageAspect=0;image=data:image/svg+xml,PHN2ZyB4bWxuczp4bGluaz0iaHR0cDovL3d3dy53My5vcmcvMTk5OS94bGluayIgeG1sbnM9Imh0dHA6Ly93d3cudzMub3JnLzIwMDAvc3ZnIiBoZWlnaHQ9IjIwMCIgd2lkdGg9IjIwMCIgdmVyc2lvbj0iMS4xIiB2aWV3Qm94PSIwIDAgMTAyNCAxMDI0IiBjbGFzcz0iaWNvbiI+PHBhdGggZmlsbD0iIiBkPSJNODY0IDI1NS4xMDRINzMwLjE0OHYtNjAuNTU2YzAtMTcuNjczLTE0LjMyNy0zMi0zMi0zMmgtMjEuODYxdi0zMS42NjljMC0xNy42NzMtMTQuMzI3LTMyLTMyLTMySDM4MS43MTNjLTE3LjY3MyAwLTMyIDE0LjMyNy0zMiAzMnYzMS42NjloLTIxLjg2MWMtMTcuNjczIDAtMzIgMTQuMzI3LTMyIDMydjYwLjU1NkgxNjBjLTE3LjY3MyAwLTMyIDE0LjMyNy0zMiAzMnY1MTguNzI3YzAgMTcuNjczIDE0LjMyNyAzMiAzMiAzMmg3MDRjMTcuNjczIDAgMzItMTQuMzI3IDMyLTMyVjI4Ny4xMDRjMC0xNy42NzMtMTQuMzI3LTMyLTMyLTMyeiBtLTMyIDUxOC43MjdIMTkyVjMxOS4xMDRoMTM1Ljg1MmMxNy42NzMgMCAzMi0xNC4zMjcgMzItMzJ2LTYwLjU1NmgyMS44NjFjMTcuNjczIDAgMzItMTQuMzI3IDMyLTMydi0zMS42NjloMTk4LjU3NHYzMS42NjljMCAxNy42NzMgMTQuMzI3IDMyIDMyIDMyaDIxLjg2MXY2MC41NTZjMCAxNy42NzMgMTQuMzI3IDMyIDMyIDMySDgzMnY0NTQuNzI3eiIvPjxwYXRoIGZpbGw9IiIgZD0iTTI1Ni41NTIgNDE1LjE0NHYyNTUuODIyYzAgMTcuNjczIDE0LjMyNyAzMiAzMiAzMmg0NDcuOTdjMTcuNjczIDAgMzItMTQuMzI3IDMyLTMyVjQxNS4xNDRjMC0xNy42NzMtMTQuMzI3LTMyLTMyLTMyaC00NDcuOTdjLTE3LjY3MyAwLTMyIDE0LjMyNi0zMiAzMnogbTY0IDMyaDM4My45N3YxOTEuODIySDY2My4wOVY1ODMuNDRjMC0xNy42NzMtMTQuMzI3LTMyLTMyLTMycy0zMiAxNC4zMjctMzIgMzJ2NTUuNTI1aC01My4yNjFWNTgzLjQ0YzAtMTcuNjczLTE0LjMyNy0zMi0zMi0zMnMtMzIgMTQuMzI3LTMyIDMydjU1LjUyNWgtNTAuNDU1VjU4My40NGMwLTE3LjY3My0xNC4zMjctMzItMzItMzJzLTMyIDE0LjMyNy0zMiAzMnY1NS41MjVoLTQ2LjgyMlY0NDcuMTQ0eiIvPjwvc3ZnPg==;fontFamily=Times New Roman;fontSize=14;" parent="1" vertex="1">
          <mxGeometry x="295" y="250" width="50" height="50" as="geometry" />
        </mxCell>
        <mxCell id="HQ2Fdn0g2VNDSRRO2uoz-15" style="edgeStyle=orthogonalEdgeStyle;rounded=0;hachureGap=4;orthogonalLoop=1;jettySize=auto;html=1;exitX=0.5;exitY=1;exitDx=0;exitDy=0;fontFamily=Times New Roman;fontSize=14;" parent="1" source="HQ2Fdn0g2VNDSRRO2uoz-12" target="HQ2Fdn0g2VNDSRRO2uoz-11" edge="1">
          <mxGeometry relative="1" as="geometry" />
        </mxCell>
        <mxCell id="HQ2Fdn0g2VNDSRRO2uoz-16" style="edgeStyle=orthogonalEdgeStyle;rounded=0;hachureGap=4;orthogonalLoop=1;jettySize=auto;html=1;exitX=0.5;exitY=0;exitDx=0;exitDy=0;fontFamily=Times New Roman;fontSize=14;" parent="1" source="HQ2Fdn0g2VNDSRRO2uoz-12" target="HQ2Fdn0g2VNDSRRO2uoz-8" edge="1">
          <mxGeometry relative="1" as="geometry" />
        </mxCell>
        <mxCell id="HQ2Fdn0g2VNDSRRO2uoz-12" value="" style="shape=image;verticalLabelPosition=bottom;labelBackgroundColor=none;verticalAlign=top;aspect=fixed;imageAspect=0;image=data:image/svg+xml,PHN2ZyB4bWxuczp4bGluaz0iaHR0cDovL3d3dy53My5vcmcvMTk5OS94bGluayIgeG1sbnM9Imh0dHA6Ly93d3cudzMub3JnLzIwMDAvc3ZnIiBoZWlnaHQ9IjIwMCIgd2lkdGg9IjIwMCIgdmVyc2lvbj0iMS4xIiB2aWV3Qm94PSIwIDAgMTAyNCAxMDI0IiBjbGFzcz0iaWNvbiI+PHBhdGggZD0iTTY2OS45IDIyNi43bC01Mi42IDM2LjRDNjMyIDI4NC40IDY0MCAzMDkuNiA2NDAgMzM2cy04IDUxLjYtMjIuNyA3Mi45bDUyLjYgMzYuNGMyMS41LTMxIDM0LjEtNjguNyAzNC4xLTEwOS4zcy0xMi42LTc4LjMtMzQuMS0xMDkuM3ogbS0zMTUuOCAwYy0yMS41IDMxLTM0LjEgNjguNy0zNC4xIDEwOS4zczEyLjYgNzguMyAzNC4xIDEwOS4zbDUyLjYtMzYuNEMzOTIgMzg3LjYgMzg0IDM2Mi40IDM4NCAzMzZzOC01MS42IDIyLjctNzIuOWwtNTIuNi0zNi40ek03NjIuNCAxNjIuNkw3MDkuOCAxOTljOS4xIDEzLjMgMTYuOCAyNy40IDIzLjEgNDIuNCAxMi43IDI5LjkgMTkuMSA2MS43IDE5LjEgOTQuNiAwIDMyLjgtNi40IDY0LjYtMTkuMSA5NC42LTYuMyAxNC45LTE0IDI5LjEtMjMuMSA0Mi40bDUyLjYgMzYuNEM3OTYuMiA0NjAgODE2IDQwMC4zIDgxNiAzMzZzLTE5LjgtMTI0LTUzLjYtMTczLjR6IG0tNDUyLjIgMzMuN2wtNTIuNi0zNi40QzIyMi41IDIwOS43IDIwMiAyNzAuNSAyMDIgMzM2czIwLjUgMTI2LjMgNTUuNSAxNzYuMmw1Mi42LTM2LjRjLTkuOS0xNC4xLTE4LjMtMjkuMi0yNS4xLTQ1LjItMTIuNi0zMC0xOS02MS44LTE5LTk0LjZzNi40LTY0LjcgMTkuMS05NC42YzYuNy0xNiAxNS4xLTMxLjEgMjUuMS00NS4xek04ODEuOCA4MGwtNTIuNiAzNi40YzE0LjQgMjEgMjYuNyA0My41IDM2LjcgNjcuMSAyMCA0Ny4zIDMwLjIgOTcuNiAzMC4yIDE0OS41Uzg4NiA0MzUuMSA4NjUuOSA0ODIuNWMtMTAuNyAyNS4yLTIzLjkgNDktMzkuNSA3MS4yTDg3OSA1OTBjNTEuMS03Mi44IDgxLTE2MS40IDgxLTI1NyAwLTkzLjktMjguOS0xODEtNzguMi0yNTN6TTEyOCAzMzNjMC01MS45IDEwLjEtMTAyLjIgMzAuMi0xNDkuNSAxMC0yMy43IDIyLjMtNDYuMSAzNi43LTY3LjFMMTQyLjIgODBDOTIuOSAxNTIgNjQgMjM5LjEgNjQgMzMzYzAgOTUuNiAzMCAxODQuMyA4MSAyNTdsNTIuNi0zNi40Yy0xNS42LTIyLjItMjguOC00Ni0zOS41LTcxLjItMjAtNDcuMy0zMC4xLTk3LjUtMzAuMS0xNDkuNHpNODQ4IDczNmMtMjYuNSAwLTQ4IDIxLjUtNDggNDhzMjEuNSA0OCA0OCA0OCA0OC0yMS41IDQ4LTQ4LTIxLjUtNDgtNDgtNDh6TTcyMCA3MzZjLTI2LjUgMC00OCAyMS41LTQ4IDQ4czIxLjUgNDggNDggNDggNDgtMjEuNSA0OC00OC0yMS41LTQ4LTQ4LTQ4ek01OTIgNzUyYy0xNy43IDAtMzIgMTQuMy0zMiAzMnMxNC4zIDMyIDMyIDMyIDMyLTE0LjMgMzItMzItMTQuMy0zMi0zMi0zMnpNMTI4IDc1MmgzNTJ2NjRIMTI4eiIvPjxwYXRoIGQ9Ik0xMDA4IDY0MEg1NzZjLTE3LjcgMC0zMi0xNC4zLTMyLTMyVjMyMGMwLTE3LjctMTQuMy0zMi0zMi0zMnMtMzIgMTQuMy0zMiAzMnYyODhjMCAxNy43LTE0LjMgMzItMzIgMzJIMTZjLTguOCAwLTE2IDcuMi0xNiAxNnYyNTZjMCA4LjggNy4yIDE2IDE2IDE2aDk5MmM4LjggMCAxNi03LjIgMTYtMTZWNjU2YzAtOC44LTcuMi0xNi0xNi0xNnogbS00OCAyMjBjMCAyLjItMS44IDQtNCA0SDY4Yy0yLjIgMC00LTEuOC00LTRWNzA4YzAtMi4yIDEuOC00IDQtNGg4ODhjMi4yIDAgNCAxLjggNCA0djE1MnoiLz48L3N2Zz4=;fontFamily=Times New Roman;fontSize=14;" parent="1" vertex="1">
          <mxGeometry x="210" y="200" width="50" height="50" as="geometry" />
        </mxCell>
        <mxCell id="HQ2Fdn0g2VNDSRRO2uoz-17" value="" style="shape=image;verticalLabelPosition=bottom;labelBackgroundColor=default;verticalAlign=top;aspect=fixed;imageAspect=0;image=data:image/svg+xml,PHN2ZyB4bWxuczp4bGluaz0iaHR0cDovL3d3dy53My5vcmcvMTk5OS94bGluayIgeG1sbnM9Imh0dHA6Ly93d3cudzMub3JnLzIwMDAvc3ZnIiBoZWlnaHQ9IjIwMCIgd2lkdGg9IjIwMCIgZGF0YS1zcG0tYW5jaG9yLWlkPSJhMzEzeC43NzgxMDY5LjAuaTIiIHZlcnNpb249IjEuMSIgdmlld0JveD0iMCAwIDEwMjQgMTAyNCIgY2xhc3M9Imljb24iPjxwYXRoIGZpbGw9IiM0NDQ0NDQiIGQ9Ik00MjYuNjY2NjY3IDI5OC42NjY2Njd2ODUuMzMzMzMzSDI1NnYzNDEuMzMzMzMzaDUxMlYzODRoLTE3MC42NjY2NjdWMjk4LjY2NjY2N2gtMTcwLjY2NjY2NnpNMzQxLjMzMzMzMyAyOTguNjY2NjY3VjIxMy4zMzMzMzNoMzQxLjMzMzMzNHY4NS4zMzMzMzRoMTcwLjY2NjY2NnY1MTJIMTcwLjY2NjY2N1YyOTguNjY2NjY3aDE3MC42NjY2NjZ6IG0xNzAuNjY2NjY3IDM4NGMtNzIuNTMzMzMzIDAtMTI4LTU1LjQ2NjY2Ny0xMjgtMTI4czU1LjQ2NjY2Ny0xMjggMTI4LTEyOCAxMjggNTUuNDY2NjY3IDEyOCAxMjgtNTUuNDY2NjY3IDEyOC0xMjggMTI4eiBtMC04NS4zMzMzMzRjMjUuNiAwIDQyLjY2NjY2Ny0xNy4wNjY2NjcgNDIuNjY2NjY3LTQyLjY2NjY2NnMtMTcuMDY2NjY3LTQyLjY2NjY2Ny00Mi42NjY2NjctNDIuNjY2NjY3LTQyLjY2NjY2NyAxNy4wNjY2NjctNDIuNjY2NjY3IDQyLjY2NjY2NyAxNy4wNjY2NjcgNDIuNjY2NjY3IDQyLjY2NjY2NyA0Mi42NjY2NjZ6Ii8+PC9zdmc+;fontFamily=Times New Roman;fontSize=14;" parent="1" vertex="1">
          <mxGeometry x="85" y="140" width="50" height="50" as="geometry" />
        </mxCell>
        <mxCell id="HQ2Fdn0g2VNDSRRO2uoz-18" value="" style="shape=image;verticalLabelPosition=bottom;labelBackgroundColor=default;verticalAlign=top;aspect=fixed;imageAspect=0;image=data:image/svg+xml,PHN2ZyB4bWxuczp4bGluaz0iaHR0cDovL3d3dy53My5vcmcvMTk5OS94bGluayIgeG1sbnM9Imh0dHA6Ly93d3cudzMub3JnLzIwMDAvc3ZnIiBoZWlnaHQ9IjIwMCIgd2lkdGg9IjIwMCIgZGF0YS1zcG0tYW5jaG9yLWlkPSJhMzEzeC43NzgxMDY5LjAuaTIiIHZlcnNpb249IjEuMSIgdmlld0JveD0iMCAwIDEwMjQgMTAyNCIgY2xhc3M9Imljb24iPjxwYXRoIGZpbGw9IiM0NDQ0NDQiIGQ9Ik00MjYuNjY2NjY3IDI5OC42NjY2Njd2ODUuMzMzMzMzSDI1NnYzNDEuMzMzMzMzaDUxMlYzODRoLTE3MC42NjY2NjdWMjk4LjY2NjY2N2gtMTcwLjY2NjY2NnpNMzQxLjMzMzMzMyAyOTguNjY2NjY3VjIxMy4zMzMzMzNoMzQxLjMzMzMzNHY4NS4zMzMzMzRoMTcwLjY2NjY2NnY1MTJIMTcwLjY2NjY2N1YyOTguNjY2NjY3aDE3MC42NjY2NjZ6IG0xNzAuNjY2NjY3IDM4NGMtNzIuNTMzMzMzIDAtMTI4LTU1LjQ2NjY2Ny0xMjgtMTI4czU1LjQ2NjY2Ny0xMjggMTI4LTEyOCAxMjggNTUuNDY2NjY3IDEyOCAxMjgtNTUuNDY2NjY3IDEyOC0xMjggMTI4eiBtMC04NS4zMzMzMzRjMjUuNiAwIDQyLjY2NjY2Ny0xNy4wNjY2NjcgNDIuNjY2NjY3LTQyLjY2NjY2NnMtMTcuMDY2NjY3LTQyLjY2NjY2Ny00Mi42NjY2NjctNDIuNjY2NjY3LTQyLjY2NjY2NyAxNy4wNjY2NjctNDIuNjY2NjY3IDQyLjY2NjY2NyAxNy4wNjY2NjcgNDIuNjY2NjY3IDQyLjY2NjY2NyA0Mi42NjY2NjZ6Ii8+PC9zdmc+;fontFamily=Times New Roman;fontSize=14;" parent="1" vertex="1">
          <mxGeometry x="85" y="175" width="50" height="50" as="geometry" />
        </mxCell>
        <mxCell id="HQ2Fdn0g2VNDSRRO2uoz-19" value="" style="shape=image;verticalLabelPosition=bottom;labelBackgroundColor=default;verticalAlign=top;aspect=fixed;imageAspect=0;image=data:image/svg+xml,PHN2ZyB4bWxuczp4bGluaz0iaHR0cDovL3d3dy53My5vcmcvMTk5OS94bGluayIgeG1sbnM9Imh0dHA6Ly93d3cudzMub3JnLzIwMDAvc3ZnIiBoZWlnaHQ9IjIwMCIgd2lkdGg9IjIwMCIgZGF0YS1zcG0tYW5jaG9yLWlkPSJhMzEzeC43NzgxMDY5LjAuaTIiIHZlcnNpb249IjEuMSIgdmlld0JveD0iMCAwIDEwMjQgMTAyNCIgY2xhc3M9Imljb24iPjxwYXRoIGZpbGw9IiM0NDQ0NDQiIGQ9Ik00MjYuNjY2NjY3IDI5OC42NjY2Njd2ODUuMzMzMzMzSDI1NnYzNDEuMzMzMzMzaDUxMlYzODRoLTE3MC42NjY2NjdWMjk4LjY2NjY2N2gtMTcwLjY2NjY2NnpNMzQxLjMzMzMzMyAyOTguNjY2NjY3VjIxMy4zMzMzMzNoMzQxLjMzMzMzNHY4NS4zMzMzMzRoMTcwLjY2NjY2NnY1MTJIMTcwLjY2NjY2N1YyOTguNjY2NjY3aDE3MC42NjY2NjZ6IG0xNzAuNjY2NjY3IDM4NGMtNzIuNTMzMzMzIDAtMTI4LTU1LjQ2NjY2Ny0xMjgtMTI4czU1LjQ2NjY2Ny0xMjggMTI4LTEyOCAxMjggNTUuNDY2NjY3IDEyOCAxMjgtNTUuNDY2NjY3IDEyOC0xMjggMTI4eiBtMC04NS4zMzMzMzRjMjUuNiAwIDQyLjY2NjY2Ny0xNy4wNjY2NjcgNDIuNjY2NjY3LTQyLjY2NjY2NnMtMTcuMDY2NjY3LTQyLjY2NjY2Ny00Mi42NjY2NjctNDIuNjY2NjY3LTQyLjY2NjY2NyAxNy4wNjY2NjctNDIuNjY2NjY3IDQyLjY2NjY2NyAxNy4wNjY2NjcgNDIuNjY2NjY3IDQyLjY2NjY2NyA0Mi42NjY2NjZ6Ii8+PC9zdmc+;fontFamily=Times New Roman;fontSize=14;" parent="1" vertex="1">
          <mxGeometry x="85" y="260" width="50" height="50" as="geometry" />
        </mxCell>
        <mxCell id="HQ2Fdn0g2VNDSRRO2uoz-20" value="" style="shape=image;verticalLabelPosition=bottom;labelBackgroundColor=default;verticalAlign=top;aspect=fixed;imageAspect=0;image=data:image/svg+xml,PHN2ZyB4bWxuczp4bGluaz0iaHR0cDovL3d3dy53My5vcmcvMTk5OS94bGluayIgeG1sbnM9Imh0dHA6Ly93d3cudzMub3JnLzIwMDAvc3ZnIiBoZWlnaHQ9IjIwMCIgd2lkdGg9IjIwMCIgZGF0YS1zcG0tYW5jaG9yLWlkPSJhMzEzeC43NzgxMDY5LjAuaTQiIHZlcnNpb249IjEuMSIgdmlld0JveD0iMCAwIDEwMjQgMTAyNCIgY2xhc3M9Imljb24iPjxwYXRoIGZpbGw9IiM1QzVDNjYiIGQ9Ik01MTIgODEwLjY2NjY2N2E4NS4zMzMzMzMgODUuMzMzMzMzIDAgMSAxLTg1LjMzMzMzMyA4NS4zMzMzMzMgODUuMzMzMzMzIDg1LjMzMzMzMyAwIDAgMSA4NS4zMzMzMzMtODUuMzMzMzMzek00MjYuNjY2NjY3IDUxMmE4NS4zMzMzMzMgODUuMzMzMzMzIDAgMSAwIDg1LjMzMzMzMy04NS4zMzMzMzMgODUuMzMzMzMzIDg1LjMzMzMzMyAwIDAgMC04NS4zMzMzMzMgODUuMzMzMzMzeiBtMC0zODRBODUuMzMzMzMzIDg1LjMzMzMzMyAwIDEgMCA1MTIgNDIuNjY2NjY3YTg1LjMzMzMzMyA4NS4zMzMzMzMgMCAwIDAtODUuMzMzMzMzIDg1LjMzMzMzM3oiLz48L3N2Zz4=;fontFamily=Times New Roman;fontSize=14;" parent="1" vertex="1">
          <mxGeometry x="95" y="230" width="30" height="30" as="geometry" />
        </mxCell>
        <mxCell id="HQ2Fdn0g2VNDSRRO2uoz-24" style="edgeStyle=orthogonalEdgeStyle;rounded=0;hachureGap=4;orthogonalLoop=1;jettySize=auto;html=1;fontFamily=Times New Roman;fontSize=14;" parent="1" source="HQ2Fdn0g2VNDSRRO2uoz-23" target="HQ2Fdn0g2VNDSRRO2uoz-12" edge="1">
          <mxGeometry relative="1" as="geometry" />
        </mxCell>
        <mxCell id="HQ2Fdn0g2VNDSRRO2uoz-23" value="Devices" style="swimlane;whiteSpace=wrap;html=1;hachureGap=4;fontFamily=Times New Roman;fontSize=14;" parent="1" vertex="1">
          <mxGeometry x="70" y="120" width="80" height="210" as="geometry" />
        </mxCell>
        <mxCell id="HQ2Fdn0g2VNDSRRO2uoz-30" value="Edge Computing" style="swimlane;hachureGap=4;fontFamily=Times New Roman;fontSize=14;" parent="1" vertex="1">
          <mxGeometry x="425" y="160" width="170" height="130" as="geometry" />
        </mxCell>
        <mxCell id="HQ2Fdn0g2VNDSRRO2uoz-27" value="" style="shape=image;verticalLabelPosition=bottom;labelBackgroundColor=default;verticalAlign=top;aspect=fixed;imageAspect=0;image=data:image/svg+xml,PHN2ZyB4bWxuczp4bGluaz0iaHR0cDovL3d3dy53My5vcmcvMTk5OS94bGluayIgeG1sbnM9Imh0dHA6Ly93d3cudzMub3JnLzIwMDAvc3ZnIiBoZWlnaHQ9IjIwMCIgd2lkdGg9IjIwMCIgdmVyc2lvbj0iMS4xIiB2aWV3Qm94PSIwIDAgMTAyNCAxMDI0IiBjbGFzcz0iaWNvbiI+PHBhdGggZmlsbD0iIzM4NDI0NCIgZD0iTTE4OC45NjYgMjA0LjQwOGg2MDAuNTQxdjYwMC41MjhIMTg4Ljk2NnoiLz48cGF0aCBmaWxsPSIjRkZGRkZGIiBkPSJNMjY4LjEwMSAyODMuNTNoNDQyLjI3M3Y0NDIuMjgxSDI2OC4xMDF6Ii8+PHBhdGggZmlsbD0iIzY5NkY2RiIgZD0iTTMwMi43NzggMTE4LjM2NmgyMi41ODd2ODYuMDQyaC0yMi41ODd6TTM1Mi44MjEgMTE4LjM2NmgyMi41OTZ2ODYuMDQyaC0yMi41OTZ6TTQwMi44NzcgMTE4LjM2NmgyMi41ODh2ODYuMDQyaC0yMi41ODh6TTQ1Mi45MiAxMTguMzY2aDIyLjU4OHY4Ni4wNDJINDUyLjkyek01MDIuOTY2IDExOC4zNjZoMjIuNTk2djg2LjA0MmgtMjIuNTk2ek01NTMuMDEzIDExOC4zNjZoMjIuNTkxdjg2LjA0MmgtMjIuNTkxek02MDMuMDU2IDExOC4zNjZoMjIuNTk5djg2LjA0MmgtMjIuNTk5ek02NTMuMTA4IDExOC4zNjZoMjIuNTl2ODYuMDQyaC0yMi41OXoiLz48cGF0aCBmaWxsPSIjNjk2RjZGIiBkPSJNMzAyLjc3OCA4MDQuOTM2aDIyLjU4N3Y4Ni4wMzFoLTIyLjU4N3pNMzUyLjgyMSA4MDQuOTM2aDIyLjU5NnY4Ni4wMzFoLTIyLjU5NnpNNDAyLjg3NyA4MDQuOTM2aDIyLjU4OHY4Ni4wMzFoLTIyLjU4OHpNNDUyLjkyIDgwNC45MzZoMjIuNTg4djg2LjAzMUg0NTIuOTJ6TTUwMi45NjYgODA0LjkzNmgyMi41OTZ2ODYuMDMxaC0yMi41OTZ6TTU1My4wMTMgODA0LjkzNmgyMi41OTF2ODYuMDMxaC0yMi41OTF6TTYwMy4wNTYgODA0LjkzNmgyMi41OTl2ODYuMDMxaC0yMi41OTl6TTY1My4xMDggODA0LjkzNmgyMi41OXY4Ni4wMzFoLTIyLjU5eiIvPjxwYXRoIGZpbGw9IiM2OTZGNkYiIGQ9Ik03ODkuNTA3IDMxOC4yMDhoODYuMDMydjIyLjU4OGgtODYuMDMyek03ODkuNTA3IDM2OC4yNTRoODYuMDMydjIyLjU4OGgtODYuMDMyek03ODkuNTA3IDQxOC4zaDg2LjAzMnYyMi41OTVoLTg2LjAzMnpNNzg5LjUwNyA0NjguMzU0aDg2LjAzMnYyMi41ODVoLTg2LjAzMnpNNzg5LjUwNyA1MTguMzk1aDg2LjAzMnYyMi41OWgtODYuMDMyek03ODkuNTA3IDU2OC40NDNoODYuMDMydjIyLjU5MmgtODYuMDMyek03ODkuNTA3IDYxOC40OWg4Ni4wMzJ2MjIuNTk0aC04Ni4wMzJ6TTc4OS41MDcgNjY4LjUzOWg4Ni4wMzJ2MjIuNTg4aC04Ni4wMzJ6Ii8+PHBhdGggZmlsbD0iIzY5NkY2RiIgZD0iTTEwMi45MzYgMzE4LjIwOGg4Ni4wM3YyMi41ODhoLTg2LjAzek0xMDIuOTM2IDM2OC4yNTRoODYuMDN2MjIuNTg4aC04Ni4wM3pNMTAyLjkzNiA0MTguM2g4Ni4wM3YyMi41OTVoLTg2LjAzek0xMDIuOTM2IDQ2OC4zNTRoODYuMDN2MjIuNTg1aC04Ni4wM3pNMTAyLjkzNiA1MTguMzk1aDg2LjAzdjIyLjU5aC04Ni4wM3pNMTAyLjkzNiA1NjguNDQzaDg2LjAzdjIyLjU5MmgtODYuMDN6TTEwMi45MzYgNjE4LjQ5aDg2LjAzdjIyLjU5NGgtODYuMDN6TTEwMi45MzYgNjY4LjUzOWg4Ni4wM3YyMi41ODhoLTg2LjAzeiIvPjxwYXRoIGZpbGw9IiMyMUE0RDQiIGQ9Ik0zMjEuNiA0NDIuNTcxaDg0LjQ1NnYyNi40OTlIMzIxLjZ6TTMyMS42IDU0MC4yNzVoODQuNDU2djI2LjQ5NkgzMjEuNnoiLz48cGF0aCBmaWxsPSIjMjFBNEQ0IiBkPSJNMzE5LjYyOSA0NDIuNTcxaDI2LjQ5NnYxMjQuMmgtMjYuNDk2eiIvPjxwYXRoIGZpbGw9IiMyMUE0RDQiIGQ9Ik01NjEuMTQ0IDQ0Mi4wMTdoMjYuNDk2djEyNS4zMDFoLTI2LjQ5NnpNNjMyLjM1IDQ0Mi4wMTdoMjYuNDk2djEyNS4zMDFINjMyLjM1eiIvPjxwYXRoIGZpbGw9IiMyMUE0RDQiIGQ9Ik01NjEuMTQ0IDU0MC44MjJoOTcuNzAydjI2LjQ5NmgtOTcuNzAyeiIvPjxwYXRoIGZpbGw9IiMyMUE0RDQiIGQ9Ik00MzQuODI5IDQ0Mi41NzFoODQuNDUydjI2LjQ5OWgtODQuNDUyek00MzQuODI5IDQ5OC4wNDRoOTcuNzAydjI2LjQ5M2gtOTcuNzAyeiIvPjxwYXRoIGZpbGw9IiMyMUE0RDQiIGQ9Ik00MzIuODYgNDQyLjU3MWgyNi40OTR2MTI0LjJINDMyLjg2ek01MTMuNDg4IDQ0Mi41NzFoMjYuNDk0djgxLjk2NmgtMjYuNDk0eiIvPjwvc3ZnPg==;fontFamily=Times New Roman;fontSize=14;" parent="HQ2Fdn0g2VNDSRRO2uoz-30" vertex="1">
          <mxGeometry y="30" width="55" height="55" as="geometry" />
        </mxCell>
        <mxCell id="HQ2Fdn0g2VNDSRRO2uoz-31" value="" style="shape=image;verticalLabelPosition=bottom;labelBackgroundColor=default;verticalAlign=top;aspect=fixed;imageAspect=0;image=data:image/svg+xml,PHN2ZyB4bWxuczp4bGluaz0iaHR0cDovL3d3dy53My5vcmcvMTk5OS94bGluayIgeG1sbnM9Imh0dHA6Ly93d3cudzMub3JnLzIwMDAvc3ZnIiBoZWlnaHQ9IjIwMCIgd2lkdGg9IjIwMCIgdmVyc2lvbj0iMS4xIiB2aWV3Qm94PSIwIDAgMTAyNCAxMDI0IiBjbGFzcz0iaWNvbiI+PHBhdGggZmlsbD0iIzM4NDI0NCIgZD0iTTE4OC45NjYgMjA0LjQwOGg2MDAuNTQxdjYwMC41MjhIMTg4Ljk2NnoiLz48cGF0aCBmaWxsPSIjRkZGRkZGIiBkPSJNMjY4LjEwMSAyODMuNTNoNDQyLjI3M3Y0NDIuMjgxSDI2OC4xMDF6Ii8+PHBhdGggZmlsbD0iIzY5NkY2RiIgZD0iTTMwMi43NzggMTE4LjM2NmgyMi41ODd2ODYuMDQyaC0yMi41ODd6TTM1Mi44MjEgMTE4LjM2NmgyMi41OTZ2ODYuMDQyaC0yMi41OTZ6TTQwMi44NzcgMTE4LjM2NmgyMi41ODh2ODYuMDQyaC0yMi41ODh6TTQ1Mi45MiAxMTguMzY2aDIyLjU4OHY4Ni4wNDJINDUyLjkyek01MDIuOTY2IDExOC4zNjZoMjIuNTk2djg2LjA0MmgtMjIuNTk2ek01NTMuMDEzIDExOC4zNjZoMjIuNTkxdjg2LjA0MmgtMjIuNTkxek02MDMuMDU2IDExOC4zNjZoMjIuNTk5djg2LjA0MmgtMjIuNTk5ek02NTMuMTA4IDExOC4zNjZoMjIuNTl2ODYuMDQyaC0yMi41OXoiLz48cGF0aCBmaWxsPSIjNjk2RjZGIiBkPSJNMzAyLjc3OCA4MDQuOTM2aDIyLjU4N3Y4Ni4wMzFoLTIyLjU4N3pNMzUyLjgyMSA4MDQuOTM2aDIyLjU5NnY4Ni4wMzFoLTIyLjU5NnpNNDAyLjg3NyA4MDQuOTM2aDIyLjU4OHY4Ni4wMzFoLTIyLjU4OHpNNDUyLjkyIDgwNC45MzZoMjIuNTg4djg2LjAzMUg0NTIuOTJ6TTUwMi45NjYgODA0LjkzNmgyMi41OTZ2ODYuMDMxaC0yMi41OTZ6TTU1My4wMTMgODA0LjkzNmgyMi41OTF2ODYuMDMxaC0yMi41OTF6TTYwMy4wNTYgODA0LjkzNmgyMi41OTl2ODYuMDMxaC0yMi41OTl6TTY1My4xMDggODA0LjkzNmgyMi41OXY4Ni4wMzFoLTIyLjU5eiIvPjxwYXRoIGZpbGw9IiM2OTZGNkYiIGQ9Ik03ODkuNTA3IDMxOC4yMDhoODYuMDMydjIyLjU4OGgtODYuMDMyek03ODkuNTA3IDM2OC4yNTRoODYuMDMydjIyLjU4OGgtODYuMDMyek03ODkuNTA3IDQxOC4zaDg2LjAzMnYyMi41OTVoLTg2LjAzMnpNNzg5LjUwNyA0NjguMzU0aDg2LjAzMnYyMi41ODVoLTg2LjAzMnpNNzg5LjUwNyA1MTguMzk1aDg2LjAzMnYyMi41OWgtODYuMDMyek03ODkuNTA3IDU2OC40NDNoODYuMDMydjIyLjU5MmgtODYuMDMyek03ODkuNTA3IDYxOC40OWg4Ni4wMzJ2MjIuNTk0aC04Ni4wMzJ6TTc4OS41MDcgNjY4LjUzOWg4Ni4wMzJ2MjIuNTg4aC04Ni4wMzJ6Ii8+PHBhdGggZmlsbD0iIzY5NkY2RiIgZD0iTTEwMi45MzYgMzE4LjIwOGg4Ni4wM3YyMi41ODhoLTg2LjAzek0xMDIuOTM2IDM2OC4yNTRoODYuMDN2MjIuNTg4aC04Ni4wM3pNMTAyLjkzNiA0MTguM2g4Ni4wM3YyMi41OTVoLTg2LjAzek0xMDIuOTM2IDQ2OC4zNTRoODYuMDN2MjIuNTg1aC04Ni4wM3pNMTAyLjkzNiA1MTguMzk1aDg2LjAzdjIyLjU5aC04Ni4wM3pNMTAyLjkzNiA1NjguNDQzaDg2LjAzdjIyLjU5MmgtODYuMDN6TTEwMi45MzYgNjE4LjQ5aDg2LjAzdjIyLjU5NGgtODYuMDN6TTEwMi45MzYgNjY4LjUzOWg4Ni4wM3YyMi41ODhoLTg2LjAzeiIvPjxwYXRoIGZpbGw9IiMyMUE0RDQiIGQ9Ik0zMjEuNiA0NDIuNTcxaDg0LjQ1NnYyNi40OTlIMzIxLjZ6TTMyMS42IDU0MC4yNzVoODQuNDU2djI2LjQ5NkgzMjEuNnoiLz48cGF0aCBmaWxsPSIjMjFBNEQ0IiBkPSJNMzE5LjYyOSA0NDIuNTcxaDI2LjQ5NnYxMjQuMmgtMjYuNDk2eiIvPjxwYXRoIGZpbGw9IiMyMUE0RDQiIGQ9Ik01NjEuMTQ0IDQ0Mi4wMTdoMjYuNDk2djEyNS4zMDFoLTI2LjQ5NnpNNjMyLjM1IDQ0Mi4wMTdoMjYuNDk2djEyNS4zMDFINjMyLjM1eiIvPjxwYXRoIGZpbGw9IiMyMUE0RDQiIGQ9Ik01NjEuMTQ0IDU0MC44MjJoOTcuNzAydjI2LjQ5NmgtOTcuNzAyeiIvPjxwYXRoIGZpbGw9IiMyMUE0RDQiIGQ9Ik00MzQuODI5IDQ0Mi41NzFoODQuNDUydjI2LjQ5OWgtODQuNDUyek00MzQuODI5IDQ5OC4wNDRoOTcuNzAydjI2LjQ5M2gtOTcuNzAyeiIvPjxwYXRoIGZpbGw9IiMyMUE0RDQiIGQ9Ik00MzIuODYgNDQyLjU3MWgyNi40OTR2MTI0LjJINDMyLjg2ek01MTMuNDg4IDQ0Mi41NzFoMjYuNDk0djgxLjk2NmgtMjYuNDk0eiIvPjwvc3ZnPg==;fontFamily=Times New Roman;fontSize=14;" parent="HQ2Fdn0g2VNDSRRO2uoz-30" vertex="1">
          <mxGeometry x="45" y="30" width="55" height="55" as="geometry" />
        </mxCell>
        <mxCell id="HQ2Fdn0g2VNDSRRO2uoz-28" value="" style="shape=image;verticalLabelPosition=bottom;labelBackgroundColor=default;verticalAlign=top;aspect=fixed;imageAspect=0;image=data:image/svg+xml,PHN2ZyB4bWxuczp4bGluaz0iaHR0cDovL3d3dy53My5vcmcvMTk5OS94bGluayIgeG1sbnM9Imh0dHA6Ly93d3cudzMub3JnLzIwMDAvc3ZnIiBoZWlnaHQ9IjIwMCIgd2lkdGg9IjIwMCIgdmVyc2lvbj0iMS4xIiB2aWV3Qm94PSIwIDAgMTAyNCAxMDI0IiBjbGFzcz0iaWNvbiI+PHBhdGggZmlsbD0iIzM5NTQ5RiIgZD0iTTk2My43MTg3MzcgNTY3Ljk2OTY4NGMwLTMxLjYzNjIxMS0xOS4yNDA0MjEtNjguNDE5MzY4LTQyLjk1NDEwNS04Mi4xMDg2MzFMMTgxLjQ5MDUyNiA1OS4wNDE2ODRjLTIzLjcxMzY4NC0xMy42ODkyNjMtNDIuOTU0MTA1IDAuODYyMzE2LTQyLjk1NDEwNSAzMi40OTg1Mjd2MzYyLjgxOTM2OGMwIDMxLjYzNjIxMSAxOS4yNDA0MjEgNjguNDE5MzY4IDQyLjk1NDEwNSA4Mi4xMDg2MzJsNzM5LjI3NDEwNiA0MjYuODE5MzY4YzIzLjcxMzY4NCAxMy42ODkyNjMgNDIuOTU0MTA1LTAuODg5MjYzIDQyLjk1NDEwNS0zMi40OTg1MjZWNTY3Ljk2OTY4NHoiLz48cGF0aCBmaWxsPSIjMzk1NDlGIiBkPSJNNjYuMjM2NjMyIDEwNS4wOTQ3MzdsODguNDk1MTU3LTQ5LjAxNzI2MyAyMS4yMzQ1MjcgMzkuODAxMjYzLTM3LjQyOTg5NSA1MC41ODAyMUw2Ni4yMzY2MzIgMTA1LjA5NDczN3pNODY1LjI1MzA1MyAxMDEzLjc4Njk0N2w4NS4zMTUzNjgtNDkuMjU5Nzg5LTc3LjM5Mjg0Mi00OS43NDQ4NDItNy45MjI1MjYgOTkuMDA0NjMxeiIvPjxwYXRoIGZpbGw9IiMxODE3MUMiIGQ9Ik04ODAuODAxNjg0IDYxNS44MjgyMTFjMC0zMS42MDkyNjMtMTkuMjY3MzY4LTY4LjM5MjQyMS00Mi45ODEwNTItODIuMDgxNjg1TDk4LjU3MzQ3NCAxMDYuOTI3MTU4Qzc0Ljg1OTc4OSA5My4yMzc4OTUgNTUuNTkyNDIxIDEwNy43ODk0NzQgNTUuNTkyNDIxIDEzOS4zOTg3Mzd2MzYyLjg0NjMxNmMwIDMxLjYwOTI2MyAxOS4yNjczNjggNjguMzkyNDIxIDQyLjk4MTA1MyA4Mi4wODE2ODRsNzM5LjI0NzE1OCA0MjYuODE5MzY4YzIzLjcxMzY4NCAxMy42ODkyNjMgNDIuOTgxMDUzLTAuODYyMzE2IDQyLjk4MTA1Mi0zMi40NzE1NzlWNjE1LjgyODIxMXoiLz48cGF0aCBmaWxsPSIjNkQ4QUNBIiBkPSJNNDY3LjM0ODIxMSA1NTguMjY4NjMycy0xMjIuNTU2NjMyLTIzNC43NjU0NzQtMTc3LjkwNjUyNy0zMTYuMjU0MzE2Yy01LjMwODYzMi03LjgxNDczNy0yMS4yMDc1NzktMzQuNjU0MzE2LTI4LjI5NDczNy00MS40OTg5NDgtOC4wMDMzNjgtNy43MDY5NDctMjguNjcyLTE2LjU0NTY4NC0zNS4wNTg1MjYtMjAuMjM3NDczTDk2Ljg0ODg0MiAxMDUuNjYwNjMyQzczLjEzNTE1OCA5MS45NzEzNjggNTMuODk0NzM3IDEwNi41MjI5NDcgNTMuODk0NzM3IDEzOC4xNTkxNTh2MzYyLjgxOTM2OGMwIDMxLjYzNjIxMSAxOS4yNDA0MjEgNjguNDE5MzY4IDQyLjk1NDEwNSA4Mi4xMDg2MzJsMTQxLjk4NTY4NCA4MS45NDY5NDdjNy4yNDg4NDIgNC4yMDM3ODkgNDMuNTIgNS44MjA2MzIgNTQuNDA2NzM3IDIuNDI1MjYzIDM0LjQzODczNy0xMC43MjUwNTMgMTc0LjEwNjk0Ny04Ny40NzExNTggMTc0LjEwNjk0OC04Ny40NzExNTd2LTIxLjcxOTU3OXogbS0zMC45ODk0NzQtMTcuMDMwNzM3cy0xMDQuMTc4NTI2LTE5OS41NzIyMTEtMTUxLjIyODYzMi0yNjguODUzODk1Yy00LjUyNzE1OC02LjY1Ni0xOC4wMjc3ODktMjkuNDUzNDc0LTI0LjA2NC0zNS4zMDEwNTMtNi43OTA3MzctNi41NDgyMTEtMjQuMzg3MzY4LTE0LjA2NjUyNi0yOS44MDM3ODktMTcuMTkyNDIxTDEyMS4zOTc4OTUgMTU2LjQ1NjQyMWMtMjAuMTU2NjMyLTExLjY0MTI2My0zNi41MTM2ODQgMC43Mjc1NzktMzYuNTEzNjg0IDI3LjYyMTA1M3YzMDguNDY2NTI2YzAgMjYuODY2NTI2IDE2LjM1NzA1MyA1OC4xNTI0MjEgMzYuNTEzNjg0IDY5Ljc5MzY4NGwxMjAuNjk3MjYzIDY5LjY4NTg5NWM2LjE3MDk0NyAzLjU1NzA1MyAzNi45OTg3MzcgNC45MzEzNjggNDYuMjQxNjg0IDIuMDQ4IDI5LjI5MTc4OS05LjEwODIxMSAxNDguMDIxODk1LTc0LjM0Nzc4OSAxNDguMDIxODk1LTc0LjM0Nzc5di0xOC40ODU4OTR6Ii8+PHBhdGggZmlsbD0iIzZEOEFDQSIgZD0iTTQ2Ny4zNDgyMTEgNTU4LjUzODEwNXMxMjIuNTU2NjMyIDIzNC43NjU0NzQgMTc3LjkwNjUyNiAzMTYuMjU0MzE2YzUuMzA4NjMyIDcuODE0NzM3IDIxLjIwNzU3OSAzNC42NTQzMTYgMjguMjk0NzM3IDQxLjUyNTg5NSA4LjAwMzM2OCA3LjcwNjk0NyAyOC42NzIgMTYuNTQ1Njg0IDM1LjA1ODUyNiAyMC4yMzc0NzNsMTI5LjIxMjYzMiA3NC41OTAzMTZjMjMuNzEzNjg0IDEzLjY4OTI2MyA0Mi45ODEwNTMtMC44NjIzMTYgNDIuOTgxMDUyLTMyLjQ3MTU3OVY2MTUuODI4MjExYzAtMzEuNjA5MjYzLTE5LjI2NzM2OC02OC4zOTI0MjEtNDIuOTgxMDUyLTgyLjA4MTY4NWwtMTQxLjk1ODczNy04MS45NzM4OTRjLTcuMjQ4ODQyLTQuMjAzNzg5LTQzLjUyLTUuODIwNjMyLTU0LjQwNjczNy0yLjQyNTI2NC0zNC40Mzg3MzcgMTAuNzI1MDUzLTE3NC4xMDY5NDcgODcuNDcxMTU4LTE3NC4xMDY5NDcgODcuNDcxMTU4djIxLjcxOTU3OXogbTMwLjk4OTQ3MyAxNy4wMzA3MzdzMTA0LjE3ODUyNiAxOTkuNTcyMjExIDE1MS4yMjg2MzIgMjY4Ljg1Mzg5NWM0LjUyNzE1OCA2LjY1NiAxOC4wMjc3ODkgMjkuNDgwNDIxIDI0LjA2NCAzNS4zMDEwNTIgNi43OTA3MzcgNi41NDgyMTEgMjQuMzg3MzY4IDE0LjA2NjUyNiAyOS44MDM3ODkgMTcuMjE5MzY5bDEwOS44NjQ0MjEgNjMuNDA3MTU4YzIwLjE1NjYzMiAxMS42NDEyNjMgMzYuNTEzNjg0LTAuNzI3NTc5IDM2LjUxMzY4NS0yNy42MjEwNTNWNjI0LjI4OTY4NGMwLTI2Ljg5MzQ3NC0xNi4zNTcwNTMtNTguMTUyNDIxLTM2LjUxMzY4NS02OS43OTM2ODRsLTEyMC42OTcyNjMtNjkuNjg1ODk1Yy02LjE3MDk0Ny0zLjU4NC0zNi45OTg3MzctNC45NTgzMTYtNDYuMjQxNjg0LTIuMDc0OTQ3LTI5LjI5MTc4OSA5LjEzNTE1OC0xNDguMDIxODk1IDc0LjM3NDczNy0xNDguMDIxODk1IDc0LjM3NDczN3YxOC40NTg5NDd6Ii8+PHBhdGggZD0iTTQzNi4zNTg3MzcgNTQxLjIzNzg5NXMtMTA0LjE3ODUyNi0xOTkuNTcyMjExLTE1MS4yMjg2MzItMjY4Ljg1Mzg5NWMtNC41MjcxNTgtNi42NTYtMTguMDI3Nzg5LTI5LjQ1MzQ3NC0yNC4wNjQtMzUuMzAxMDUzLTYuNzkwNzM3LTYuNTQ4MjExLTI0LjM4NzM2OC0xNC4wNjY1MjYtMjkuODAzNzg5LTE3LjE5MjQyMUwxMjEuMzk3ODk1IDE1Ni40NTY0MjFjLTIwLjE1NjYzMi0xMS42NDEyNjMtMzYuNTEzNjg0IDAuNzI3NTc5LTM2LjUxMzY4NCAyNy42MjEwNTN2MzA4LjQ2NjUyNmMwIDI2Ljg2NjUyNiAxNi4zNTcwNTMgNTguMTUyNDIxIDM2LjUxMzY4NCA2OS43OTM2ODRsMTIwLjY5NzI2MyA2OS42ODU4OTVjNi4xNzA5NDcgMy41NTcwNTMgMzYuOTk4NzM3IDQuOTMxMzY4IDQ2LjI0MTY4NCAyLjA0OCAyOS4yOTE3ODktOS4xMDgyMTEgMTQ4LjAyMTg5NS03NC4zNDc3ODkgMTQ4LjAyMTg5NS03NC4zNDc3OXYtMTguNDg1ODk0ek00OTguMzM3Njg0IDU3NS41Njg4NDJzMTA0LjE3ODUyNiAxOTkuNTcyMjExIDE1MS4yMjg2MzIgMjY4Ljg1Mzg5NWM0LjUyNzE1OCA2LjY1NiAxOC4wMjc3ODkgMjkuNDgwNDIxIDI0LjA2NCAzNS4zMDEwNTIgNi43OTA3MzcgNi41NDgyMTEgMjQuMzg3MzY4IDE0LjA2NjUyNiAyOS44MDM3ODkgMTcuMjE5MzY5bDEwOS44NjQ0MjEgNjMuNDA3MTU4YzIwLjE1NjYzMiAxMS42NDEyNjMgMzYuNTEzNjg0LTAuNzI3NTc5IDM2LjUxMzY4NS0yNy42MjEwNTNWNjI0LjI4OTY4NGMwLTI2Ljg5MzQ3NC0xNi4zNTcwNTMtNTguMTUyNDIxLTM2LjUxMzY4NS02OS43OTM2ODRsLTEyMC42OTcyNjMtNjkuNjg1ODk1Yy02LjE3MDk0Ny0zLjU4NC0zNi45OTg3MzctNC45NTgzMTYtNDYuMjQxNjg0LTIuMDc0OTQ3LTI5LjI5MTc4OSA5LjEzNTE1OC0xNDguMDIxODk1IDc0LjM3NDczNy0xNDguMDIxODk1IDc0LjM3NDczN3YxOC40NTg5NDd6Ii8+PHBhdGggZmlsbD0iIzZEOEFDQSIgZD0iTTQ3Ni43MjU4OTUgNTMxLjY5ODUyNmwtMzQuMTE1MzY5IDE5LjY5ODUyNyAxOC40NTg5NDggMzIuMDEzNDczIDI4LjY3Mi0xNi41NDU2ODQtMTMuMDE1NTc5LTM1LjE2NjMxNnoiLz48cGF0aCBmaWxsPSIjQThBOEE4IiBkPSJNMTY0LjEzNjQyMSA0MTAuOTQ3MzY4bC0xMC40Mjg2MzItNi4wMDkyNjNjLTEuMTMxNzg5LTIuMjA5Njg0LTEuNjcwNzM3LTYuOTI1NDc0LTEuNjcwNzM2LTE0LjIwMTI2M3YtMC4wODA4NDJsMC4wNTM4OTQtMy4yMzM2ODQgMC4xMDc3OS02LjkyNTQ3NGMwLTEuODU5MzY4LTEuMDc3ODk1LTMuNDIyMzE2LTMuMjYwNjMyLTQuNjYxODk1djI2LjI3MzY4NWwtMTAuNDAxNjg0LTYuMDA5MjY0di01NC43ODRsMTIuODUzODk1IDcuNDEwNTI3YTI2LjA4NTA1MyAyNi4wODUwNTMgMCAwIDEgNy42NTMwNTIgNi43NjM3ODkgMTQuNzEzMjYzIDE0LjcxMzI2MyAwIDAgMSAzLjI2MDYzMiA5LjI0Mjk0OHY2LjU3NTE1N2MwIDQuMjU3Njg0LTIuMTI4ODQyIDUuOTAxNDc0LTYuNDQwNDIxIDQuOTA0NDIyIDQuMzExNTc5IDMuNjkxNzg5IDYuNDk0MzE2IDcuOTQ5NDc0IDYuNDk0MzE2IDEyLjhsLTAuMTYxNjg0IDUuOTAxNDczYzAgOC43ODQ4NDIgMC42NDY3MzcgMTQuMTIwNDIxIDEuOTQwMjEgMTYuMDMzNjg0eiBtLTExLjk5MTU3OS00Mi44MTkzNjh2LTkuMDU0MzE2YzAtMS45MTMyNjMtMS4wNTA5NDctMy40NzYyMTEtMy4yMDY3MzctNC43MTU3ODl2MTQuODIxMDUyYzIuMTU1Nzg5IDEuMjM5NTc5IDMuMjA2NzM3IDAuODg5MjYzIDMuMjA2NzM3LTEuMDUwOTQ3ek0xODcuMjg0MjExIDM3Ni42MTY0MjFsLTUuODIwNjMyLTMuMzY4NDIxdjQ3LjY0Mjk0N2wtMTAuNDAxNjg0LTYuMDA5MjYzdi00Ny42NDI5NDdsLTUuODQ3NTc5LTMuMzY4NDIxdi03LjE0MTA1M2wyMi4wNjk4OTUgMTIuNzQ2MTA1djcuMTQxMDUzek0yMTguNzU4NzM3IDQ0Mi40MjE4OTVsLTExLjE4MzE1OC02LjQ2NzM2OS00Ljc2OTY4NC0yMC4zNzIyMS00LjQ0NjMxNiAxNS4wMzY2MzEtOS45NzA1MjYtNS43Mzk3ODkgOC4xOTItMjYuNDA4NDIxLTYuMDYzMTU4LTI3LjE2Mjk0OCAxMC4wMjQ0MjEgNS43OTM2ODUgMy42OTE3ODkgMTguMDI3Nzg5IDQuMTQ5ODk1LTEzLjUwMDYzMSA5LjM1MDczNyA1LjQxNjQyMS03LjExNDEwNSAyMS4yNjE0NzMgOC4xMzgxMDUgMzQuMTE1MzY5ek0yMzEuOTM2IDQyNy4wNjE4OTVsOS41NjYzMTYgNS41MjQyMXYxMi45ODg2MzJjMCAxLjM0NzM2OCAwLjYxOTc4OSAyLjM3MTM2OCAxLjg4NjMxNiAzLjA5ODk0NyAxLjIzOTU3OSAwLjcyNzU3OSAxLjg4NjMxNiAwLjQzMTE1OCAxLjg4NjMxNS0wLjkxNjIxdi0xMi42OTIyMTFhNS45ODIzMTYgNS45ODIzMTYgMCAwIDAtMC45NDMxNTgtMy41MDMxNTggMTEuNDI1Njg0IDExLjQyNTY4NCAwIDAgMC0zLjUzMDEwNS0yLjgyOTQ3M3YtNi4xNzA5NDhjMi45NjQyMTEgMS42OTc2ODQgNC40NzMyNjMgMS41MDkwNTMgNC40NzMyNjMtMC42NDY3Mzd2LTkuNzAxMDUyYzAtMS4xMDQ4NDItMC42NDY3MzctMS45OTQxMDUtMS44ODYzMTUtMi43MjE2ODQtMS4zMjA0MjEtMC43NTQ1MjYtMS45NjcxNTgtMC41OTI4NDItMS45NjcxNTggMC41MTJ2MTAuMDc4MzE1bC05LjIxNi01LjMzNTU3OXYtMTAuMTU5MTU4YzAtNi40NjczNjggMy44NTM0NzQtNy40NjQ0MjEgMTEuNjE0MzE1LTIuOTkxMTU3IDMuMDk4OTQ3IDEuODA1NDc0IDUuODIwNjMyIDQuMTQ5ODk1IDguMTM4MTA2IDcuMDMzMjYzYTE0LjY1OTM2OCAxNC42NTkzNjggMCAwIDEgMy40NzYyMSA5LjM3NzY4NHY3LjUxODMxNmMwIDQuMzkyNDIxLTEuODA1NDc0IDYuMjc4NzM3LTUuNDE2NDIxIDUuNzEyODQyYTE3LjI0NjMxNiAxNy4yNDYzMTYgMCAwIDEgNS41NzgxMDUgMTMuMzY1ODk1djguMTM4MTA1YzAgNy42MjYxMDUtMy45MzQzMTYgOS4xNjIxMDUtMTEuNzQ5MDUyIDQuNjYxODk1LTcuOTQ5NDc0LTQuNjA4LTExLjkxMDczNy0xMC4zNDc3ODktMTEuOTEwNzM3LTE3LjI3MzI2NHYtMTMuMDY5NDczek0yNTcuNDI4MjExIDQ1NS4zODM1NzlWNDIwLjEwOTQ3NGMwLTcuMDg3MTU4IDQuMDk2LTguMjcyODQyIDEyLjI4OC0zLjU1NzA1MyA4LjAzMDMxNiA0LjYzNDk0NyAxMi4wNDU0NzQgMTAuNDgyNTI2IDEyLjA0NTQ3MyAxNy41NDI3Mzd2MzUuMjQ3MTU4YzAgMy4xNTI4NDItMS4xMzE3ODkgNC45NTgzMTYtMy4zOTUzNjggNS4zODk0NzMtMi4yNjM1NzkgMC40MzExNTgtNS4xNzM4OTUtMC4zNzcyNjMtOC43MzA5NDgtMi40NTIyMWEyOC45NDE0NzQgMjguOTQxNDc0IDAgMCAxLTguODM4NzM2LTcuNjUzMDUzIDE1LjMzMzA1MyAxNS4zMzMwNTMgMCAwIDEtMy4zNjg0MjEtOS4yNDI5NDd6IG0xMy45MDQ4NDIgOC41OTYyMXYtMzcuMzIyMTA1YzAtMS4xMDQ4NDItMC41NjU4OTUtMS45NjcxNTgtMS42OTc2ODUtMi42MTM4OTUtMS4xODU2ODQtMC43MDA2MzItMS43Nzg1MjYtMC40ODUwNTMtMS43Nzg1MjYgMC41OTI4NDN2MzcuMzQ5MDUyYzAgMS4wNzc4OTUgMC41OTI4NDIgMS45NjcxNTggMS43Nzg1MjYgMi42Njc3OSAxLjEzMTc4OSAwLjY0NjczNyAxLjY5NzY4NCAwLjQzMTE1OCAxLjY5NzY4NS0wLjY3MzY4NXpNMjgzLjc1NTc4OSA0NTcuMDU0MzE2bDEwLjEzMjIxMSA1Ljg0NzU3OXYxMy45NTg3MzdjMCAxLjE4NTY4NCAwLjU5Mjg0MiAyLjEyODg0MiAxLjc1MTU3OSAyLjgwMjUyNiAxLjEzMTc4OSAwLjY0NjczNyAxLjY5NzY4NCAwLjM3NzI2MyAxLjY5NzY4NC0wLjgwODQyMXYtMTYuMjc2MjExYy0wLjc1NDUyNiAwLjQ4NTA1My0yLjEyODg0MiAwLjEzNDczNy00LjE3Njg0Mi0xLjA1MDk0N2EyMC45MzgxMDUgMjAuOTM4MTA1IDAgMCAxLTYuNzkwNzM3LTYuMjI0ODQyIDEzLjg1MDk0NyAxMy44NTA5NDcgMCAwIDEtMi42MTM4OTUtNy45NDk0NzR2LTEyLjc3MzA1MmMwLTMuMTc5Nzg5IDEuMDc3ODk1LTUuMDEyMjExIDMuMjYwNjMyLTUuNDcwMzE2IDIuMTgyNzM3LTAuNDU4MTA1IDUuMDM5MTU4IDAuMzIzMzY4IDguNTQyMzE2IDIuMzcxMzY4IDMuNTg0IDIuMDQ4IDYuNDY3MzY4IDQuNTgxMDUzIDguNjUwMTA1IDcuNTQ1MjYzYTE1LjM2IDE1LjM2IDAgMCAxIDMuMjg3NTc5IDkuMTg5MDUzdjM1LjMwMTA1M2MwIDcuMDg3MTU4LTMuOTg4MjExIDguMzI2NzM3LTExLjk5MTU3OSAzLjY5MTc4OS03Ljg0MTY4NC00LjUyNzE1OC0xMS43NDkwNTMtMTAuMjkzODk1LTExLjc0OTA1My0xNy4zMjcxNTh2LTEyLjgyNjk0N3ogbTEzLjU4MTQ3NC0yLjE1NTc5di0xMy4xNTAzMTVhMy4wNzIgMy4wNzIgMCAwIDAtMS42OTc2ODQtMi43NzU1NzljLTEuMTU4NzM3LTAuNjczNjg0LTEuNzUxNTc5LTAuNDA0MjExLTEuNzUxNTc5IDAuNzgxNDczdjEzLjE1MDMxNmMwIDEuMTg1Njg0IDAuNTkyODQyIDIuMTI4ODQyIDEuNzUxNTc5IDIuODAyNTI2IDEuMTMxNzg5IDAuNjQ2NzM3IDEuNjk3Njg0IDAuMzc3MjYzIDEuNjk3Njg0LTAuODA4NDIxek0zMDkuNDA5Njg0IDQ4NS40MDI5NDd2LTM1LjI3NDEwNWMwLTcuMTE0MTA1IDQuMDk2LTguMjk5Nzg5IDEyLjI4OC0zLjU1NzA1MyA4LjAzMDMxNiA0LjYzNDk0NyAxMi4wNDU0NzQgMTAuNDgyNTI2IDEyLjA0NTQ3NCAxNy41MTU3OXYzNS4yNzQxMDVjMCAzLjE1Mjg0Mi0xLjEzMTc4OSA0Ljk1ODMxNi0zLjM5NTM2OSA1LjM2MjUyNy0yLjI2MzU3OSAwLjQzMTE1OC01LjE3Mzg5NS0wLjM3NzI2My04LjczMDk0Ny0yLjQyNTI2NGEyOC4zNDg2MzIgMjguMzQ4NjMyIDAgMCAxLTguODM4NzM3LTcuNjggMTUuMjUyMjExIDE1LjI1MjIxMSAwIDAgMS0zLjM2ODQyMS05LjIxNnogbTEzLjkwNDg0MiA4LjU5NjIxMXYtMzcuMzIyMTA1YzAtMS4xMDQ4NDItMC41NjU4OTUtMS45NjcxNTgtMS42OTc2ODQtMi42NDA4NDItMS4xODU2ODQtMC42NzM2ODQtMS43Nzg1MjYtMC40NTgxMDUtMS43Nzg1MjYgMC42MTk3ODl2MzcuMzIyMTA1YzAgMS4xMDQ4NDIgMC41OTI4NDIgMS45OTQxMDUgMS43Nzg1MjYgMi42OTQ3MzcgMS4xMzE3ODkgMC42NDY3MzcgMS42OTc2ODQgMC40MDQyMTEgMS42OTc2ODQtMC42NzM2ODR6Ii8+PHBhdGggZmlsbD0iIzNCNTdBNiIgZD0iTTcwNC43Mjc1NzkgNTM1LjQ5ODEwNWM2OS40NDMzNjggNDAuMDk3Njg0IDEyNS44MTcyNjMgMTM3Ljc4MTg5NSAxMjUuODE3MjYzIDIxNy45NzcyNjNzLTU2LjM3Mzg5NSAxMTIuNzQ3Nzg5LTEyNS44MTcyNjMgNzIuNjUwMTA2Yy02OS40NzAzMTYtNDAuMDk3Njg0LTEyNS44NDQyMTEtMTM3Ljc4MTg5NS0xMjUuODQ0MjExLTIxNy45NzcyNjMgMC04MC4xNjg0MjEgNTYuMzczODk1LTExMi43NDc3ODkgMTI1Ljg0NDIxMS03Mi42NTAxMDZ6Ii8+PHBhdGggZmlsbD0iIzQ3NjJBRiIgZD0iTTY5My45NDg2MzIgNTQxLjcyMjk0N2M2OS40NDMzNjggNDAuMDk3Njg0IDEyNS44NDQyMTEgMTM3Ljc1NDk0NyAxMjUuODQ0MjEgMjE3Ljk1MDMxNiAwIDgwLjE5NTM2OC01Ni40MDA4NDIgMTEyLjc0Nzc4OS0xMjUuODQ0MjEgNzIuNjUwMTA1cy0xMjUuODQ0MjExLTEzNy43NTQ5NDctMTI1Ljg0NDIxMS0yMTcuOTUwMzE1YzAtODAuMTk1MzY4IDU2LjQwMDg0Mi0xMTIuNzQ3Nzg5IDEyNS44NDQyMTEtNzIuNjUwMTA2eiIvPjxwYXRoIGZpbGw9IiM2RDhBQ0EiIGQ9Ik02OTMuOTQ4NjMyIDY0NS43MTI4NDJjMTkuNzUyNDIxIDExLjM5ODczNyAzNS43ODYxMDUgMzkuMTgxNDc0IDM1Ljc4NjEwNSA2MS45Nzg5NDcgMCAyMi43OTc0NzQtMTYuMDMzNjg0IDMyLjA0MDQyMS0zNS43ODYxMDUgMjAuNjQxNjg1LTE5Ljc1MjQyMS0xMS4zOTg3MzctMzUuNzg2MTA1LTM5LjE1NDUyNi0zNS43ODYxMDYtNjEuOTUyIDAtMjIuODI0NDIxIDE2LjAzMzY4NC0zMi4wNjczNjggMzUuNzg2MTA2LTIwLjY2ODYzMnoiLz48cGF0aCBmaWxsPSIjMzk1NDlGIiBkPSJNNjkzLjk0ODYzMiA2NTUuNDY3Nzg5YzE1LjA5MDUyNiA4LjcwNCAyNy4zMjQ2MzIgMjkuOTExNTc5IDI3LjMyNDYzMSA0Ny4zNDY1MjcgMCAxNy40MDgtMTIuMjM0MTA1IDI0LjQ2ODIxMS0yNy4zMjQ2MzEgMTUuNzY0MjEtMTUuMDkwNTI2LTguNzA0LTI3LjMyNDYzMi0yOS45MTE1NzktMjcuMzI0NjMyLTQ3LjMxOTU3OSAwLTE3LjQzNDk0NyAxMi4yMzQxMDUtMjQuNDk1MTU4IDI3LjMyNDYzMi0xNS43OTExNTh6Ii8+PHBhdGggZmlsbD0iIzZEOEFDQSIgZD0iTTY3Ni43NTYyMTEgNTM1LjkwMjMxNmMtMzMuMTE4MzE2LTE5LjEzMjYzMi01OS45ODQ4NDItMTEuMTAyMzE2LTU5Ljk4NDg0MyAxNy44NjYxMDUgMCAyOC45OTUzNjggMjYuODY2NTI2IDY4LjA2OTA1MyA1OS45ODQ4NDMgODcuMTc0NzM3LTkuOTQzNTc5LTE3Ljk3Mzg5NS0xOC4wMDA4NDItNDEuOTU3MDUzLTE4LjAwMDg0My02Mi45MjIxMDUgMC0yMC45MzgxMDUgOC4wNTcyNjMtMzUuNTk3NDc0IDE4LjAwMDg0My00Mi4xMTg3Mzd6TTc2MS4xODIzMTYgNjAzLjE2Mjk0N2MtMjcuMDU1MTU4LTM3LjY0NTQ3NC02MC42ODU0NzQtNTUuODM0OTQ3LTc0Ljk5NDUyNy00MC42MDk2ODQtMTQuMzM2IDE1LjIyNTI2My0zLjk4ODIxMSA1OC4xMjU0NzQgMjMuMDkzODk1IDk1Ljc3MDk0OC0yLjA3NDk0Ny0xNy43MzEzNjggMC44ODkyNjMtMzcuMDI1Njg0IDExLjIzNzA1My00OC4wNDcxNTggMTAuMzQ3Nzg5LTEwLjk5NDUyNiAyNi40ODkyNjMtMTEuOTY0NjMyIDQwLjY2MzU3OS03LjExNDEwNnoiLz48cGF0aCBmaWxsPSIjNkQ4QUNBIiBkPSJNODE1LjYxNiA3MjIuMDgxNjg0Yy01LjAxMjIxMS00MC42OTA1MjYtMjkuMjM3ODk1LTgxLjc4NTI2My01NC4wNTY0MjEtOTEuNzI4ODQyLTI0LjgxODUyNi05LjkxNjYzMi00MC44NzkxNTggMTUuMDYzNTc5LTM1Ljg2Njk0NyA1NS43NTQxMDUgOC45NzM0NzQtOC4wMDMzNjggMjQuMzA2NTI2LTExLjMxNzg5NSA0Mi4yMjY1MjYtNC4xMjI5NDcgMTcuOTQ2OTQ3IDcuMTY4IDM1LjcwNTI2MyAyMy42ODY3MzcgNDcuNjk2ODQyIDQwLjA5NzY4NHoiLz48cGF0aCBmaWxsPSIjNkQ4QUNBIiBkPSJNNzg5LjAxODk0NyA4MjYuNDIxODk1YzI2LjQ2MjMxNi03LjY4IDM0LjY1NDMxNi00Mi4wMTA5NDcgMTguMjk3MjY0LTc2LjU4NDQyMS0xNi4zNTcwNTMtMzQuNTczNDc0LTUxLjExOTE1OC01Ni40MDA4NDItNzcuNTgxNDc0LTQ4LjY5Mzg5NSAxNC44NDggMTIuMzE0OTQ3IDMyLjIwMjEwNSAzMy40Njg2MzIgNDQuMDMyIDU4LjQ0ODg0MiAxMS44MDI5NDcgMjUuMDA3MTU4IDE2LjI3NjIxMSA0OS45MDY1MjYgMTUuMjUyMjEgNjYuODI5NDc0ek02OTEuOTAwNjMyIDgyNC45MTI4NDJjMzEuNjM2MjExIDI5LjUzNDMxNiA2NC4wNTM4OTUgMzIuMjAyMTA1IDcyLjM1MzY4NCA1Ljk1NTM2OSA4LjMyNjczNy0yNi4yNzM2ODQtMTAuNjE3MjYzLTcxLjU3MjIxMS00Mi4yNTM0NzQtMTAxLjEzMzQ3NCA1Ljk4MjMxNiAxOS45NjggOC4xMzgxMDUgNDQuNjc4NzM3IDIuMTI4ODQyIDYzLjY0OTY4NC02LjAwOTI2MyAxOC45NzA5NDctMTkuMjQwNDIxIDI5LjI5MTc4OS0zMi4yMjkwNTIgMzEuNTI4NDIxeiIvPjxwYXRoIGZpbGw9IiM2RDhBQ0EiIGQ9Ik02MTUuNjY2NTI2IDc0Ni45NTQxMDVjMTkuNzI1NDc0IDQyLjA5MTc4OSA1Mi42NTUxNTggNzEuNTE4MzE2IDczLjQ1ODUyNyA2NS42OTc2ODQgMjAuNzc2NDIxLTUuODIwNjMyIDIxLjYzODczNy00NC43MzI2MzIgMS45MTMyNjMtODYuODI0NDIxLTIuODgzMzY4IDE1LjA5MDUyNi0xMS45Mzc2ODQgMjkuMjEwOTQ3LTI2Ljk3NDMxNiAzMy40NDE2ODUtMTUuMDM2NjMyIDQuMjAzNzg5LTMzLjY4NDIxMS0yLjE1NTc4OS00OC4zOTc0NzQtMTIuMzE0OTQ4eiIvPjxwYXRoIGZpbGw9IiM2RDhBQ0EiIGQ9Ik01NzQuNzMzNDc0IDY1Mi4yMDcxNThjMy4wOTg5NDcgMzguOTY1ODk1IDI1LjkyMzM2OCA4MC4xMTQ1MjYgNTAuOTg0NDIxIDkxLjgwOTY4NCAyNS4wNjEwNTMgMTEuNjk1MTU4IDQyLjg3MzI2My0xMC40NTU1NzkgMzkuODAxMjYzLTQ5LjQ0ODQyMS05LjY3NDEwNSA2Ljc2Mzc4OS0yNS42IDguNDYxNDc0LTQzLjcwODYzMiAwLTE4LjEwODYzMi04LjQzNDUyNi0zNS41NDM1NzktMjUuNzM0NzM3LTQ3LjA3NzA1Mi00Mi4zNjEyNjN6Ii8+PHBhdGggZmlsbD0iIzZEOEFDQSIgZD0iTTU3Ni4zMjMzNjggNTY3LjQzMDczN2MtMTIuMjA3MTU4IDI3LjU0MDIxMS0zLjI2MDYzMiA2OS42NTg5NDcgMTkuOTQxMDUzIDkzLjk5MjQyMSAyMy4yMDE2ODQgMjQuMzA2NTI2IDUxLjk4MTQ3NCAyMS42OTI2MzIgNjQuMTg4NjMyLTUuODc0NTI2LTEzLjQ3MzY4NC0yLjAyMTA1My0zMS45MzI2MzItMTEuNTA2NTI2LTQ4LjY5Mzg5NS0yOS4wNzYyMTFhMTY1LjgzNDEwNSAxNjUuODM0MTA1IDAgMCAxLTM1LjQzNTc5LTU5LjA0MTY4NHoiLz48cGF0aCBmaWxsPSIjMjgzOTYxIiBkPSJNMjc1LjI0MDQyMSA3Ni42NjUyNjNMMTkyLjU2NTg5NSAyOC45NDE0NzR2ODMuNDgyOTQ3bDgyLjY3NDUyNiA0Ny43NTA3MzdWNzYuNjY1MjYzeiIvPjxwYXRoIGZpbGw9IiNFMkIzNkIiIGQ9Ik0yNzUuMjQwNDIxIDQ3Ljc1MDczN0wxOTIuNTY1ODk1IDB2MzkuMjYyMzE2bDgyLjY3NDUyNiA0Ny43MjM3ODlWNDcuNzUwNzM3eiIvPjxwYXRoIGZpbGw9IiNFMUNCQTkiIGQ9Ik0yMDMuODI5ODk1IDYuNDk0MzE2TDE5OS41NzIyMTEgNC4wNDIxMDV2MzkuMjYyMzE2bDQuMjU3Njg0IDIuNDUyMjExVjYuNDk0MzE2ek0yMTQuMDE2IDEyLjM5NTc4OUwyMDkuNzU4MzE2IDkuOTQzNTc5djM5LjIzNTM2OGw0LjI1NzY4NCAyLjQ3OTE1OFYxMi4zOTU3ODl6TTIyNC4yMjkwNTMgMTguMjk3MjYzTDIxOS45NzEzNjggMTUuODE4MTA1djM5LjI2MjMxNmw0LjI1NzY4NSAyLjQ1MjIxMVYxOC4yOTcyNjN6TTIzNC40NDIxMDUgMjQuMTcxNzg5TDIzMC4xNTc0NzQgMjEuNzE5NTc5djM5LjI2MjMxNmw0LjI4NDYzMSAyLjQ1MjIxVjI0LjE3MTc4OXpNMjQ0LjYyODIxMSAzMC4wNzMyNjNsLTQuMjU3Njg1LTIuNDc5MTU4djM5LjI2MjMxNmw0LjI1NzY4NSAyLjQ3OTE1OFYzMC4wNzMyNjN6TTI1NC44NDEyNjMgMzUuOTQ3Nzg5bC00LjI1NzY4NC0yLjQ1MjIxVjcyLjc1Nzg5NWw0LjI1NzY4NCAyLjQ1MjIxVjM1Ljk0Nzc4OXpNMjY1LjA1NDMxNiA0MS44NDkyNjNsLTQuMjg0NjMyLTIuNDUyMjF2MzkuMjYyMzE1bDQuMjg0NjMyIDIuNDUyMjExVjQxLjg0OTI2M3pNMjc1LjI0MDQyMSA0Ny43NTA3MzdsLTQuMjU3Njg0LTIuNDc5MTU4djM5LjI2MjMxNmw0LjI1NzY4NCAyLjQ1MjIxVjQ3Ljc1MDczN3oiLz48cGF0aCBmaWxsPSIjMjgzOTYxIiBkPSJNMjg3LjI4NTg5NSAxMTMuODI1Njg0bC0yMi43NDM1NzktMTMuMTUwMzE2djUzLjMyODg0M2wyMi43NDM1NzkgMTMuMTIzMzY4VjExMy44MjU2ODR6TTY4OC42OTM4OTUgMzEyLjU2MjUyNkwyODcuMjg1ODk1IDgwLjc4ODIxMXY4Ni4zMzkzNjhsNDAxLjQwOCAyMzEuNzQ3MzY4di04Ni4zMTI0MjF6Ii8+PHBhdGggZmlsbD0iI0UyQjM2QiIgZD0iTTY4OC42OTM4OTUgMjg1LjEzMDEwNUwyODcuMjg1ODk1IDUzLjM1NTc4OXYzOS4yMzUzNjlsNDAxLjQwOCAyMzEuNzc0MzE2di0zOS4yMzUzNjl6Ii8+PHBhdGggZmlsbD0iI0UxQ0JBOSIgZD0iTTI5MS41NDM1NzkgNTUuODM0OTQ3bC00LjI1NzY4NC0yLjQ3OTE1OHYzOS4yNjIzMTZsNC4yNTc2ODQgMi40NzkxNThWNTUuODM0OTQ3ek0zMDMuOTY2MzE2IDYzLjAwMjk0N2wtNC4yNTc2ODQtMi40NzkxNTh2MzkuMjYyMzE2bDQuMjU3Njg0IDIuNDUyMjExVjYzLjAwMjk0N3pNMzE2LjM2MjEwNSA3MC4xNDRsLTQuMjU3Njg0LTIuNDUyMjExdjM5LjI2MjMxNmw0LjI1NzY4NCAyLjQ1MjIxMVY3MC4xNDR6TTMyOC43ODQ4NDIgNzcuMzEybC00LjI1NzY4NC0yLjQ1MjIxMXYzOS4yNjIzMTZsNC4yNTc2ODQgMi40NTIyMTFWNzcuMzEyek0zNDEuMjA3NTc5IDg0LjQ4bC00LjI4NDYzMi0yLjQ1MjIxMXYzOS4yNjIzMTZsNC4yODQ2MzIgMi40NTIyMTFWODQuNDh6TTM1My42MDMzNjggOTEuNjQ4bC00LjI1NzY4NC0yLjQ1MjIxMXYzOS4yNjIzMTZsNC4yNTc2ODQgMi40NTIyMTFWOTEuNjQ4ek0zNjYuMDI2MTA1IDk4LjgxNmwtNC4yODQ2MzEtMi40NTIyMTF2MzkuMjYyMzE2bDQuMjg0NjMxIDIuNDUyMjExVjk4LjgxNnpNMzc4LjQyMTg5NSAxMDUuOTg0bC00LjI1NzY4NC0yLjQ1MjIxMXYzOS4yMzUzNjlsNC4yNTc2ODQgMi40NzkxNThWMTA1Ljk4NHpNMzkwLjg0NDYzMiAxMTMuMTUybC00LjI1NzY4NS0yLjQ1MjIxMXYzOS4yMzUzNjlsNC4yNTc2ODUgMi40NzkxNThWMTEzLjE1MnpNNDAzLjI0MDQyMSAxMjAuMzJsLTQuMjU3Njg0LTIuNDc5MTU4VjE1Ny4xMDMxNThsNC4yNTc2ODQgMi40NzkxNThWMTIwLjMyek00MTUuNjYzMTU4IDEyNy40ODhsLTQuMjU3Njg0LTIuNDc5MTU4djM5LjI2MjMxNmw0LjI1NzY4NCAyLjQ3OTE1OFYxMjcuNDg4ek00MjguMDU4OTQ3IDEzNC42NTZsLTQuMjU3Njg0LTIuNDc5MTU4djM5LjI2MjMxNmw0LjI1NzY4NCAyLjQ1MjIxVjEzNC42NTZ6TTQ0MC40ODE2ODQgMTQxLjgyNGwtNC4yNTc2ODQtMi40NzkxNTh2MzkuMjYyMzE2bDQuMjU3Njg0IDIuNDUyMjFWMTQxLjgyNHpNNDUyLjkwNDQyMSAxNDguOTY1MDUzbC00LjI4NDYzMi0yLjQ1MjIxMXYzOS4yNjIzMTZsNC4yODQ2MzIgMi40NTIyMVYxNDguOTY1MDUzek00NjUuMzAwMjExIDE1Ni4xMzMwNTNsLTQuMjU3Njg1LTIuNDUyMjExVjE5Mi45NDMxNThsNC4yNTc2ODUgMi40NTIyMVYxNTYuMTMzMDUzek00NzcuNzIyOTQ3IDE2My4zMDEwNTNsLTQuMjg0NjMxLTIuNDUyMjExdjM5LjI2MjMxNmw0LjI4NDYzMSAyLjQ1MjIxVjE2My4zMDEwNTN6TTQ5MC4xMTg3MzcgMTcwLjQ2OTA1M2wtNC4yNTc2ODQtMi40NTIyMTF2MzkuMjYyMzE2bDQuMjU3Njg0IDIuNDUyMjFWMTcwLjQ2OTA1M3pNNTAyLjU0MTQ3NCAxNzcuNjM3MDUzbC00LjI1NzY4NS0yLjQ1MjIxMXYzOS4yNjIzMTZsNC4yNTc2ODUgMi40NTIyMVYxNzcuNjM3MDUzek01MTQuOTM3MjYzIDE4NC44MDUwNTNsLTQuMjU3Njg0LTIuNDUyMjExdjM5LjIzNTM2OWw0LjI1NzY4NCAyLjQ3OTE1N1YxODQuODA1MDUzek01MjcuMzYgMTkxLjk3MzA1M2wtNC4yNTc2ODQtMi40NTIyMTF2MzkuMjM1MzY5bDQuMjU3Njg0IDIuNDc5MTU3VjE5MS45NzMwNTN6TTUzOS43ODI3MzcgMTk5LjE0MTA1M2wtNC4yODQ2MzItMi40NzkxNTh2MzkuMjYyMzE2bDQuMjg0NjMyIDIuNDc5MTU3VjE5OS4xNDEwNTN6TTU1Mi4xNzg1MjYgMjA2LjMwOTA1M2wtNC4yNTc2ODQtMi40NzkxNTh2MzkuMjYyMzE2bDQuMjU3Njg0IDIuNDc5MTU3VjIwNi4zMDkwNTN6TTU2NC42MDEyNjMgMjEzLjQ3NzA1M2wtNC4yODQ2MzEtMi40NzkxNTh2MzkuMjYyMzE2bDQuMjg0NjMxIDIuNDUyMjFWMjEzLjQ3NzA1M3pNNTc2Ljk5NzA1MyAyMjAuNjQ1MDUzbC00LjI1NzY4NS0yLjQ3OTE1OHYzOS4yNjIzMTZsNC4yNTc2ODUgMi40NTIyMVYyMjAuNjQ1MDUzek01ODkuNDE5Nzg5IDIyNy43ODYxMDVsLTQuMjU3Njg0LTIuNDUyMjF2MzkuMjYyMzE2bDQuMjU3Njg0IDIuNDUyMjFWMjI3Ljc4NjEwNXpNNjAxLjgxNTU3OSAyMzQuOTU0MTA1bC00LjI1NzY4NC0yLjQ1MjIxdjM5LjI2MjMxNmw0LjI1NzY4NCAyLjQ1MjIxVjIzNC45NTQxMDV6TTYxNC4yMzgzMTYgMjQyLjEyMjEwNWwtNC4yNTc2ODQtMi40NTIyMXYzOS4yNjIzMTZsNC4yNTc2ODQgMi40NTIyMVYyNDIuMTIyMTA1ek02MjYuNjM0MTA1IDI0OS4yOTAxMDVsLTQuMjU3Njg0LTIuNDUyMjF2MzkuMjYyMzE2bDQuMjU3Njg0IDIuNDUyMjFWMjQ5LjI5MDEwNXpNNjM5LjA1Njg0MiAyNTYuNDU4MTA1bC00LjI1NzY4NC0yLjQ1MjIxdjM5LjI2MjMxNmw0LjI1NzY4NCAyLjQ1MjIxVjI1Ni40NTgxMDV6TTY1MS40Nzk1NzkgMjYzLjYyNjEwNWwtNC4yODQ2MzItMi40NTIyMXYzOS4yMzUzNjhsNC4yODQ2MzIgMi40NzkxNThWMjYzLjYyNjEwNXpNNjYzLjg3NTM2OCAyNzAuNzk0MTA1bC00LjI1NzY4NC0yLjQ1MjIxdjM5LjIzNTM2OGw0LjI1NzY4NCAyLjQ3OTE1OHYtMzkuMjYyMzE2ek02NzYuMjk4MTA1IDI3Ny45NjIxMDVsLTQuMjg0NjMxLTIuNDc5MTU4djM5LjI2MjMxNmw0LjI4NDYzMSAyLjQ3OTE1OHYtMzkuMjYyMzE2ek02ODguNjkzODk1IDI4NS4xMzAxMDVsLTQuMjU3Njg0LTIuNDc5MTU4djM5LjI2MjMxNmw0LjI1NzY4NCAyLjQ3OTE1OHYtMzkuMjYyMzE2eiIvPjxwYXRoIGZpbGw9IiMyODM5NjEiIGQ9Ik02ODguNjkzODk1IDI4NS4xMzAxMDVzNy44Njg2MzIgMTAzLjIzNTM2OCA4LjgzODczNyAxMDMuMjM1MzY5YzAuOTQzMTU4IDAtOC44Mzg3MzcgMTAuNTA5NDc0LTguODM4NzM3IDEwLjUwOTQ3MyIvPjxwYXRoIGZpbGw9IiM2RDhBQ0EiIGQ9Ik02ODguNjkzODk1IDkwOS42MzUzNjhMMjI5LjI2ODIxMSA2NDQuMzY1NDc0djE1LjE0NDQyMWw0NTkuNDI1Njg0IDI2NS4yNjk4OTR2LTE1LjE0NDQyMXoiLz48cGF0aCBmaWxsPSIjMjgzOTYxIiBkPSJNNzYwLjU4OTQ3NCA0MDUuODU0MzE2bC01My43MDYxMDYgMzEuMDE2NDIxIDEwLjIxMzA1MyA1LjkwMTQ3NCA1My43MDYxMDUtMzEuMDE2NDIyLTEwLjIxMzA1Mi01LjkwMTQ3M3pNNzg3LjI5NDMxNiA0MjEuMjk1MTU4bC01My42NzkxNTggMzAuOTg5NDc0IDEwLjIxMzA1MyA1LjkwMTQ3MyA1My43MDYxMDUtMzAuOTg5NDczLTEwLjI0LTUuOTAxNDc0ek04MTQuMDI2MTA1IDQzNi43MzZsLTUzLjcwNjEwNSAzMC45ODk0NzQgMTAuMjQgNS45MDE0NzMgNTMuNjc5MTU4LTMxLjAxNjQyMS0xMC4yMTMwNTMtNS44NzQ1MjZ6TTg0MC43NTc4OTUgNDUyLjE0OTg5NWwtNTMuNzA2MTA2IDMxLjAxNjQyMSAxMC4yMTMwNTMgNS44NzQ1MjYgNTMuNzA2MTA1LTMwLjk4OTQ3NC0xMC4yMTMwNTItNS45MDE0NzN6TTg2Ny40NjI3MzcgNDY3LjU5MDczN2wtNTMuNjc5MTU4IDMwLjk4OTQ3NCAxMC4yMTMwNTMgNS45MDE0NzMgNTMuNzA2MTA1LTMwLjk4OTQ3My0xMC4yNC01LjkwMTQ3NHpNODk0LjE5NDUyNiA0ODMuMDA0NjMybC01My43MDYxMDUgMzEuMDE2NDIxIDEwLjI0IDUuODc0NTI2IDUzLjY3OTE1OC0zMC45ODk0NzQtMTAuMjEzMDUzLTUuOTAxNDczek05NTAuNjc2MjExIDU5NC45MTcwNTNsLTU4LjIzMzI2NCAzMy42MzAzMTV2MTMuNzk3MDUzbDU4LjIzMzI2NC0zMy42MDMzNjh2LTEzLjgyNHpNOTUwLjc4NCA2MjguMTk3MDUzbC01OC4yMzMyNjMgMzMuNjMwMzE1djEzLjc5NzA1M2w1OC4yMzMyNjMtMzMuNjMwMzE2di0xMy43OTcwNTJ6TTk1MC45MTg3MzcgNjYxLjQ3NzA1M2wtNTguMjYwMjExIDMzLjYzMDMxNXYxMy43OTcwNTNsNTguMjYwMjExLTMzLjYzMDMxNnYtMTMuNzk3MDUyek05NTEuMDI2NTI2IDY5NC43NTcwNTNMODkyLjc2NjMxNiA3MjguMzg3MzY4djEzLjc5NzA1M2w1OC4yNjAyMS0zMy42MzAzMTZ2LTEzLjc5NzA1MnpNOTUxLjEzNDMxNiA3MjguMDM3MDUzbC01OC4yNjAyMTEgMzMuNjMwMzE1djEzLjc5NzA1M2w1OC4yNjAyMTEtMzMuNjMwMzE2di0xMy43OTcwNTJ6TTk1MS4yNDIxMDUgNzYxLjMxNzA1M0w4OTIuOTgxODk1IDc5NC45NDczNjh2MTMuNzk3MDUzbDU4LjI2MDIxLTMzLjYzMDMxNnYtMTMuNzk3MDUyek05NTEuMzQ5ODk1IDc5NC41OTcwNTNsLTU4LjI2MDIxMSAzMy42MzAzMTV2MTMuNzk3MDUzbDU4LjI2MDIxMS0zMy42MzAzMTZ2LTEzLjc5NzA1MnpNOTUxLjQ1NzY4NCA4MjcuODc3MDUzbC01OC4yNjAyMSAzMy42MzAzMTV2MTMuNzk3MDUzbDU4LjI2MDIxLTMzLjYzMDMxNnYtMTMuNzk3MDUyek05NTEuNTY1NDc0IDg2MS4xNTcwNTNsLTU4LjI2MDIxMSAzMy42MzAzMTV2MTMuNzk3MDUzbDU4LjI2MDIxMS0zMy42MzAzMTZ2LTEzLjc5NzA1MnpNOTUxLjY3MzI2MyA4OTQuNDM3MDUzbC01OC4yNjAyMSAzMy42MDMzNjh2MTMuODI0bDU4LjI2MDIxLTMzLjYzMDMxNnYtMTMuNzk3MDUyeiIvPjwvc3ZnPg==;fontFamily=Times New Roman;fontSize=14;" parent="HQ2Fdn0g2VNDSRRO2uoz-30" vertex="1">
          <mxGeometry x="110" y="50" width="60" height="60" as="geometry" />
        </mxCell>
        <mxCell id="HQ2Fdn0g2VNDSRRO2uoz-32" value="" style="shape=image;verticalLabelPosition=bottom;labelBackgroundColor=default;verticalAlign=top;aspect=fixed;imageAspect=0;image=data:image/svg+xml,PHN2ZyB4bWxuczp4bGluaz0iaHR0cDovL3d3dy53My5vcmcvMTk5OS94bGluayIgeG1sbnM9Imh0dHA6Ly93d3cudzMub3JnLzIwMDAvc3ZnIiBoZWlnaHQ9IjIwMCIgd2lkdGg9IjIwMCIgdmVyc2lvbj0iMS4xIiB2aWV3Qm94PSIwIDAgMTAyNCAxMDI0IiBjbGFzcz0iaWNvbiI+PHBhdGggZmlsbD0iIzM4NDI0NCIgZD0iTTE4OC45NjYgMjA0LjQwOGg2MDAuNTQxdjYwMC41MjhIMTg4Ljk2NnoiLz48cGF0aCBmaWxsPSIjRkZGRkZGIiBkPSJNMjY4LjEwMSAyODMuNTNoNDQyLjI3M3Y0NDIuMjgxSDI2OC4xMDF6Ii8+PHBhdGggZmlsbD0iIzY5NkY2RiIgZD0iTTMwMi43NzggMTE4LjM2NmgyMi41ODd2ODYuMDQyaC0yMi41ODd6TTM1Mi44MjEgMTE4LjM2NmgyMi41OTZ2ODYuMDQyaC0yMi41OTZ6TTQwMi44NzcgMTE4LjM2NmgyMi41ODh2ODYuMDQyaC0yMi41ODh6TTQ1Mi45MiAxMTguMzY2aDIyLjU4OHY4Ni4wNDJINDUyLjkyek01MDIuOTY2IDExOC4zNjZoMjIuNTk2djg2LjA0MmgtMjIuNTk2ek01NTMuMDEzIDExOC4zNjZoMjIuNTkxdjg2LjA0MmgtMjIuNTkxek02MDMuMDU2IDExOC4zNjZoMjIuNTk5djg2LjA0MmgtMjIuNTk5ek02NTMuMTA4IDExOC4zNjZoMjIuNTl2ODYuMDQyaC0yMi41OXoiLz48cGF0aCBmaWxsPSIjNjk2RjZGIiBkPSJNMzAyLjc3OCA4MDQuOTM2aDIyLjU4N3Y4Ni4wMzFoLTIyLjU4N3pNMzUyLjgyMSA4MDQuOTM2aDIyLjU5NnY4Ni4wMzFoLTIyLjU5NnpNNDAyLjg3NyA4MDQuOTM2aDIyLjU4OHY4Ni4wMzFoLTIyLjU4OHpNNDUyLjkyIDgwNC45MzZoMjIuNTg4djg2LjAzMUg0NTIuOTJ6TTUwMi45NjYgODA0LjkzNmgyMi41OTZ2ODYuMDMxaC0yMi41OTZ6TTU1My4wMTMgODA0LjkzNmgyMi41OTF2ODYuMDMxaC0yMi41OTF6TTYwMy4wNTYgODA0LjkzNmgyMi41OTl2ODYuMDMxaC0yMi41OTl6TTY1My4xMDggODA0LjkzNmgyMi41OXY4Ni4wMzFoLTIyLjU5eiIvPjxwYXRoIGZpbGw9IiM2OTZGNkYiIGQ9Ik03ODkuNTA3IDMxOC4yMDhoODYuMDMydjIyLjU4OGgtODYuMDMyek03ODkuNTA3IDM2OC4yNTRoODYuMDMydjIyLjU4OGgtODYuMDMyek03ODkuNTA3IDQxOC4zaDg2LjAzMnYyMi41OTVoLTg2LjAzMnpNNzg5LjUwNyA0NjguMzU0aDg2LjAzMnYyMi41ODVoLTg2LjAzMnpNNzg5LjUwNyA1MTguMzk1aDg2LjAzMnYyMi41OWgtODYuMDMyek03ODkuNTA3IDU2OC40NDNoODYuMDMydjIyLjU5MmgtODYuMDMyek03ODkuNTA3IDYxOC40OWg4Ni4wMzJ2MjIuNTk0aC04Ni4wMzJ6TTc4OS41MDcgNjY4LjUzOWg4Ni4wMzJ2MjIuNTg4aC04Ni4wMzJ6Ii8+PHBhdGggZmlsbD0iIzY5NkY2RiIgZD0iTTEwMi45MzYgMzE4LjIwOGg4Ni4wM3YyMi41ODhoLTg2LjAzek0xMDIuOTM2IDM2OC4yNTRoODYuMDN2MjIuNTg4aC04Ni4wM3pNMTAyLjkzNiA0MTguM2g4Ni4wM3YyMi41OTVoLTg2LjAzek0xMDIuOTM2IDQ2OC4zNTRoODYuMDN2MjIuNTg1aC04Ni4wM3pNMTAyLjkzNiA1MTguMzk1aDg2LjAzdjIyLjU5aC04Ni4wM3pNMTAyLjkzNiA1NjguNDQzaDg2LjAzdjIyLjU5MmgtODYuMDN6TTEwMi45MzYgNjE4LjQ5aDg2LjAzdjIyLjU5NGgtODYuMDN6TTEwMi45MzYgNjY4LjUzOWg4Ni4wM3YyMi41ODhoLTg2LjAzeiIvPjxwYXRoIGZpbGw9IiMyMUE0RDQiIGQ9Ik0zMjEuNiA0NDIuNTcxaDg0LjQ1NnYyNi40OTlIMzIxLjZ6TTMyMS42IDU0MC4yNzVoODQuNDU2djI2LjQ5NkgzMjEuNnoiLz48cGF0aCBmaWxsPSIjMjFBNEQ0IiBkPSJNMzE5LjYyOSA0NDIuNTcxaDI2LjQ5NnYxMjQuMmgtMjYuNDk2eiIvPjxwYXRoIGZpbGw9IiMyMUE0RDQiIGQ9Ik01NjEuMTQ0IDQ0Mi4wMTdoMjYuNDk2djEyNS4zMDFoLTI2LjQ5NnpNNjMyLjM1IDQ0Mi4wMTdoMjYuNDk2djEyNS4zMDFINjMyLjM1eiIvPjxwYXRoIGZpbGw9IiMyMUE0RDQiIGQ9Ik01NjEuMTQ0IDU0MC44MjJoOTcuNzAydjI2LjQ5NmgtOTcuNzAyeiIvPjxwYXRoIGZpbGw9IiMyMUE0RDQiIGQ9Ik00MzQuODI5IDQ0Mi41NzFoODQuNDUydjI2LjQ5OWgtODQuNDUyek00MzQuODI5IDQ5OC4wNDRoOTcuNzAydjI2LjQ5M2gtOTcuNzAyeiIvPjxwYXRoIGZpbGw9IiMyMUE0RDQiIGQ9Ik00MzIuODYgNDQyLjU3MWgyNi40OTR2MTI0LjJINDMyLjg2ek01MTMuNDg4IDQ0Mi41NzFoMjYuNDk0djgxLjk2NmgtMjYuNDk0eiIvPjwvc3ZnPg==;fontFamily=Times New Roman;fontSize=14;" parent="HQ2Fdn0g2VNDSRRO2uoz-30" vertex="1">
          <mxGeometry y="80" width="55" height="55" as="geometry" />
        </mxCell>
        <mxCell id="HQ2Fdn0g2VNDSRRO2uoz-33" value="" style="shape=image;verticalLabelPosition=bottom;labelBackgroundColor=default;verticalAlign=top;aspect=fixed;imageAspect=0;image=data:image/svg+xml,PHN2ZyB4bWxuczp4bGluaz0iaHR0cDovL3d3dy53My5vcmcvMTk5OS94bGluayIgeG1sbnM9Imh0dHA6Ly93d3cudzMub3JnLzIwMDAvc3ZnIiBoZWlnaHQ9IjIwMCIgd2lkdGg9IjIwMCIgdmVyc2lvbj0iMS4xIiB2aWV3Qm94PSIwIDAgMTAyNCAxMDI0IiBjbGFzcz0iaWNvbiI+PHBhdGggZmlsbD0iIzM4NDI0NCIgZD0iTTE4OC45NjYgMjA0LjQwOGg2MDAuNTQxdjYwMC41MjhIMTg4Ljk2NnoiLz48cGF0aCBmaWxsPSIjRkZGRkZGIiBkPSJNMjY4LjEwMSAyODMuNTNoNDQyLjI3M3Y0NDIuMjgxSDI2OC4xMDF6Ii8+PHBhdGggZmlsbD0iIzY5NkY2RiIgZD0iTTMwMi43NzggMTE4LjM2NmgyMi41ODd2ODYuMDQyaC0yMi41ODd6TTM1Mi44MjEgMTE4LjM2NmgyMi41OTZ2ODYuMDQyaC0yMi41OTZ6TTQwMi44NzcgMTE4LjM2NmgyMi41ODh2ODYuMDQyaC0yMi41ODh6TTQ1Mi45MiAxMTguMzY2aDIyLjU4OHY4Ni4wNDJINDUyLjkyek01MDIuOTY2IDExOC4zNjZoMjIuNTk2djg2LjA0MmgtMjIuNTk2ek01NTMuMDEzIDExOC4zNjZoMjIuNTkxdjg2LjA0MmgtMjIuNTkxek02MDMuMDU2IDExOC4zNjZoMjIuNTk5djg2LjA0MmgtMjIuNTk5ek02NTMuMTA4IDExOC4zNjZoMjIuNTl2ODYuMDQyaC0yMi41OXoiLz48cGF0aCBmaWxsPSIjNjk2RjZGIiBkPSJNMzAyLjc3OCA4MDQuOTM2aDIyLjU4N3Y4Ni4wMzFoLTIyLjU4N3pNMzUyLjgyMSA4MDQuOTM2aDIyLjU5NnY4Ni4wMzFoLTIyLjU5NnpNNDAyLjg3NyA4MDQuOTM2aDIyLjU4OHY4Ni4wMzFoLTIyLjU4OHpNNDUyLjkyIDgwNC45MzZoMjIuNTg4djg2LjAzMUg0NTIuOTJ6TTUwMi45NjYgODA0LjkzNmgyMi41OTZ2ODYuMDMxaC0yMi41OTZ6TTU1My4wMTMgODA0LjkzNmgyMi41OTF2ODYuMDMxaC0yMi41OTF6TTYwMy4wNTYgODA0LjkzNmgyMi41OTl2ODYuMDMxaC0yMi41OTl6TTY1My4xMDggODA0LjkzNmgyMi41OXY4Ni4wMzFoLTIyLjU5eiIvPjxwYXRoIGZpbGw9IiM2OTZGNkYiIGQ9Ik03ODkuNTA3IDMxOC4yMDhoODYuMDMydjIyLjU4OGgtODYuMDMyek03ODkuNTA3IDM2OC4yNTRoODYuMDMydjIyLjU4OGgtODYuMDMyek03ODkuNTA3IDQxOC4zaDg2LjAzMnYyMi41OTVoLTg2LjAzMnpNNzg5LjUwNyA0NjguMzU0aDg2LjAzMnYyMi41ODVoLTg2LjAzMnpNNzg5LjUwNyA1MTguMzk1aDg2LjAzMnYyMi41OWgtODYuMDMyek03ODkuNTA3IDU2OC40NDNoODYuMDMydjIyLjU5MmgtODYuMDMyek03ODkuNTA3IDYxOC40OWg4Ni4wMzJ2MjIuNTk0aC04Ni4wMzJ6TTc4OS41MDcgNjY4LjUzOWg4Ni4wMzJ2MjIuNTg4aC04Ni4wMzJ6Ii8+PHBhdGggZmlsbD0iIzY5NkY2RiIgZD0iTTEwMi45MzYgMzE4LjIwOGg4Ni4wM3YyMi41ODhoLTg2LjAzek0xMDIuOTM2IDM2OC4yNTRoODYuMDN2MjIuNTg4aC04Ni4wM3pNMTAyLjkzNiA0MTguM2g4Ni4wM3YyMi41OTVoLTg2LjAzek0xMDIuOTM2IDQ2OC4zNTRoODYuMDN2MjIuNTg1aC04Ni4wM3pNMTAyLjkzNiA1MTguMzk1aDg2LjAzdjIyLjU5aC04Ni4wM3pNMTAyLjkzNiA1NjguNDQzaDg2LjAzdjIyLjU5MmgtODYuMDN6TTEwMi45MzYgNjE4LjQ5aDg2LjAzdjIyLjU5NGgtODYuMDN6TTEwMi45MzYgNjY4LjUzOWg4Ni4wM3YyMi41ODhoLTg2LjAzeiIvPjxwYXRoIGZpbGw9IiMyMUE0RDQiIGQ9Ik0zMjEuNiA0NDIuNTcxaDg0LjQ1NnYyNi40OTlIMzIxLjZ6TTMyMS42IDU0MC4yNzVoODQuNDU2djI2LjQ5NkgzMjEuNnoiLz48cGF0aCBmaWxsPSIjMjFBNEQ0IiBkPSJNMzE5LjYyOSA0NDIuNTcxaDI2LjQ5NnYxMjQuMmgtMjYuNDk2eiIvPjxwYXRoIGZpbGw9IiMyMUE0RDQiIGQ9Ik01NjEuMTQ0IDQ0Mi4wMTdoMjYuNDk2djEyNS4zMDFoLTI2LjQ5NnpNNjMyLjM1IDQ0Mi4wMTdoMjYuNDk2djEyNS4zMDFINjMyLjM1eiIvPjxwYXRoIGZpbGw9IiMyMUE0RDQiIGQ9Ik01NjEuMTQ0IDU0MC44MjJoOTcuNzAydjI2LjQ5NmgtOTcuNzAyeiIvPjxwYXRoIGZpbGw9IiMyMUE0RDQiIGQ9Ik00MzQuODI5IDQ0Mi41NzFoODQuNDUydjI2LjQ5OWgtODQuNDUyek00MzQuODI5IDQ5OC4wNDRoOTcuNzAydjI2LjQ5M2gtOTcuNzAyeiIvPjxwYXRoIGZpbGw9IiMyMUE0RDQiIGQ9Ik00MzIuODYgNDQyLjU3MWgyNi40OTR2MTI0LjJINDMyLjg2ek01MTMuNDg4IDQ0Mi41NzFoMjYuNDk0djgxLjk2NmgtMjYuNDk0eiIvPjwvc3ZnPg==;fontFamily=Times New Roman;fontSize=14;" parent="HQ2Fdn0g2VNDSRRO2uoz-30" vertex="1">
          <mxGeometry x="45" y="80" width="55" height="55" as="geometry" />
        </mxCell>
      </root>
    </mxGraphModel>
  </diagram>
  <diagram id="KFZlIBoFtn3wdAz0wOPU" name="Page-2">
    <mxGraphModel dx="3238" dy="1827" grid="1" gridSize="10" guides="1" tooltips="1" connect="1" arrows="1" fold="1" page="1" pageScale="1" pageWidth="850" pageHeight="1100" math="0" shadow="0">
      <root>
        <mxCell id="0" />
        <mxCell id="1" parent="0" />
        <mxCell id="YHQYi0GGN_4N3aDJM2_8-32" style="edgeStyle=orthogonalEdgeStyle;rounded=0;sketch=1;hachureGap=4;jiggle=2;curveFitting=1;orthogonalLoop=1;jettySize=auto;html=1;exitX=1;exitY=0.5;exitDx=0;exitDy=0;exitPerimeter=0;entryX=0;entryY=0.5;entryDx=0;entryDy=0;fontFamily=Architects Daughter;fontSource=https%3A%2F%2Ffonts.googleapis.com%2Fcss%3Ffamily%3DArchitects%2BDaughter;fontSize=20;fontColor=#000000;" parent="1" source="yot9nRwMnbp4_gcoLz5g-3" target="YHQYi0GGN_4N3aDJM2_8-30" edge="1">
          <mxGeometry relative="1" as="geometry" />
        </mxCell>
        <mxCell id="yot9nRwMnbp4_gcoLz5g-3" value="" style="sketch=0;aspect=fixed;pointerEvents=1;shadow=0;dashed=0;html=1;strokeColor=none;labelPosition=center;verticalLabelPosition=bottom;verticalAlign=top;align=center;fillColor=#00188D;shape=mxgraph.mscae.general.video;hachureGap=4;jiggle=2;curveFitting=1;fontFamily=Architects Daughter;fontSource=https%3A%2F%2Ffonts.googleapis.com%2Fcss%3Ffamily%3DArchitects%2BDaughter;fontSize=20;" parent="1" vertex="1">
          <mxGeometry x="20" y="35" width="49" height="50" as="geometry" />
        </mxCell>
        <mxCell id="yot9nRwMnbp4_gcoLz5g-4" value="" style="shape=image;html=1;verticalAlign=top;verticalLabelPosition=bottom;labelBackgroundColor=#ffffff;imageAspect=0;aspect=fixed;image=https://cdn4.iconfinder.com/data/icons/48-bubbles/48/18.Pictures-Day-128.png;sketch=1;hachureGap=4;jiggle=2;curveFitting=1;fontFamily=Architects Daughter;fontSource=https%3A%2F%2Ffonts.googleapis.com%2Fcss%3Ffamily%3DArchitects%2BDaughter;fontSize=20;direction=east;" parent="1" vertex="1">
          <mxGeometry x="330" y="35" width="50" height="50" as="geometry" />
        </mxCell>
        <mxCell id="yot9nRwMnbp4_gcoLz5g-5" value="" style="shape=image;html=1;verticalAlign=top;verticalLabelPosition=bottom;labelBackgroundColor=#ffffff;imageAspect=0;aspect=fixed;image=https://cdn4.iconfinder.com/data/icons/48-bubbles/48/18.Pictures-Day-128.png;sketch=1;hachureGap=4;jiggle=2;curveFitting=1;fontFamily=Architects Daughter;fontSource=https%3A%2F%2Ffonts.googleapis.com%2Fcss%3Ffamily%3DArchitects%2BDaughter;fontSize=20;direction=east;" parent="1" vertex="1">
          <mxGeometry x="380" y="35" width="50" height="50" as="geometry" />
        </mxCell>
        <mxCell id="yot9nRwMnbp4_gcoLz5g-6" value="" style="shape=image;html=1;verticalAlign=top;verticalLabelPosition=bottom;labelBackgroundColor=#ffffff;imageAspect=0;aspect=fixed;image=https://cdn4.iconfinder.com/data/icons/48-bubbles/48/18.Pictures-Day-128.png;sketch=1;hachureGap=4;jiggle=2;curveFitting=1;fontFamily=Architects Daughter;fontSource=https%3A%2F%2Ffonts.googleapis.com%2Fcss%3Ffamily%3DArchitects%2BDaughter;fontSize=20;direction=east;" parent="1" vertex="1">
          <mxGeometry x="430" y="35" width="50" height="50" as="geometry" />
        </mxCell>
        <mxCell id="yot9nRwMnbp4_gcoLz5g-7" value="" style="shape=image;verticalLabelPosition=bottom;labelBackgroundColor=default;verticalAlign=top;aspect=fixed;imageAspect=0;image=data:image/svg+xml,PHN2ZyB4bWxuczp4bGluaz0iaHR0cDovL3d3dy53My5vcmcvMTk5OS94bGluayIgeG1sbnM9Imh0dHA6Ly93d3cudzMub3JnLzIwMDAvc3ZnIiBoZWlnaHQ9IjIwMCIgd2lkdGg9IjIwMCIgZGF0YS1zcG0tYW5jaG9yLWlkPSJhMzEzeC43NzgxMDY5LjAuaTQiIHZlcnNpb249IjEuMSIgdmlld0JveD0iMCAwIDEwMjQgMTAyNCIgY2xhc3M9Imljb24iPjxwYXRoIGZpbGw9IiM1QzVDNjYiIGQ9Ik01MTIgODEwLjY2NjY2N2E4NS4zMzMzMzMgODUuMzMzMzMzIDAgMSAxLTg1LjMzMzMzMyA4NS4zMzMzMzMgODUuMzMzMzMzIDg1LjMzMzMzMyAwIDAgMSA4NS4zMzMzMzMtODUuMzMzMzMzek00MjYuNjY2NjY3IDUxMmE4NS4zMzMzMzMgODUuMzMzMzMzIDAgMSAwIDg1LjMzMzMzMy04NS4zMzMzMzMgODUuMzMzMzMzIDg1LjMzMzMzMyAwIDAgMC04NS4zMzMzMzMgODUuMzMzMzMzeiBtMC0zODRBODUuMzMzMzMzIDg1LjMzMzMzMyAwIDEgMCA1MTIgNDIuNjY2NjY3YTg1LjMzMzMzMyA4NS4zMzMzMzMgMCAwIDAtODUuMzMzMzMzIDg1LjMzMzMzM3oiLz48L3N2Zz4=;direction=south;" parent="1" vertex="1">
          <mxGeometry x="480" y="45" width="30" height="30" as="geometry" />
        </mxCell>
        <mxCell id="yot9nRwMnbp4_gcoLz5g-8" value="" style="shape=image;verticalLabelPosition=bottom;labelBackgroundColor=default;verticalAlign=top;aspect=fixed;imageAspect=0;image=data:image/svg+xml,PHN2ZyB4bWxuczp4bGluaz0iaHR0cDovL3d3dy53My5vcmcvMTk5OS94bGluayIgeG1sbnM9Imh0dHA6Ly93d3cudzMub3JnLzIwMDAvc3ZnIiBoZWlnaHQ9IjIwMCIgd2lkdGg9IjIwMCIgZGF0YS1zcG0tYW5jaG9yLWlkPSJhMzEzeC43NzgxMDY5LjAuaTQiIHZlcnNpb249IjEuMSIgdmlld0JveD0iMCAwIDEwMjQgMTAyNCIgY2xhc3M9Imljb24iPjxwYXRoIGZpbGw9IiM1QzVDNjYiIGQ9Ik01MTIgODEwLjY2NjY2N2E4NS4zMzMzMzMgODUuMzMzMzMzIDAgMSAxLTg1LjMzMzMzMyA4NS4zMzMzMzMgODUuMzMzMzMzIDg1LjMzMzMzMyAwIDAgMSA4NS4zMzMzMzMtODUuMzMzMzMzek00MjYuNjY2NjY3IDUxMmE4NS4zMzMzMzMgODUuMzMzMzMzIDAgMSAwIDg1LjMzMzMzMy04NS4zMzMzMzMgODUuMzMzMzMzIDg1LjMzMzMzMyAwIDAgMC04NS4zMzMzMzMgODUuMzMzMzMzeiBtMC0zODRBODUuMzMzMzMzIDg1LjMzMzMzMyAwIDEgMCA1MTIgNDIuNjY2NjY3YTg1LjMzMzMzMyA4NS4zMzMzMzMgMCAwIDAtODUuMzMzMzMzIDg1LjMzMzMzM3oiLz48L3N2Zz4=;direction=south;" parent="1" vertex="1">
          <mxGeometry x="510" y="45" width="30" height="30" as="geometry" />
        </mxCell>
        <mxCell id="yot9nRwMnbp4_gcoLz5g-9" value="" style="edgeStyle=orthogonalEdgeStyle;rounded=0;sketch=1;hachureGap=4;jiggle=2;curveFitting=1;orthogonalLoop=1;jettySize=auto;html=1;fontFamily=Architects Daughter;fontSource=https%3A%2F%2Ffonts.googleapis.com%2Fcss%3Ffamily%3DArchitects%2BDaughter;fontSize=16;entryX=0;entryY=0.5;entryDx=0;entryDy=0;" parent="1" source="yot9nRwMnbp4_gcoLz5g-10" target="yot9nRwMnbp4_gcoLz5g-16" edge="1">
          <mxGeometry relative="1" as="geometry">
            <mxPoint x="639.9999999999998" y="60" as="targetPoint" />
          </mxGeometry>
        </mxCell>
        <mxCell id="yot9nRwMnbp4_gcoLz5g-10" value="" style="shape=image;html=1;verticalAlign=top;verticalLabelPosition=bottom;labelBackgroundColor=#ffffff;imageAspect=0;aspect=fixed;image=https://cdn4.iconfinder.com/data/icons/48-bubbles/48/18.Pictures-Day-128.png;sketch=1;hachureGap=4;jiggle=2;curveFitting=1;fontFamily=Architects Daughter;fontSource=https%3A%2F%2Ffonts.googleapis.com%2Fcss%3Ffamily%3DArchitects%2BDaughter;fontSize=20;direction=east;" parent="1" vertex="1">
          <mxGeometry x="540" y="35" width="50" height="50" as="geometry" />
        </mxCell>
        <mxCell id="yot9nRwMnbp4_gcoLz5g-11" style="edgeStyle=orthogonalEdgeStyle;rounded=0;sketch=1;hachureGap=4;jiggle=2;curveFitting=1;orthogonalLoop=1;jettySize=auto;html=1;exitX=0;exitY=0.5;exitDx=0;exitDy=0;entryX=1;entryY=0.5;entryDx=0;entryDy=0;fontFamily=Architects Daughter;fontSource=https%3A%2F%2Ffonts.googleapis.com%2Fcss%3Ffamily%3DArchitects%2BDaughter;fontSize=12;fontColor=#000000;" parent="1" source="yot9nRwMnbp4_gcoLz5g-12" target="yot9nRwMnbp4_gcoLz5g-14" edge="1">
          <mxGeometry relative="1" as="geometry" />
        </mxCell>
        <mxCell id="yot9nRwMnbp4_gcoLz5g-12" value="Denoise" style="rounded=1;whiteSpace=wrap;html=1;fontSize=20;fontFamily=Architects Daughter;verticalAlign=top;fillColor=none;labelBackgroundColor=none;sketch=1;hachureGap=4;jiggle=2;curveFitting=1;fontSource=https%3A%2F%2Ffonts.googleapis.com%2Fcss%3Ffamily%3DArchitects%2BDaughter;" parent="1" vertex="1">
          <mxGeometry x="630" y="185" width="120" height="40" as="geometry" />
        </mxCell>
        <mxCell id="yot9nRwMnbp4_gcoLz5g-22" style="edgeStyle=orthogonalEdgeStyle;rounded=0;sketch=1;hachureGap=4;jiggle=2;curveFitting=1;orthogonalLoop=1;jettySize=auto;html=1;exitX=0;exitY=0.5;exitDx=0;exitDy=0;entryX=1;entryY=0.5;entryDx=0;entryDy=0;fontFamily=Architects Daughter;fontSource=https%3A%2F%2Ffonts.googleapis.com%2Fcss%3Ffamily%3DArchitects%2BDaughter;fontSize=20;fontColor=#000000;" parent="1" source="yot9nRwMnbp4_gcoLz5g-14" target="yot9nRwMnbp4_gcoLz5g-21" edge="1">
          <mxGeometry relative="1" as="geometry" />
        </mxCell>
        <mxCell id="yot9nRwMnbp4_gcoLz5g-14" value="One-stage&lt;br&gt;Objection-detection" style="rounded=1;whiteSpace=wrap;html=1;fontSize=20;fontFamily=Architects Daughter;verticalAlign=top;fillColor=none;labelBackgroundColor=none;sketch=1;hachureGap=4;jiggle=2;curveFitting=1;fontSource=https%3A%2F%2Ffonts.googleapis.com%2Fcss%3Ffamily%3DArchitects%2BDaughter;" parent="1" vertex="1">
          <mxGeometry x="300" y="178.75" width="190" height="52.5" as="geometry" />
        </mxCell>
        <mxCell id="yot9nRwMnbp4_gcoLz5g-15" style="edgeStyle=orthogonalEdgeStyle;rounded=0;sketch=1;hachureGap=4;jiggle=2;curveFitting=1;orthogonalLoop=1;jettySize=auto;html=1;exitX=0.5;exitY=1;exitDx=0;exitDy=0;entryX=0.5;entryY=0;entryDx=0;entryDy=0;fontFamily=Architects Daughter;fontSource=https%3A%2F%2Ffonts.googleapis.com%2Fcss%3Ffamily%3DArchitects%2BDaughter;fontSize=16;fontColor=#000000;" parent="1" source="yot9nRwMnbp4_gcoLz5g-16" target="yot9nRwMnbp4_gcoLz5g-12" edge="1">
          <mxGeometry relative="1" as="geometry" />
        </mxCell>
        <mxCell id="yot9nRwMnbp4_gcoLz5g-16" value="White Balance" style="rounded=1;whiteSpace=wrap;html=1;fontSize=20;fontFamily=Architects Daughter;verticalAlign=top;fillColor=none;labelBackgroundColor=none;sketch=1;hachureGap=4;jiggle=2;curveFitting=1;fontSource=https%3A%2F%2Ffonts.googleapis.com%2Fcss%3Ffamily%3DArchitects%2BDaughter;" parent="1" vertex="1">
          <mxGeometry x="630" y="30" width="120" height="60" as="geometry" />
        </mxCell>
        <mxCell id="YHQYi0GGN_4N3aDJM2_8-12" style="edgeStyle=orthogonalEdgeStyle;rounded=0;sketch=1;hachureGap=4;jiggle=2;curveFitting=1;orthogonalLoop=1;jettySize=auto;html=1;fontFamily=Architects Daughter;fontSource=https%3A%2F%2Ffonts.googleapis.com%2Fcss%3Ffamily%3DArchitects%2BDaughter;fontSize=20;fontColor=#000000;entryX=0.5;entryY=0;entryDx=0;entryDy=0;" parent="1" source="yot9nRwMnbp4_gcoLz5g-17" target="YHQYi0GGN_4N3aDJM2_8-14" edge="1">
          <mxGeometry relative="1" as="geometry">
            <mxPoint x="200" y="600" as="targetPoint" />
          </mxGeometry>
        </mxCell>
        <mxCell id="YHQYi0GGN_4N3aDJM2_8-13" value="is car plate" style="edgeLabel;html=1;align=center;verticalAlign=middle;resizable=0;points=[];fontSize=20;fontFamily=Architects Daughter;fontColor=#000000;" parent="YHQYi0GGN_4N3aDJM2_8-12" vertex="1" connectable="0">
          <mxGeometry x="-0.25" y="-1" relative="1" as="geometry">
            <mxPoint as="offset" />
          </mxGeometry>
        </mxCell>
        <mxCell id="yot9nRwMnbp4_gcoLz5g-17" value="&lt;font style=&quot;font-size: 20px;&quot;&gt;Box Regression&lt;/font&gt;" style="ellipse;whiteSpace=wrap;html=1;labelBackgroundColor=none;sketch=1;hachureGap=4;jiggle=2;curveFitting=1;strokeColor=default;fontFamily=Architects Daughter;fontSource=https%3A%2F%2Ffonts.googleapis.com%2Fcss%3Ffamily%3DArchitects%2BDaughter;fontSize=12;fontColor=#000000;fillColor=none;" parent="1" vertex="1">
          <mxGeometry x="140" y="400" width="120" height="80" as="geometry" />
        </mxCell>
        <mxCell id="YHQYi0GGN_4N3aDJM2_8-7" style="edgeStyle=orthogonalEdgeStyle;rounded=0;sketch=1;hachureGap=4;jiggle=2;curveFitting=1;orthogonalLoop=1;jettySize=auto;html=1;exitX=1;exitY=0.5;exitDx=0;exitDy=0;entryX=0;entryY=0.5;entryDx=0;entryDy=0;fontFamily=Architects Daughter;fontSource=https%3A%2F%2Ffonts.googleapis.com%2Fcss%3Ffamily%3DArchitects%2BDaughter;fontSize=20;fontColor=#000000;" parent="1" source="yot9nRwMnbp4_gcoLz5g-18" target="YHQYi0GGN_4N3aDJM2_8-6" edge="1">
          <mxGeometry relative="1" as="geometry">
            <Array as="points">
              <mxPoint x="340" y="340" />
              <mxPoint x="340" y="340" />
            </Array>
          </mxGeometry>
        </mxCell>
        <mxCell id="YHQYi0GGN_4N3aDJM2_8-10" value="is vehicle" style="edgeLabel;html=1;align=center;verticalAlign=middle;resizable=0;points=[];fontSize=20;fontFamily=Architects Daughter;fontColor=#000000;" parent="YHQYi0GGN_4N3aDJM2_8-7" vertex="1" connectable="0">
          <mxGeometry x="-0.1007" relative="1" as="geometry">
            <mxPoint as="offset" />
          </mxGeometry>
        </mxCell>
        <mxCell id="yot9nRwMnbp4_gcoLz5g-18" value="&lt;span style=&quot;font-size: 20px;&quot;&gt;Classification&lt;/span&gt;" style="ellipse;whiteSpace=wrap;html=1;labelBackgroundColor=none;sketch=1;hachureGap=4;jiggle=2;curveFitting=1;strokeColor=default;fontFamily=Architects Daughter;fontSource=https%3A%2F%2Ffonts.googleapis.com%2Fcss%3Ffamily%3DArchitects%2BDaughter;fontSize=12;fontColor=#000000;fillColor=none;" parent="1" vertex="1">
          <mxGeometry x="140" y="300" width="120" height="80" as="geometry" />
        </mxCell>
        <mxCell id="6ngJjZd4D7xAnzUgId2g-2" style="edgeStyle=orthogonalEdgeStyle;rounded=0;sketch=1;hachureGap=4;jiggle=2;curveFitting=1;orthogonalLoop=1;jettySize=auto;html=1;entryX=0;entryY=0.5;entryDx=0;entryDy=0;fontFamily=Architects Daughter;fontSource=https%3A%2F%2Ffonts.googleapis.com%2Fcss%3Ffamily%3DArchitects%2BDaughter;fontSize=20;fontColor=#000000;" parent="1" source="yot9nRwMnbp4_gcoLz5g-21" target="yot9nRwMnbp4_gcoLz5g-18" edge="1">
          <mxGeometry relative="1" as="geometry" />
        </mxCell>
        <mxCell id="6ngJjZd4D7xAnzUgId2g-3" style="edgeStyle=orthogonalEdgeStyle;rounded=0;sketch=1;hachureGap=4;jiggle=2;curveFitting=1;orthogonalLoop=1;jettySize=auto;html=1;exitX=0.5;exitY=1;exitDx=0;exitDy=0;entryX=0;entryY=0.5;entryDx=0;entryDy=0;fontFamily=Architects Daughter;fontSource=https%3A%2F%2Ffonts.googleapis.com%2Fcss%3Ffamily%3DArchitects%2BDaughter;fontSize=20;fontColor=#000000;" parent="1" source="yot9nRwMnbp4_gcoLz5g-21" target="yot9nRwMnbp4_gcoLz5g-17" edge="1">
          <mxGeometry relative="1" as="geometry" />
        </mxCell>
        <mxCell id="yot9nRwMnbp4_gcoLz5g-21" value="Non-Maximum Suppression" style="rounded=1;whiteSpace=wrap;html=1;fontSize=20;fontFamily=Architects Daughter;verticalAlign=top;fillColor=none;labelBackgroundColor=none;sketch=1;hachureGap=4;jiggle=2;curveFitting=1;fontSource=https%3A%2F%2Ffonts.googleapis.com%2Fcss%3Ffamily%3DArchitects%2BDaughter;" parent="1" vertex="1">
          <mxGeometry x="50" y="177.5" width="140" height="55" as="geometry" />
        </mxCell>
        <mxCell id="YHQYi0GGN_4N3aDJM2_8-6" value="vehicle attributes&amp;nbsp;" style="rounded=1;whiteSpace=wrap;html=1;fontSize=20;fontFamily=Architects Daughter;verticalAlign=top;fillColor=none;labelBackgroundColor=none;sketch=1;hachureGap=4;jiggle=2;curveFitting=1;fontSource=https%3A%2F%2Ffonts.googleapis.com%2Fcss%3Ffamily%3DArchitects%2BDaughter;" parent="1" vertex="1">
          <mxGeometry x="410" y="320" width="220" height="40" as="geometry" />
        </mxCell>
        <mxCell id="YHQYi0GGN_4N3aDJM2_8-11" value="" style="shape=image;html=1;verticalAlign=top;verticalLabelPosition=bottom;labelBackgroundColor=#ffffff;imageAspect=0;aspect=fixed;image=https://cdn4.iconfinder.com/data/icons/48-bubbles/48/18.Pictures-Day-128.png;sketch=1;hachureGap=4;jiggle=2;curveFitting=1;fontFamily=Architects Daughter;fontSource=https%3A%2F%2Ffonts.googleapis.com%2Fcss%3Ffamily%3DArchitects%2BDaughter;fontSize=20;direction=east;" parent="1" vertex="1">
          <mxGeometry x="140" y="520" width="50" height="50" as="geometry" />
        </mxCell>
        <mxCell id="YHQYi0GGN_4N3aDJM2_8-18" style="edgeStyle=orthogonalEdgeStyle;rounded=0;sketch=1;hachureGap=4;jiggle=2;curveFitting=1;orthogonalLoop=1;jettySize=auto;html=1;exitX=1;exitY=0.5;exitDx=0;exitDy=0;fontFamily=Architects Daughter;fontSource=https%3A%2F%2Ffonts.googleapis.com%2Fcss%3Ffamily%3DArchitects%2BDaughter;fontSize=20;fontColor=#000000;" parent="1" source="YHQYi0GGN_4N3aDJM2_8-14" target="YHQYi0GGN_4N3aDJM2_8-15" edge="1">
          <mxGeometry relative="1" as="geometry" />
        </mxCell>
        <mxCell id="YHQYi0GGN_4N3aDJM2_8-14" value="Crop" style="rounded=1;whiteSpace=wrap;html=1;fontSize=20;fontFamily=Architects Daughter;verticalAlign=top;fillColor=none;labelBackgroundColor=none;sketch=1;hachureGap=4;jiggle=2;curveFitting=1;fontSource=https%3A%2F%2Ffonts.googleapis.com%2Fcss%3Ffamily%3DArchitects%2BDaughter;" parent="1" vertex="1">
          <mxGeometry x="140" y="570" width="120" height="40" as="geometry" />
        </mxCell>
        <mxCell id="YHQYi0GGN_4N3aDJM2_8-19" style="edgeStyle=orthogonalEdgeStyle;rounded=0;sketch=1;hachureGap=4;jiggle=2;curveFitting=1;orthogonalLoop=1;jettySize=auto;html=1;exitX=1;exitY=0.5;exitDx=0;exitDy=0;fontFamily=Architects Daughter;fontSource=https%3A%2F%2Ffonts.googleapis.com%2Fcss%3Ffamily%3DArchitects%2BDaughter;fontSize=20;fontColor=#000000;" parent="1" source="YHQYi0GGN_4N3aDJM2_8-15" target="YHQYi0GGN_4N3aDJM2_8-17" edge="1">
          <mxGeometry relative="1" as="geometry" />
        </mxCell>
        <mxCell id="YHQYi0GGN_4N3aDJM2_8-15" value="Affine_Transform" style="rounded=1;whiteSpace=wrap;html=1;fontSize=20;fontFamily=Architects Daughter;verticalAlign=top;fillColor=none;labelBackgroundColor=none;sketch=1;hachureGap=4;jiggle=2;curveFitting=1;fontSource=https%3A%2F%2Ffonts.googleapis.com%2Fcss%3Ffamily%3DArchitects%2BDaughter;" parent="1" vertex="1">
          <mxGeometry x="310" y="570" width="190" height="40" as="geometry" />
        </mxCell>
        <mxCell id="YHQYi0GGN_4N3aDJM2_8-22" style="edgeStyle=orthogonalEdgeStyle;rounded=0;sketch=1;hachureGap=4;jiggle=2;curveFitting=1;orthogonalLoop=1;jettySize=auto;html=1;exitX=1;exitY=0.5;exitDx=0;exitDy=0;entryX=1;entryY=0.5;entryDx=0;entryDy=0;fontFamily=Architects Daughter;fontSource=https%3A%2F%2Ffonts.googleapis.com%2Fcss%3Ffamily%3DArchitects%2BDaughter;fontSize=20;fontColor=#000000;" parent="1" source="YHQYi0GGN_4N3aDJM2_8-17" target="YHQYi0GGN_4N3aDJM2_8-21" edge="1">
          <mxGeometry relative="1" as="geometry" />
        </mxCell>
        <mxCell id="YHQYi0GGN_4N3aDJM2_8-17" value="Char&amp;nbsp;split" style="rounded=1;whiteSpace=wrap;html=1;fontSize=20;fontFamily=Architects Daughter;verticalAlign=top;fillColor=none;labelBackgroundColor=none;sketch=1;hachureGap=4;jiggle=2;curveFitting=1;fontSource=https%3A%2F%2Ffonts.googleapis.com%2Fcss%3Ffamily%3DArchitects%2BDaughter;" parent="1" vertex="1">
          <mxGeometry x="550" y="570" width="120" height="40" as="geometry" />
        </mxCell>
        <mxCell id="YHQYi0GGN_4N3aDJM2_8-25" style="edgeStyle=orthogonalEdgeStyle;rounded=0;sketch=1;hachureGap=4;jiggle=2;curveFitting=1;orthogonalLoop=1;jettySize=auto;html=1;exitX=0;exitY=0.5;exitDx=0;exitDy=0;entryX=1;entryY=0.5;entryDx=0;entryDy=0;fontFamily=Architects Daughter;fontSource=https%3A%2F%2Ffonts.googleapis.com%2Fcss%3Ffamily%3DArchitects%2BDaughter;fontSize=20;fontColor=#000000;" parent="1" source="YHQYi0GGN_4N3aDJM2_8-21" target="YHQYi0GGN_4N3aDJM2_8-23" edge="1">
          <mxGeometry relative="1" as="geometry" />
        </mxCell>
        <mxCell id="YHQYi0GGN_4N3aDJM2_8-21" value="classification" style="rounded=1;whiteSpace=wrap;html=1;fontSize=20;fontFamily=Architects Daughter;verticalAlign=top;fillColor=none;labelBackgroundColor=none;sketch=1;hachureGap=4;jiggle=2;curveFitting=1;fontSource=https%3A%2F%2Ffonts.googleapis.com%2Fcss%3Ffamily%3DArchitects%2BDaughter;" parent="1" vertex="1">
          <mxGeometry x="490" y="690" width="180" height="40" as="geometry" />
        </mxCell>
        <mxCell id="YHQYi0GGN_4N3aDJM2_8-28" style="edgeStyle=orthogonalEdgeStyle;rounded=0;sketch=1;hachureGap=4;jiggle=2;curveFitting=1;orthogonalLoop=1;jettySize=auto;html=1;exitX=0;exitY=0.5;exitDx=0;exitDy=0;entryX=1;entryY=0.5;entryDx=0;entryDy=0;fontFamily=Architects Daughter;fontSource=https%3A%2F%2Ffonts.googleapis.com%2Fcss%3Ffamily%3DArchitects%2BDaughter;fontSize=20;fontColor=#000000;" parent="1" source="YHQYi0GGN_4N3aDJM2_8-23" target="YHQYi0GGN_4N3aDJM2_8-26" edge="1">
          <mxGeometry relative="1" as="geometry" />
        </mxCell>
        <mxCell id="YHQYi0GGN_4N3aDJM2_8-23" value="char&lt;br&gt;Aggregate" style="rounded=1;whiteSpace=wrap;html=1;fontSize=20;fontFamily=Architects Daughter;verticalAlign=top;fillColor=none;labelBackgroundColor=none;sketch=1;hachureGap=4;jiggle=2;curveFitting=1;fontSource=https%3A%2F%2Ffonts.googleapis.com%2Fcss%3Ffamily%3DArchitects%2BDaughter;" parent="1" vertex="1">
          <mxGeometry x="310" y="680" width="120" height="60" as="geometry" />
        </mxCell>
        <mxCell id="YHQYi0GGN_4N3aDJM2_8-26" value="license plate number" style="rounded=1;whiteSpace=wrap;html=1;fontSize=20;fontFamily=Architects Daughter;verticalAlign=top;fillColor=none;labelBackgroundColor=none;sketch=1;hachureGap=4;jiggle=2;curveFitting=1;fontSource=https%3A%2F%2Ffonts.googleapis.com%2Fcss%3Ffamily%3DArchitects%2BDaughter;" parent="1" vertex="1">
          <mxGeometry x="30" y="690" width="220" height="40" as="geometry" />
        </mxCell>
        <mxCell id="YHQYi0GGN_4N3aDJM2_8-29" value="" style="swimlane;labelBackgroundColor=none;sketch=1;hachureGap=4;jiggle=2;curveFitting=1;strokeColor=default;fontFamily=Architects Daughter;fontSource=https%3A%2F%2Ffonts.googleapis.com%2Fcss%3Ffamily%3DArchitects%2BDaughter;fontSize=20;fontColor=#000000;fillColor=none;startSize=23;" parent="1" vertex="1">
          <mxGeometry x="40" y="770" width="280" height="300" as="geometry" />
        </mxCell>
        <mxCell id="YHQYi0GGN_4N3aDJM2_8-36" value="decode" style="rounded=1;whiteSpace=wrap;html=1;fontSize=20;fontFamily=Architects Daughter;verticalAlign=top;fillColor=none;labelBackgroundColor=none;sketch=1;hachureGap=4;jiggle=2;curveFitting=1;fontSource=https%3A%2F%2Ffonts.googleapis.com%2Fcss%3Ffamily%3DArchitects%2BDaughter;" parent="YHQYi0GGN_4N3aDJM2_8-29" vertex="1">
          <mxGeometry x="9" y="30" width="100" height="50" as="geometry" />
        </mxCell>
        <mxCell id="YHQYi0GGN_4N3aDJM2_8-37" value="ffmpeg" style="rounded=1;whiteSpace=wrap;html=1;fontSize=20;fontFamily=Architects Daughter;verticalAlign=top;fillColor=none;labelBackgroundColor=none;sketch=1;hachureGap=4;jiggle=2;curveFitting=1;fontSource=https%3A%2F%2Ffonts.googleapis.com%2Fcss%3Ffamily%3DArchitects%2BDaughter;" parent="YHQYi0GGN_4N3aDJM2_8-29" vertex="1">
          <mxGeometry x="10" y="90" width="100" height="50" as="geometry" />
        </mxCell>
        <mxCell id="YHQYi0GGN_4N3aDJM2_8-38" value="White Balance" style="rounded=1;whiteSpace=wrap;html=1;fontSize=20;fontFamily=Architects Daughter;verticalAlign=top;fillColor=none;labelBackgroundColor=none;sketch=1;hachureGap=4;jiggle=2;curveFitting=1;fontSource=https%3A%2F%2Ffonts.googleapis.com%2Fcss%3Ffamily%3DArchitects%2BDaughter;" parent="YHQYi0GGN_4N3aDJM2_8-29" vertex="1">
          <mxGeometry x="9" y="150" width="120" height="60" as="geometry" />
        </mxCell>
        <mxCell id="YHQYi0GGN_4N3aDJM2_8-39" value="Denoise" style="rounded=1;whiteSpace=wrap;html=1;fontSize=20;fontFamily=Architects Daughter;verticalAlign=top;fillColor=none;labelBackgroundColor=none;sketch=1;hachureGap=4;jiggle=2;curveFitting=1;fontSource=https%3A%2F%2Ffonts.googleapis.com%2Fcss%3Ffamily%3DArchitects%2BDaughter;arcSize=6;" parent="YHQYi0GGN_4N3aDJM2_8-29" vertex="1">
          <mxGeometry x="150" y="30" width="120" height="40" as="geometry" />
        </mxCell>
        <mxCell id="YHQYi0GGN_4N3aDJM2_8-40" value="Affine_Transform" style="rounded=1;whiteSpace=wrap;html=1;fontSize=20;fontFamily=Architects Daughter;verticalAlign=top;fillColor=none;labelBackgroundColor=none;sketch=1;hachureGap=4;jiggle=2;curveFitting=1;fontSource=https%3A%2F%2Ffonts.googleapis.com%2Fcss%3Ffamily%3DArchitects%2BDaughter;" parent="YHQYi0GGN_4N3aDJM2_8-29" vertex="1">
          <mxGeometry x="10" y="220" width="190" height="40" as="geometry" />
        </mxCell>
        <mxCell id="YHQYi0GGN_4N3aDJM2_8-41" value="Crop" style="rounded=1;whiteSpace=wrap;html=1;fontSize=20;fontFamily=Architects Daughter;verticalAlign=top;fillColor=none;labelBackgroundColor=none;sketch=1;hachureGap=4;jiggle=2;curveFitting=1;fontSource=https%3A%2F%2Ffonts.googleapis.com%2Fcss%3Ffamily%3DArchitects%2BDaughter;" parent="YHQYi0GGN_4N3aDJM2_8-29" vertex="1">
          <mxGeometry x="150" y="80" width="120" height="40" as="geometry" />
        </mxCell>
        <mxCell id="YHQYi0GGN_4N3aDJM2_8-42" value="Char&amp;nbsp;split" style="rounded=1;whiteSpace=wrap;html=1;fontSize=20;fontFamily=Architects Daughter;verticalAlign=top;fillColor=none;labelBackgroundColor=none;sketch=1;hachureGap=4;jiggle=2;curveFitting=1;fontSource=https%3A%2F%2Ffonts.googleapis.com%2Fcss%3Ffamily%3DArchitects%2BDaughter;" parent="YHQYi0GGN_4N3aDJM2_8-29" vertex="1">
          <mxGeometry x="150" y="130" width="120" height="40" as="geometry" />
        </mxCell>
        <mxCell id="YHQYi0GGN_4N3aDJM2_8-33" style="edgeStyle=orthogonalEdgeStyle;rounded=0;sketch=1;hachureGap=4;jiggle=2;curveFitting=1;orthogonalLoop=1;jettySize=auto;html=1;exitX=1;exitY=0.5;exitDx=0;exitDy=0;entryX=0;entryY=0.5;entryDx=0;entryDy=0;fontFamily=Architects Daughter;fontSource=https%3A%2F%2Ffonts.googleapis.com%2Fcss%3Ffamily%3DArchitects%2BDaughter;fontSize=20;fontColor=#000000;" parent="1" source="YHQYi0GGN_4N3aDJM2_8-30" target="YHQYi0GGN_4N3aDJM2_8-31" edge="1">
          <mxGeometry relative="1" as="geometry" />
        </mxCell>
        <mxCell id="YHQYi0GGN_4N3aDJM2_8-30" value="decode" style="rounded=1;whiteSpace=wrap;html=1;fontSize=20;fontFamily=Architects Daughter;verticalAlign=top;fillColor=none;labelBackgroundColor=none;sketch=1;hachureGap=4;jiggle=2;curveFitting=1;fontSource=https%3A%2F%2Ffonts.googleapis.com%2Fcss%3Ffamily%3DArchitects%2BDaughter;" parent="1" vertex="1">
          <mxGeometry x="90" y="35" width="100" height="50" as="geometry" />
        </mxCell>
        <mxCell id="YHQYi0GGN_4N3aDJM2_8-35" style="edgeStyle=orthogonalEdgeStyle;rounded=0;sketch=1;hachureGap=4;jiggle=2;curveFitting=1;orthogonalLoop=1;jettySize=auto;html=1;exitX=1;exitY=0.5;exitDx=0;exitDy=0;fontFamily=Architects Daughter;fontSource=https%3A%2F%2Ffonts.googleapis.com%2Fcss%3Ffamily%3DArchitects%2BDaughter;fontSize=20;fontColor=#000000;" parent="1" source="YHQYi0GGN_4N3aDJM2_8-31" target="yot9nRwMnbp4_gcoLz5g-4" edge="1">
          <mxGeometry relative="1" as="geometry" />
        </mxCell>
        <mxCell id="YHQYi0GGN_4N3aDJM2_8-31" value="ffmpeg" style="rounded=1;whiteSpace=wrap;html=1;fontSize=20;fontFamily=Architects Daughter;verticalAlign=top;fillColor=none;labelBackgroundColor=none;sketch=1;hachureGap=4;jiggle=2;curveFitting=1;fontSource=https%3A%2F%2Ffonts.googleapis.com%2Fcss%3Ffamily%3DArchitects%2BDaughter;" parent="1" vertex="1">
          <mxGeometry x="210" y="35" width="100" height="50" as="geometry" />
        </mxCell>
        <mxCell id="YHQYi0GGN_4N3aDJM2_8-51" value="Container" style="swimlane;labelBackgroundColor=none;sketch=1;hachureGap=4;jiggle=2;curveFitting=1;strokeColor=default;fontFamily=Architects Daughter;fontSource=https%3A%2F%2Ffonts.googleapis.com%2Fcss%3Ffamily%3DArchitects%2BDaughter;fontSize=20;fontColor=#000000;fillColor=none;" parent="1" vertex="1">
          <mxGeometry x="410" y="785" width="160" height="225" as="geometry" />
        </mxCell>
        <mxCell id="YHQYi0GGN_4N3aDJM2_8-52" value="char&lt;br&gt;Aggregate" style="rounded=1;whiteSpace=wrap;html=1;fontSize=20;fontFamily=Architects Daughter;verticalAlign=top;fillColor=none;labelBackgroundColor=none;sketch=1;hachureGap=4;jiggle=2;curveFitting=1;fontSource=https%3A%2F%2Ffonts.googleapis.com%2Fcss%3Ffamily%3DArchitects%2BDaughter;" parent="YHQYi0GGN_4N3aDJM2_8-51" vertex="1">
          <mxGeometry x="10" y="35" width="120" height="60" as="geometry" />
        </mxCell>
        <mxCell id="YHQYi0GGN_4N3aDJM2_8-53" value="Non-Maximum Suppression" style="rounded=1;whiteSpace=wrap;html=1;fontSize=20;fontFamily=Architects Daughter;verticalAlign=top;fillColor=none;labelBackgroundColor=none;sketch=1;hachureGap=4;jiggle=2;curveFitting=1;fontSource=https%3A%2F%2Ffonts.googleapis.com%2Fcss%3Ffamily%3DArchitects%2BDaughter;" parent="YHQYi0GGN_4N3aDJM2_8-51" vertex="1">
          <mxGeometry x="10" y="107.5" width="140" height="55" as="geometry" />
        </mxCell>
        <mxCell id="YHQYi0GGN_4N3aDJM2_8-54" value="Container" style="swimlane;labelBackgroundColor=none;sketch=1;hachureGap=4;jiggle=2;curveFitting=1;strokeColor=default;fontFamily=Architects Daughter;fontSource=https%3A%2F%2Ffonts.googleapis.com%2Fcss%3Ffamily%3DArchitects%2BDaughter;fontSize=20;fontColor=#000000;fillColor=none;" parent="1" vertex="1">
          <mxGeometry x="610" y="785" width="200" height="225" as="geometry" />
        </mxCell>
        <mxCell id="YHQYi0GGN_4N3aDJM2_8-57" value="One-stage&lt;br&gt;Objection-detection" style="rounded=1;whiteSpace=wrap;html=1;fontSize=20;fontFamily=Architects Daughter;verticalAlign=top;fillColor=none;labelBackgroundColor=none;sketch=1;hachureGap=4;jiggle=2;curveFitting=1;fontSource=https%3A%2F%2Ffonts.googleapis.com%2Fcss%3Ffamily%3DArchitects%2BDaughter;" parent="YHQYi0GGN_4N3aDJM2_8-54" vertex="1">
          <mxGeometry x="5" y="35" width="190" height="52.5" as="geometry" />
        </mxCell>
        <mxCell id="YHQYi0GGN_4N3aDJM2_8-58" value="classification" style="rounded=1;whiteSpace=wrap;html=1;fontSize=20;fontFamily=Architects Daughter;verticalAlign=top;fillColor=none;labelBackgroundColor=none;sketch=1;hachureGap=4;jiggle=2;curveFitting=1;fontSource=https%3A%2F%2Ffonts.googleapis.com%2Fcss%3Ffamily%3DArchitects%2BDaughter;" parent="YHQYi0GGN_4N3aDJM2_8-54" vertex="1">
          <mxGeometry x="5" y="95" width="180" height="40" as="geometry" />
        </mxCell>
        <mxCell id="YHQYi0GGN_4N3aDJM2_8-60" value="" style="shape=image;html=1;verticalAlign=top;verticalLabelPosition=bottom;labelBackgroundColor=#ffffff;imageAspect=0;aspect=fixed;image=https://cdn4.iconfinder.com/data/icons/48-bubbles/48/18.Pictures-Day-128.png;sketch=1;hachureGap=4;jiggle=2;curveFitting=1;fontFamily=Architects Daughter;fontSource=https%3A%2F%2Ffonts.googleapis.com%2Fcss%3Ffamily%3DArchitects%2BDaughter;fontSize=20;direction=east;" parent="1" vertex="1">
          <mxGeometry x="890" y="60" width="50" height="50" as="geometry" />
        </mxCell>
        <mxCell id="YHQYi0GGN_4N3aDJM2_8-71" value="Network IO" style="rounded=1;whiteSpace=wrap;html=1;fontSize=20;fontFamily=Architects Daughter;verticalAlign=top;fillColor=none;labelBackgroundColor=none;sketch=1;hachureGap=4;jiggle=2;curveFitting=1;fontSource=https%3A%2F%2Ffonts.googleapis.com%2Fcss%3Ffamily%3DArchitects%2BDaughter;" parent="1" vertex="1">
          <mxGeometry x="1045" y="70" width="160" height="30" as="geometry" />
        </mxCell>
        <mxCell id="YHQYi0GGN_4N3aDJM2_8-72" value="White Balance" style="rounded=1;whiteSpace=wrap;html=1;fontSize=20;fontFamily=Architects Daughter;verticalAlign=top;fillColor=none;labelBackgroundColor=none;sketch=1;hachureGap=4;jiggle=2;curveFitting=1;fontSource=https%3A%2F%2Ffonts.googleapis.com%2Fcss%3Ffamily%3DArchitects%2BDaughter;" parent="1" vertex="1">
          <mxGeometry x="890" y="150" width="160" height="30" as="geometry" />
        </mxCell>
        <mxCell id="YHQYi0GGN_4N3aDJM2_8-73" value="Denoise" style="rounded=1;whiteSpace=wrap;html=1;fontSize=20;fontFamily=Architects Daughter;verticalAlign=top;fillColor=none;labelBackgroundColor=none;sketch=1;hachureGap=4;jiggle=2;curveFitting=1;fontSource=https%3A%2F%2Ffonts.googleapis.com%2Fcss%3Ffamily%3DArchitects%2BDaughter;" parent="1" vertex="1">
          <mxGeometry x="1060" y="150" width="130" height="30" as="geometry" />
        </mxCell>
        <mxCell id="YHQYi0GGN_4N3aDJM2_8-75" value="One-stage&lt;br&gt;Objection-detection" style="rounded=1;whiteSpace=wrap;html=1;fontSize=20;fontFamily=Architects Daughter;verticalAlign=top;fillColor=none;labelBackgroundColor=none;sketch=1;hachureGap=4;jiggle=2;curveFitting=1;fontSource=https%3A%2F%2Ffonts.googleapis.com%2Fcss%3Ffamily%3DArchitects%2BDaughter;" parent="1" vertex="1">
          <mxGeometry x="890" y="227.5" width="190" height="52.5" as="geometry" />
        </mxCell>
        <mxCell id="YHQYi0GGN_4N3aDJM2_8-76" value="Non-Maximum Suppression" style="rounded=1;whiteSpace=wrap;html=1;fontSize=20;fontFamily=Architects Daughter;verticalAlign=top;fillColor=none;labelBackgroundColor=none;sketch=1;hachureGap=4;jiggle=2;curveFitting=1;fontSource=https%3A%2F%2Ffonts.googleapis.com%2Fcss%3Ffamily%3DArchitects%2BDaughter;" parent="1" vertex="1">
          <mxGeometry x="890" y="325" width="140" height="55" as="geometry" />
        </mxCell>
        <mxCell id="YHQYi0GGN_4N3aDJM2_8-77" value="vehicle attributes&amp;nbsp;" style="rounded=1;whiteSpace=wrap;html=1;fontSize=20;fontFamily=Architects Daughter;verticalAlign=top;fillColor=none;labelBackgroundColor=none;sketch=1;hachureGap=4;jiggle=2;curveFitting=1;fontSource=https%3A%2F%2Ffonts.googleapis.com%2Fcss%3Ffamily%3DArchitects%2BDaughter;" parent="1" vertex="1">
          <mxGeometry x="1050" y="332.5" width="220" height="40" as="geometry" />
        </mxCell>
        <mxCell id="YHQYi0GGN_4N3aDJM2_8-78" value="Crop" style="rounded=1;whiteSpace=wrap;html=1;fontSize=20;fontFamily=Architects Daughter;verticalAlign=top;fillColor=none;labelBackgroundColor=none;sketch=1;hachureGap=4;jiggle=2;curveFitting=1;fontSource=https%3A%2F%2Ffonts.googleapis.com%2Fcss%3Ffamily%3DArchitects%2BDaughter;" parent="1" vertex="1">
          <mxGeometry x="890" y="420" width="120" height="40" as="geometry" />
        </mxCell>
        <mxCell id="YHQYi0GGN_4N3aDJM2_8-79" value="Affine_Transform" style="rounded=1;whiteSpace=wrap;html=1;fontSize=20;fontFamily=Architects Daughter;verticalAlign=top;fillColor=none;labelBackgroundColor=none;sketch=1;hachureGap=4;jiggle=2;curveFitting=1;fontSource=https%3A%2F%2Ffonts.googleapis.com%2Fcss%3Ffamily%3DArchitects%2BDaughter;" parent="1" vertex="1">
          <mxGeometry x="1030" y="420" width="190" height="40" as="geometry" />
        </mxCell>
        <mxCell id="YHQYi0GGN_4N3aDJM2_8-80" value="Char&amp;nbsp;split" style="rounded=1;whiteSpace=wrap;html=1;fontSize=20;fontFamily=Architects Daughter;verticalAlign=top;fillColor=none;labelBackgroundColor=none;sketch=1;hachureGap=4;jiggle=2;curveFitting=1;fontSource=https%3A%2F%2Ffonts.googleapis.com%2Fcss%3Ffamily%3DArchitects%2BDaughter;" parent="1" vertex="1">
          <mxGeometry x="1240" y="420" width="120" height="40" as="geometry" />
        </mxCell>
        <mxCell id="YHQYi0GGN_4N3aDJM2_8-81" value="classification" style="rounded=1;whiteSpace=wrap;html=1;fontSize=20;fontFamily=Architects Daughter;verticalAlign=top;fillColor=none;labelBackgroundColor=none;sketch=1;hachureGap=4;jiggle=2;curveFitting=1;fontSource=https%3A%2F%2Ffonts.googleapis.com%2Fcss%3Ffamily%3DArchitects%2BDaughter;" parent="1" vertex="1">
          <mxGeometry x="890" y="500" width="180" height="40" as="geometry" />
        </mxCell>
        <mxCell id="YHQYi0GGN_4N3aDJM2_8-82" value="char&lt;br&gt;Aggregate" style="rounded=1;whiteSpace=wrap;html=1;fontSize=20;fontFamily=Architects Daughter;verticalAlign=top;fillColor=none;labelBackgroundColor=none;sketch=1;hachureGap=4;jiggle=2;curveFitting=1;fontSource=https%3A%2F%2Ffonts.googleapis.com%2Fcss%3Ffamily%3DArchitects%2BDaughter;" parent="1" vertex="1">
          <mxGeometry x="890" y="580" width="140" height="60" as="geometry" />
        </mxCell>
        <mxCell id="YHQYi0GGN_4N3aDJM2_8-83" value="Network IO" style="rounded=1;whiteSpace=wrap;html=1;fontSize=20;fontFamily=Architects Daughter;verticalAlign=top;fillColor=none;labelBackgroundColor=none;sketch=1;hachureGap=4;jiggle=2;curveFitting=1;fontSource=https%3A%2F%2Ffonts.googleapis.com%2Fcss%3Ffamily%3DArchitects%2BDaughter;" parent="1" vertex="1">
          <mxGeometry x="1140" y="595" width="160" height="30" as="geometry" />
        </mxCell>
      </root>
    </mxGraphModel>
  </diagram>
  <diagram id="8R0QhMqHhJllJl8TBjVF" name="Page-3">
    <mxGraphModel dx="2631" dy="1005" grid="1" gridSize="10" guides="1" tooltips="1" connect="1" arrows="1" fold="1" page="1" pageScale="1" pageWidth="850" pageHeight="1100" math="0" shadow="0">
      <root>
        <mxCell id="0" />
        <mxCell id="1" parent="0" />
        <mxCell id="CC2tJVd6ZYIFMn7QWzai-7" style="edgeStyle=orthogonalEdgeStyle;rounded=0;orthogonalLoop=1;jettySize=auto;html=1;fontFamily=Times New Roman;fontSize=14;" parent="1" source="nNQXx-ZQJlEM0W2rjv_R-3" target="1w-lBArUNMY6uGgX4F4p-1" edge="1">
          <mxGeometry relative="1" as="geometry" />
        </mxCell>
        <mxCell id="nNQXx-ZQJlEM0W2rjv_R-3" value="" style="shape=image;verticalLabelPosition=bottom;labelBackgroundColor=default;verticalAlign=top;aspect=fixed;imageAspect=0;image=data:image/svg+xml,PHN2ZyB4bWxuczp4bGluaz0iaHR0cDovL3d3dy53My5vcmcvMTk5OS94bGluayIgeG1sbnM9Imh0dHA6Ly93d3cudzMub3JnLzIwMDAvc3ZnIiBoZWlnaHQ9IjIwMCIgd2lkdGg9IjIwMCIgdmVyc2lvbj0iMS4xIiB2aWV3Qm94PSIwIDAgMTAyNCAxMDI0IiBjbGFzcz0iaWNvbiI+PHBhdGggZmlsbD0iIzMwM0M0MiIgZD0iTTcyNy4yIDEwMjBIMjk2LjhjLTQuOCAwLTkuNi0yLjQtMTIuOC02LjQtMy4yLTQtNC04LjgtMi40LTEzLjZsMTgwLTY3OS4yYzEuNi03LjIgOC0xMiAxNS4yLTEyaDY5LjZjNy4yIDAgMTMuNiA0LjggMTUuMiAxMkw3NDIuNCAxMDAwYzEuNiA0LjggMCA5LjYtMi40IDEzLjYtMy4yIDQtOCA2LjQtMTIuOCA2LjR6IG0tNDA5LjYtMzJoMzg4LjhMNTM0LjQgMzQwLjhoLTQ0LjhsLTE3MiA2NDcuMnoiLz48cGF0aCBmaWxsPSIjMzAzQzQyIiBkPSJNMjk2LjggMTAxMmMtMy4yIDAtNS42LTEuNi03LjItNC0yLjQtNC0wLjgtOC44IDMuMi0xMS4ybDM2MS42LTE5MS4yLTI3Ni44LTExMmMtMy4yLTAuOC00LjgtNC00LjgtNy4yczEuNi01LjYgNC03LjJsMjEwLjQtMTIzLjItMTUzLjYtNzIuOGMtMi40LTAuOC00LTMuMi00LjgtNi40IDAtMi40IDAuOC01LjYgMi40LTcuMkw1NTIgMzYxLjZjMy4yLTMuMiA4LTIuNCAxMS4yIDAuOCAzLjIgMy4yIDIuNCA4LTAuOCAxMS4ybC0xMTIgMTAwTDYwOCA1NDhjMi40IDEuNiA0LjggNCA0LjggNy4ycy0xLjYgNS42LTQgNy4yTDM5OS4yIDY4NC44bDI3Ny42IDExMi44YzMuMiAwLjggNC44IDQgNC44IDcuMnMtMS42IDYuNC00IDcuMmwtMzc2LjggMTk5LjJjLTEuNiAwLjgtMi40IDAuOC00IDAuOHpNNTEyIDI2NS42Yy01MC40IDAtOTEuMi00MC44LTkxLjItOTEuMiAwLTUwLjQgNDAuOC05MS4yIDkxLjItOTEuMnM5MS4yIDQwLjggOTEuMiA5MS4yYzAgNTAuNC00MC44IDkxLjItOTEuMiA5MS4yeiBtMC0xNTAuNGMtMzIuOCAwLTU5LjIgMjYuNC01OS4yIDU5LjJzMjYuNCA1OS4yIDU5LjIgNTkuMiA1OS4yLTI2LjQgNTkuMi01OS4yLTI2LjQtNTkuMi01OS4yLTU5LjJ6TTIzNi44IDM0NC44Yy00IDAtOC0xLjYtMTEuMi00LjgtOTEuMi05MS4yLTkxLjItMjQwIDAtMzMxLjIgNi40LTYuNCAxNi02LjQgMjIuNCAwIDYuNCA2LjQgNi40IDE2IDAgMjIuNC03OS4yIDc5LjItNzkuMiAyMDcuMiAwIDI4NS42IDYuNCA2LjQgNi40IDE2IDAgMjIuNC0yLjQgNC03LjIgNS42LTExLjIgNS42eiIvPjxwYXRoIGZpbGw9IiMzMDNDNDIiIGQ9Ik0yOTguNCAyOTMuNmMtNCAwLTgtMS42LTExLjItNC44LTMwLjQtMzAuNC00Ny4yLTcxLjItNDcuMi0xMTUuMiAwLTQzLjIgMTYuOC04NCA0Ny4yLTExNS4yIDYuNC02LjQgMTYtNi40IDIyLjQgMCA2LjQgNi40IDYuNCAxNiAwIDIyLjQtMjQuOCAyNC44LTM4LjQgNTcuNi0zOC40IDkyIDAgMzUuMiAxMy42IDY4IDM4LjQgOTIgNi40IDYuNCA2LjQgMTYgMCAyMi40LTIuNCA0LjgtNy4yIDYuNC0xMS4yIDYuNHpNMzYwIDI0My4yYy00IDAtOC0xLjYtMTEuMi00LjgtMTYuOC0xNi44LTI2LjQtNDAtMjYuNC02NHM5LjYtNDcuMiAyNi40LTY0YzYuNC02LjQgMTYtNi40IDIyLjQgMCA2LjQgNi40IDYuNCAxNiAwIDIyLjQtMTEuMiAxMS4yLTE3LjYgMjUuNi0xNy42IDQxLjZzNi40IDMwLjQgMTcuNiA0MS42YzYuNCA2LjQgNi40IDE2IDAgMjIuNC0yLjQgMy4yLTcuMiA0LjgtMTEuMiA0Ljh6TTc4Ny4yIDM0NC44Yy00IDAtOC0xLjYtMTEuMi00LjgtNi40LTYuNC02LjQtMTYgMC0yMi40IDc5LjItNzkuMiA3OS4yLTIwNy4yIDAtMjg1LjYtNi40LTYuNC02LjQtMTYgMC0yMi40IDYuNC02LjQgMTYtNi40IDIyLjQgMCA5MS4yIDkxLjIgOTEuMiAyNDAgMCAzMzEuMi0zLjIgMi40LTcuMiA0LTExLjIgNHoiLz48cGF0aCBmaWxsPSIjMzAzQzQyIiBkPSJNNzI1LjYgMjkzLjZjLTQgMC04LTEuNi0xMS4yLTQuOC02LjQtNi40LTYuNC0xNiAwLTIyLjQgNTEuMi01MS4yIDUxLjItMTMzLjYgMC0xODQuOC02LjQtNi40LTYuNC0xNiAwLTIyLjQgNi40LTYuNCAxNi02LjQgMjIuNCAwIDYzLjIgNjMuMiA2My4yIDE2Ni40IDAgMjI5LjYtMy4yIDMuMi03LjIgNC44LTExLjIgNC44ek02NjQgMjQzLjJjLTQgMC04LTEuNi0xMS4yLTQuOC02LjQtNi40LTYuNC0xNiAwLTIyLjQgMTEuMi0xMS4yIDE3LjYtMjUuNiAxNy42LTQxLjZzLTYuNC0zMC40LTE3LjYtNDEuNmMtNi40LTYuNC02LjQtMTYgMC0yMi40IDYuNC02LjQgMTYtNi40IDIyLjQgMCAxNi44IDE2LjggMjYuNCA0MCAyNi40IDY0cy05LjYgNDcuMi0yNi40IDY0Yy0zLjIgMy4yLTcuMiA0LjgtMTEuMiA0Ljh6Ii8+PC9zdmc+;rounded=0;fontFamily=Times New Roman;fontSize=14;" parent="1" vertex="1">
          <mxGeometry x="-790" y="555" width="70" height="70" as="geometry" />
        </mxCell>
        <mxCell id="nNQXx-ZQJlEM0W2rjv_R-6" value="" style="shape=image;verticalLabelPosition=bottom;labelBackgroundColor=default;verticalAlign=top;aspect=fixed;imageAspect=0;image=data:image/svg+xml,PHN2ZyB4bWxuczp4bGluaz0iaHR0cDovL3d3dy53My5vcmcvMTk5OS94bGluayIgeG1sbnM9Imh0dHA6Ly93d3cudzMub3JnLzIwMDAvc3ZnIiBoZWlnaHQ9IjIwMCIgd2lkdGg9IjIwMCIgdmVyc2lvbj0iMS4xIiB2aWV3Qm94PSIwIDAgMTAyNCAxMDI0IiBjbGFzcz0iaWNvbiI+PHBhdGggZD0iTTUxMiAyMTMuMzMzMzMzYy0zNS4yODUzMzMgMC02NC0yOC43MTQ2NjctNjQtNjRTNDc2LjcxNDY2NyA4NS4zMzMzMzMgNTEyIDg1LjMzMzMzM3M2NCAyOC43MTQ2NjcgNjQgNjRTNTQ3LjI4NTMzMyAyMTMuMzMzMzMzIDUxMiAyMTMuMzMzMzMzeiBtMC04NS4zMzMzMzNhMjEuMzMzMzMzIDIxLjMzMzMzMyAwIDEgMCAwIDQyLjY2NjY2NyAyMS4zMzMzMzMgMjEuMzMzMzMzIDAgMCAwIDAtNDIuNjY2NjY3ek01MTIgMzg0Yy0zNS4yODUzMzMgMC02NC0yOC43MTQ2NjctNjQtNjRTNDc2LjcxNDY2NyAyNTYgNTEyIDI1NnM2NCAyOC43MTQ2NjcgNjQgNjRTNTQ3LjI4NTMzMyAzODQgNTEyIDM4NHogbTAtODUuMzMzMzMzYTIxLjMzMzMzMyAyMS4zMzMzMzMgMCAxIDAgMCA0Mi42NjY2NjYgMjEuMzMzMzMzIDIxLjMzMzMzMyAwIDAgMCAwLTQyLjY2NjY2NnpNNTEyIDU1NC42NjY2NjdjLTM1LjI4NTMzMyAwLTY0LTI4LjcxNDY2Ny02NC02NFM0NzYuNzE0NjY3IDQyNi42NjY2NjcgNTEyIDQyNi42NjY2NjdzNjQgMjguNzE0NjY3IDY0IDY0UzU0Ny4yODUzMzMgNTU0LjY2NjY2NyA1MTIgNTU0LjY2NjY2N3ogbTAtODUuMzMzMzM0YTIxLjMzMzMzMyAyMS4zMzMzMzMgMCAxIDAgMCA0Mi42NjY2NjcgMjEuMzMzMzMzIDIxLjMzMzMzMyAwIDAgMCAwLTQyLjY2NjY2N3oiLz48cGF0aCBkPSJNNTk3LjMzMzMzMyA2NDBoLTE3MC42NjY2NjZjLTM1LjI4NTMzMyAwLTY0LTI4LjcxNDY2Ny02NC02NHYtNTEyQzM2Mi42NjY2NjcgMjguNzE0NjY3IDM5MS4zODEzMzMgMCA0MjYuNjY2NjY3IDBoMTcwLjY2NjY2NmMzNS4yODUzMzMgMCA2NCAyOC43MTQ2NjcgNjQgNjR2NTEyYzAgMzUuMjg1MzMzLTI4LjcxNDY2NyA2NC02NCA2NHpNNDI2LjY2NjY2NyA0Mi42NjY2NjdhMjEuMzMzMzMzIDIxLjMzMzMzMyAwIDAgMC0yMS4zMzMzMzQgMjEuMzMzMzMzdjUxMmEyMS4zMzMzMzMgMjEuMzMzMzMzIDAgMCAwIDIxLjMzMzMzNCAyMS4zMzMzMzNoMTcwLjY2NjY2NmEyMS4zMzMzMzMgMjEuMzMzMzMzIDAgMCAwIDIxLjMzMzMzNC0yMS4zMzMzMzN2LTUxMkEyMS4zMzMzMzMgMjEuMzMzMzMzIDAgMCAwIDU5Ny4zMzMzMzMgNDIuNjY2NjY3aC0xNzAuNjY2NjY2eiIvPjxwYXRoIGQ9Ik0zODQgMjEzLjMzMzMzM2EyMS4zMzMzMzMgMjEuMzMzMzMzIDAgMCAxLTIxLjMzMzMzMy0yMS4zMzMzMzNjLTIuMTMzMzMzLTIuOTAxMzMzLTE4Ljk4NjY2Ny0xMy4zOTczMzMtMjkuMDU2LTE5LjY2OTMzM0MzMDcuMjQyNjY3IDE1NS45MDQgMjc3LjMzMzMzMyAxMzcuMzAxMzMzIDI3Ny4zMzMzMzMgMTA2LjY2NjY2N0EyMS4zMzMzMzMgMjEuMzMzMzMzIDAgMCAxIDI5OC42NjY2NjcgODUuMzMzMzMzaDg1LjMzMzMzM2EyMS4zMzMzMzMgMjEuMzMzMzMzIDAgMCAxIDAgNDIuNjY2NjY3aC00MC41NzZjNC44NjQgMy4yIDkuNDcyIDYuMTAxMzMzIDEyLjc1NzMzMyA4LjEwNjY2NyAyNC4xOTIgMTUuMDYxMzMzIDQ5LjE1MiAzMC42MzQ2NjcgNDkuMTUyIDU1Ljg5MzMzM0EyMS4zMzMzMzMgMjEuMzMzMzMzIDAgMCAxIDM4NCAyMTMuMzMzMzMzek0zODQgMzg0YTIxLjMzMzMzMyAyMS4zMzMzMzMgMCAwIDEtMjEuMzMzMzMzLTIxLjMzMzMzM2MtMi4xMzMzMzMtMi45MDEzMzMtMTguOTg2NjY3LTEzLjM5NzMzMy0yOS4wNTYtMTkuNjY5MzM0QzMwNy4yNDI2NjcgMzI2LjU3MDY2NyAyNzcuMzMzMzMzIDMwNy45NjggMjc3LjMzMzMzMyAyNzcuMzMzMzMzQTIxLjMzMzMzMyAyMS4zMzMzMzMgMCAwIDEgMjk4LjY2NjY2NyAyNTZoODUuMzMzMzMzYTIxLjMzMzMzMyAyMS4zMzMzMzMgMCAwIDEgMCA0Mi42NjY2NjdoLTQwLjU3NmM0Ljg2NCAzLjIgOS40NzIgNi4xMDEzMzMgMTIuNzU3MzMzIDguMTA2NjY2IDI0LjE5MiAxNS4wNjEzMzMgNDkuMTUyIDMwLjYzNDY2NyA0OS4xNTIgNTUuODkzMzM0QTIxLjMzMzMzMyAyMS4zMzMzMzMgMCAwIDEgMzg0IDM4NHpNMzg0IDU1NC42NjY2NjdhMjEuMzMzMzMzIDIxLjMzMzMzMyAwIDAgMS0yMS4zMzMzMzMtMjEuMzMzMzM0Yy0yLjEzMzMzMy0yLjkwMTMzMy0xOC45ODY2NjctMTMuMzk3MzMzLTI5LjA1Ni0xOS42NjkzMzMtMjYuMzY4LTE2LjQyNjY2Ny01Ni4yNzczMzMtMzUuMDI5MzMzLTU2LjI3NzMzNC02NS42NjRBMjEuMzMzMzMzIDIxLjMzMzMzMyAwIDAgMSAyOTguNjY2NjY3IDQyNi42NjY2NjdoODUuMzMzMzMzYTIxLjMzMzMzMyAyMS4zMzMzMzMgMCAwIDEgMCA0Mi42NjY2NjZoLTQwLjU3NmM0Ljg2NCAzLjIgOS40NzIgNi4xMDEzMzMgMTIuNzU3MzMzIDguMTA2NjY3IDI0LjE5MiAxNS4wNjEzMzMgNDkuMTUyIDMwLjYzNDY2NyA0OS4xNTIgNTUuODkzMzMzYTIxLjMzMzMzMyAyMS4zMzMzMzMgMCAwIDEtMjEuMzMzMzMzIDIxLjMzMzMzNHpNNjM5LjgyOTMzMyAyMTQuNDQyNjY3Yy0xMS43NzYgMC0yMS4xNjI2NjctMTAuNjY2NjY3LTIxLjE2MjY2Ni0yMi40NDI2NjcgMC0yNS4yNTg2NjcgMjQuOTYtNDAuODMyIDQ5LjE1Mi01NS44OTMzMzMgMy4yODUzMzMtMi4wNDggNy44OTMzMzMtNC45MDY2NjcgMTIuNzU3MzMzLTguMTA2NjY3SDY0MGEyMS4zMzMzMzMgMjEuMzMzMzMzIDAgMCAxIDAtNDIuNjY2NjY3aDg1LjMzMzMzM2EyMS4zMzMzMzMgMjEuMzMzMzMzIDAgMCAxIDIxLjMzMzMzNCAyMS4zMzMzMzRjMCAzMC42MzQ2NjctMjkuOTA5MzMzIDQ5LjIzNzMzMy01Ni4yNzczMzQgNjUuNjY0LTEwLjA2OTMzMyA2LjI3Mi0yNi45MjI2NjcgMTYuNzY4LTI5LjQ0IDIxLjg0NTMzMyAwIDExLjgxODY2Ny05LjM4NjY2NyAyMC4yNjY2NjctMjEuMTIgMjAuMjY2NjY3ek02MzkuODI5MzMzIDM4NS4xMDkzMzNjLTExLjc3NiAwLTIxLjE2MjY2Ny0xMC42NjY2NjctMjEuMTYyNjY2LTIyLjQ0MjY2NiAwLTI1LjI1ODY2NyAyNC45Ni00MC44MzIgNDkuMTUyLTU1Ljg5MzMzNCAzLjI4NTMzMy0yLjA0OCA3Ljg5MzMzMy00LjkwNjY2NyAxMi43NTczMzMtOC4xMDY2NjZINjQwYTIxLjMzMzMzMyAyMS4zMzMzMzMgMCAwIDEgMC00Mi42NjY2NjdoODUuMzMzMzMzYTIxLjMzMzMzMyAyMS4zMzMzMzMgMCAwIDEgMjEuMzMzMzM0IDIxLjMzMzMzM2MwIDMwLjYzNDY2Ny0yOS45MDkzMzMgNDkuMjM3MzMzLTU2LjI3NzMzNCA2NS42NjQtMTAuMDY5MzMzIDYuMjcyLTI2LjkyMjY2NyAxNi43NjgtMjkuNDQgMjEuODQ1MzM0IDAgMTEuODE4NjY3LTkuMzg2NjY3IDIwLjI2NjY2Ny0yMS4xMiAyMC4yNjY2NjZ6TTYzOS44MjkzMzMgNTU1Ljc3NmMtMTEuNzc2IDAtMjEuMTYyNjY3LTEwLjY2NjY2Ny0yMS4xNjI2NjYtMjIuNDQyNjY3IDAtMjUuMjU4NjY3IDI0Ljk2LTQwLjgzMiA0OS4xNTItNTUuODkzMzMzIDMuMjg1MzMzLTIuMDQ4IDcuODkzMzMzLTQuOTA2NjY3IDEyLjc1NzMzMy04LjEwNjY2N0g2NDBhMjEuMzMzMzMzIDIxLjMzMzMzMyAwIDAgMSAwLTQyLjY2NjY2Nmg4NS4zMzMzMzNhMjEuMzMzMzMzIDIxLjMzMzMzMyAwIDAgMSAyMS4zMzMzMzQgMjEuMzMzMzMzYzAgMzAuNjM0NjY3LTI5LjkwOTMzMyA0OS4yMzczMzMtNTYuMjc3MzM0IDY1LjY2NC0xMC4wNjkzMzMgNi4yNzItMjYuOTIyNjY3IDE2Ljc2OC0yOS40NCAyMS44NDUzMzMgMCAxMS44MTg2NjctOS4zODY2NjcgMjAuMjY2NjY3LTIxLjEyIDIwLjI2NjY2N3pNNTEyIDEwMjRhMjEuMzMzMzMzIDIxLjMzMzMzMyAwIDAgMS0yMS4zMzMzMzMtMjEuMzMzMzMzdi0zODRhMjEuMzMzMzMzIDIxLjMzMzMzMyAwIDAgMSA0Mi42NjY2NjYgMHYzODRhMjEuMzMzMzMzIDIxLjMzMzMzMyAwIDAgMS0yMS4zMzMzMzMgMjEuMzMzMzMzeiIvPjxwYXRoIGQ9Ik01NTQuNjY2NjY3IDEwMjRoLTg1LjMzMzMzNGEyMS4zMzMzMzMgMjEuMzMzMzMzIDAgMCAxIDAtNDIuNjY2NjY3aDg1LjMzMzMzNGEyMS4zMzMzMzMgMjEuMzMzMzMzIDAgMCAxIDAgNDIuNjY2NjY3eiIvPjwvc3ZnPg==;rounded=0;fontFamily=Times New Roman;fontSize=14;" parent="1" vertex="1">
          <mxGeometry x="-635" y="495" width="70" height="70" as="geometry" />
        </mxCell>
        <mxCell id="nNQXx-ZQJlEM0W2rjv_R-11" value="" style="shape=image;verticalLabelPosition=bottom;labelBackgroundColor=default;verticalAlign=top;aspect=fixed;imageAspect=0;image=data:image/svg+xml,PHN2ZyB4bWxuczp4bGluaz0iaHR0cDovL3d3dy53My5vcmcvMTk5OS94bGluayIgeG1sbnM9Imh0dHA6Ly93d3cudzMub3JnLzIwMDAvc3ZnIiBoZWlnaHQ9IjIwMCIgd2lkdGg9IjIwMCIgdmVyc2lvbj0iMS4xIiB2aWV3Qm94PSIwIDAgMTAyNCAxMDI0IiBjbGFzcz0iaWNvbiI+PHBhdGggZmlsbD0iI2JmYmZiZiIgZD0iTTMwMy43ODY2NjcgMTcwLjY2NjY2N2w2OC4yNjY2NjYgMy40MTMzMzNMMzc1LjQ2NjY2NyAxMDIuNEgzMDcuMmwtMy40MTMzMzMgNjguMjY2NjY3eiBtLTIwLjQ4IDU0Ni4xMzMzMzNsNjguMjY2NjY2IDMuNDEzMzMzIDYuODI2NjY3LTEzNi41MzMzMzMtNjguMjY2NjY3LTMuNDEzMzMzLTYuODI2NjY2IDEzNi41MzMzMzN6IG0xMC4yNC0yNzMuMDY2NjY3bDY4LjI2NjY2NiAzLjQxMzMzNCA2LjgyNjY2Ny0xMzYuNTMzMzM0LTY4LjI2NjY2Ny0zLjQxMzMzMy02LjgyNjY2NiAxMzYuNTMzMzMzek0yNzMuMDY2NjY3IDkyMS42aDY4LjI2NjY2NmwzLjQxMzMzNC02OC4yNjY2NjctNjguMjY2NjY3LTMuNDEzMzMzTDI3My4wNjY2NjcgOTIxLjZ6IG0tMjM4LjkzMzMzNCAwaDY4LjI2NjY2N0wyMDQuOCAxMDIuNEgxMzYuNTMzMzMzTDM0LjEzMzMzMyA5MjEuNnpNODg3LjQ2NjY2NyAxMDIuNGgtNjguMjY2NjY3bDEwMi40IDgxOS4yaDY4LjI2NjY2N0w4ODcuNDY2NjY3IDEwMi40eiBtLTIwOC4yMTMzMzQgNzUwLjkzMzMzM2wzLjQxMzMzNCA2OC4yNjY2NjdoNjguMjY2NjY2bC0zLjQxMzMzMy02OC4yNjY2NjdoLTY4LjI2NjY2N3ogbTU4LjAyNjY2Ny0yNzMuMDY2NjY2bC02OC4yNjY2NjcgMy40MTMzMzMgNi44MjY2NjcgMTM2LjUzMzMzMyA2OC4yNjY2NjctMy40MTMzMzMtNi44MjY2NjctMTM2LjUzMzMzM3ogbS0xMC4yNC0yNzMuMDY2NjY3bC02OC4yNjY2NjcgMy40MTMzMzMgNi44MjY2NjcgMTM2LjUzMzMzNCA2OC4yNjY2NjctMy40MTMzMzQtNi44MjY2NjctMTM2LjUzMzMzM3pNNzE2LjggMTAyLjRoLTY4LjI2NjY2N2wzLjQxMzMzNCA3MS42OCA2OC4yNjY2NjYtMy40MTMzMzMtMy40MTMzMzMtNjguMjY2NjY3eiBtLTIzOC45MzMzMzMgODE5LjJoNjguMjY2NjY2VjEwMi40aC02OC4yNjY2NjZ2ODE5LjJ6Ii8+PC9zdmc+;movable=0;resizable=0;rotatable=0;deletable=0;editable=0;locked=1;connectable=0;rounded=0;" parent="1" vertex="1">
          <mxGeometry x="-600" y="360" width="270" height="270" as="geometry" />
        </mxCell>
        <mxCell id="nNQXx-ZQJlEM0W2rjv_R-7" value="" style="shape=image;verticalLabelPosition=bottom;labelBackgroundColor=default;verticalAlign=top;aspect=fixed;imageAspect=0;image=data:image/svg+xml,PHN2ZyB4bWxuczp4bGluaz0iaHR0cDovL3d3dy53My5vcmcvMTk5OS94bGluayIgeG1sbnM9Imh0dHA6Ly93d3cudzMub3JnLzIwMDAvc3ZnIiBoZWlnaHQ9IjIwMCIgd2lkdGg9IjIwMCIgdmVyc2lvbj0iMS4xIiB2aWV3Qm94PSIwIDAgMTAyNCAxMDI0IiBjbGFzcz0iaWNvbiI+PHBhdGggZD0iTTkxMi44MzIgNDY3LjEwNGgtMjIuMjcybC02LjYyNC0yMi40NjRoNjAuOTI4YTMyIDMyIDAgMSAwIDAtNjRoLTc5LjgwOGwtMzUuNTg0LTEyMC41NDRDODE1LjE2OCAyMjEuMjggNzcxLjUyIDE5MiA3MjggMTkySDMwMi41OTJjLTQzLjUyIDAtODcuMTM2IDI5LjI4LTEwMi4xMTIgNzAuMTEybC0zNC45NDQgMTE4LjUyOEg5NmEzMiAzMiAwIDAgMCAwIDY0aDUwLjYyNGwtNi42MjQgMjIuNDY0SDEyOGMtMzUuMjk2IDAtNjQgMjguNzA0LTY0IDY0djI4Mi45NDRoNTEuMTA0djM0LjgxNmEzMiAzMiAwIDEgMCA2NCAwdi0zNC44MTZoNjkwLjUyOHYzNC44MTZhMzIgMzIgMCAxIDAgNjQgMHYtMzQuODE2aDQzLjIzMnYtMjgyLjk0NGE2NC4xMjggNjQuMTI4IDAgMCAwLTY0LjAzMi02NHpNMTI4IDc1MC4wMTZ2LTEwNC45Nmg3My43OTJjMjYuNDY0IDAgNTAuNTI4LTE2LjY3MiA1OS44NzItNDEuNDA4bDI0LjA2NC02My43MTJjMS4wODgtMi45MTIgMS4yMTYtNS44ODggMS40NC04LjgzMmg0NTAuNTI4YzAuMjI0IDIuOTQ0IDAuMzUyIDUuOTIgMS40NCA4LjgzMmwyNC4wNjQgNjMuNjQ4YTY0LjI1NiA2NC4yNTYgMCAwIDAgNTkuODcyIDQxLjQ3Mmg4OS43NnYxMDQuOTZIMTI4eiBtNzg0LjgzMi0xNjguOTZsLTg5Ljc2LTAuMDMyLTE4Ljg0OC00OS45NTJoMTA4LjYwOHY0OS45ODR6TTIxOC41MjggNDI2Ljk0NGEzMC45NDQgMzAuOTQ0IDAgMCAwIDIuODE2LTkuNTY4TDI2MS4xODQgMjgyLjI0YzQuNDgtMTIuMTYgMjMuNTItMjYuMjQgNDEuNDA4LTI2LjI0SDcyOGMxNy44ODggMCAzNi45MjggMTQuMDggNDAuNzM2IDI0LjE5Mmw1NS4xMDQgMTg2Ljg4SDIwNi43MmwxMS44MDgtNDAuMTI4eiBtMi4xNDQgMTA0LjE2bC0xOC44OCA0OS45ODRIMTI4di00OS45ODRoOTIuNjcyeiIvPjxwYXRoIGQ9Ik02MTQuNzUyIDYyNi4yNGgtMTg4LjY0YTMyIDMyIDAgMSAwIDAgNjRoMTg4LjY0YTMyIDMyIDAgMSAwIDAtNjR6Ii8+PC9zdmc+;rounded=0;fontFamily=Times New Roman;fontSize=14;" parent="1" vertex="1">
          <mxGeometry x="-550" y="380" width="70" height="70" as="geometry" />
        </mxCell>
        <mxCell id="nNQXx-ZQJlEM0W2rjv_R-12" value="" style="shape=image;verticalLabelPosition=bottom;labelBackgroundColor=default;verticalAlign=top;aspect=fixed;imageAspect=0;image=data:image/svg+xml,PHN2ZyB4bWxuczp4bGluaz0iaHR0cDovL3d3dy53My5vcmcvMTk5OS94bGluayIgeG1sbnM9Imh0dHA6Ly93d3cudzMub3JnLzIwMDAvc3ZnIiBoZWlnaHQ9IjIwMCIgd2lkdGg9IjIwMCIgdmVyc2lvbj0iMS4xIiB2aWV3Qm94PSIwIDAgMTAyNCAxMDI0IiBjbGFzcz0iaWNvbiI+PHBhdGggZD0iTTkxMi44MzIgNDY3LjEwNGgtMjIuMjcybC02LjYyNC0yMi40NjRoNjAuOTI4YTMyIDMyIDAgMSAwIDAtNjRoLTc5LjgwOGwtMzUuNTg0LTEyMC41NDRDODE1LjE2OCAyMjEuMjggNzcxLjUyIDE5MiA3MjggMTkySDMwMi41OTJjLTQzLjUyIDAtODcuMTM2IDI5LjI4LTEwMi4xMTIgNzAuMTEybC0zNC45NDQgMTE4LjUyOEg5NmEzMiAzMiAwIDAgMCAwIDY0aDUwLjYyNGwtNi42MjQgMjIuNDY0SDEyOGMtMzUuMjk2IDAtNjQgMjguNzA0LTY0IDY0djI4Mi45NDRoNTEuMTA0djM0LjgxNmEzMiAzMiAwIDEgMCA2NCAwdi0zNC44MTZoNjkwLjUyOHYzNC44MTZhMzIgMzIgMCAxIDAgNjQgMHYtMzQuODE2aDQzLjIzMnYtMjgyLjk0NGE2NC4xMjggNjQuMTI4IDAgMCAwLTY0LjAzMi02NHpNMTI4IDc1MC4wMTZ2LTEwNC45Nmg3My43OTJjMjYuNDY0IDAgNTAuNTI4LTE2LjY3MiA1OS44NzItNDEuNDA4bDI0LjA2NC02My43MTJjMS4wODgtMi45MTIgMS4yMTYtNS44ODggMS40NC04LjgzMmg0NTAuNTI4YzAuMjI0IDIuOTQ0IDAuMzUyIDUuOTIgMS40NCA4LjgzMmwyNC4wNjQgNjMuNjQ4YTY0LjI1NiA2NC4yNTYgMCAwIDAgNTkuODcyIDQxLjQ3Mmg4OS43NnYxMDQuOTZIMTI4eiBtNzg0LjgzMi0xNjguOTZsLTg5Ljc2LTAuMDMyLTE4Ljg0OC00OS45NTJoMTA4LjYwOHY0OS45ODR6TTIxOC41MjggNDI2Ljk0NGEzMC45NDQgMzAuOTQ0IDAgMCAwIDIuODE2LTkuNTY4TDI2MS4xODQgMjgyLjI0YzQuNDgtMTIuMTYgMjMuNTItMjYuMjQgNDEuNDA4LTI2LjI0SDcyOGMxNy44ODggMCAzNi45MjggMTQuMDggNDAuNzM2IDI0LjE5Mmw1NS4xMDQgMTg2Ljg4SDIwNi43MmwxMS44MDgtNDAuMTI4eiBtMi4xNDQgMTA0LjE2bC0xOC44OCA0OS45ODRIMTI4di00OS45ODRoOTIuNjcyeiIvPjxwYXRoIGQ9Ik02MTQuNzUyIDYyNi4yNGgtMTg4LjY0YTMyIDMyIDAgMSAwIDAgNjRoMTg4LjY0YTMyIDMyIDAgMSAwIDAtNjR6Ii8+PC9zdmc+;rounded=0;fontFamily=Times New Roman;fontSize=14;" parent="1" vertex="1">
          <mxGeometry x="-450" y="380" width="70" height="70" as="geometry" />
        </mxCell>
        <mxCell id="nNQXx-ZQJlEM0W2rjv_R-13" value="" style="shape=image;verticalLabelPosition=bottom;labelBackgroundColor=default;verticalAlign=top;aspect=fixed;imageAspect=0;image=data:image/svg+xml,PHN2ZyB4bWxuczp4bGluaz0iaHR0cDovL3d3dy53My5vcmcvMTk5OS94bGluayIgeG1sbnM9Imh0dHA6Ly93d3cudzMub3JnLzIwMDAvc3ZnIiBoZWlnaHQ9IjIwMCIgd2lkdGg9IjIwMCIgdmVyc2lvbj0iMS4xIiB2aWV3Qm94PSIwIDAgMTAyNCAxMDI0IiBjbGFzcz0iaWNvbiI+PHBhdGggZD0iTTkxMi44MzIgNDY3LjEwNGgtMjIuMjcybC02LjYyNC0yMi40NjRoNjAuOTI4YTMyIDMyIDAgMSAwIDAtNjRoLTc5LjgwOGwtMzUuNTg0LTEyMC41NDRDODE1LjE2OCAyMjEuMjggNzcxLjUyIDE5MiA3MjggMTkySDMwMi41OTJjLTQzLjUyIDAtODcuMTM2IDI5LjI4LTEwMi4xMTIgNzAuMTEybC0zNC45NDQgMTE4LjUyOEg5NmEzMiAzMiAwIDAgMCAwIDY0aDUwLjYyNGwtNi42MjQgMjIuNDY0SDEyOGMtMzUuMjk2IDAtNjQgMjguNzA0LTY0IDY0djI4Mi45NDRoNTEuMTA0djM0LjgxNmEzMiAzMiAwIDEgMCA2NCAwdi0zNC44MTZoNjkwLjUyOHYzNC44MTZhMzIgMzIgMCAxIDAgNjQgMHYtMzQuODE2aDQzLjIzMnYtMjgyLjk0NGE2NC4xMjggNjQuMTI4IDAgMCAwLTY0LjAzMi02NHpNMTI4IDc1MC4wMTZ2LTEwNC45Nmg3My43OTJjMjYuNDY0IDAgNTAuNTI4LTE2LjY3MiA1OS44NzItNDEuNDA4bDI0LjA2NC02My43MTJjMS4wODgtMi45MTIgMS4yMTYtNS44ODggMS40NC04LjgzMmg0NTAuNTI4YzAuMjI0IDIuOTQ0IDAuMzUyIDUuOTIgMS40NCA4LjgzMmwyNC4wNjQgNjMuNjQ4YTY0LjI1NiA2NC4yNTYgMCAwIDAgNTkuODcyIDQxLjQ3Mmg4OS43NnYxMDQuOTZIMTI4eiBtNzg0LjgzMi0xNjguOTZsLTg5Ljc2LTAuMDMyLTE4Ljg0OC00OS45NTJoMTA4LjYwOHY0OS45ODR6TTIxOC41MjggNDI2Ljk0NGEzMC45NDQgMzAuOTQ0IDAgMCAwIDIuODE2LTkuNTY4TDI2MS4xODQgMjgyLjI0YzQuNDgtMTIuMTYgMjMuNTItMjYuMjQgNDEuNDA4LTI2LjI0SDcyOGMxNy44ODggMCAzNi45MjggMTQuMDggNDAuNzM2IDI0LjE5Mmw1NS4xMDQgMTg2Ljg4SDIwNi43MmwxMS44MDgtNDAuMTI4eiBtMi4xNDQgMTA0LjE2bC0xOC44OCA0OS45ODRIMTI4di00OS45ODRoOTIuNjcyeiIvPjxwYXRoIGQ9Ik02MTQuNzUyIDYyNi4yNGgtMTg4LjY0YTMyIDMyIDAgMSAwIDAgNjRoMTg4LjY0YTMyIDMyIDAgMSAwIDAtNjR6Ii8+PC9zdmc+;rounded=0;fontFamily=Times New Roman;fontSize=14;" parent="1" vertex="1">
          <mxGeometry x="-550" y="460" width="70" height="70" as="geometry" />
        </mxCell>
        <mxCell id="nNQXx-ZQJlEM0W2rjv_R-14" value="" style="shape=image;verticalLabelPosition=bottom;labelBackgroundColor=default;verticalAlign=top;aspect=fixed;imageAspect=0;image=data:image/svg+xml,PHN2ZyB4bWxuczp4bGluaz0iaHR0cDovL3d3dy53My5vcmcvMTk5OS94bGluayIgeG1sbnM9Imh0dHA6Ly93d3cudzMub3JnLzIwMDAvc3ZnIiBoZWlnaHQ9IjIwMCIgd2lkdGg9IjIwMCIgdmVyc2lvbj0iMS4xIiB2aWV3Qm94PSIwIDAgMTAyNCAxMDI0IiBjbGFzcz0iaWNvbiI+PHBhdGggZD0iTTkxMi44MzIgNDY3LjEwNGgtMjIuMjcybC02LjYyNC0yMi40NjRoNjAuOTI4YTMyIDMyIDAgMSAwIDAtNjRoLTc5LjgwOGwtMzUuNTg0LTEyMC41NDRDODE1LjE2OCAyMjEuMjggNzcxLjUyIDE5MiA3MjggMTkySDMwMi41OTJjLTQzLjUyIDAtODcuMTM2IDI5LjI4LTEwMi4xMTIgNzAuMTEybC0zNC45NDQgMTE4LjUyOEg5NmEzMiAzMiAwIDAgMCAwIDY0aDUwLjYyNGwtNi42MjQgMjIuNDY0SDEyOGMtMzUuMjk2IDAtNjQgMjguNzA0LTY0IDY0djI4Mi45NDRoNTEuMTA0djM0LjgxNmEzMiAzMiAwIDEgMCA2NCAwdi0zNC44MTZoNjkwLjUyOHYzNC44MTZhMzIgMzIgMCAxIDAgNjQgMHYtMzQuODE2aDQzLjIzMnYtMjgyLjk0NGE2NC4xMjggNjQuMTI4IDAgMCAwLTY0LjAzMi02NHpNMTI4IDc1MC4wMTZ2LTEwNC45Nmg3My43OTJjMjYuNDY0IDAgNTAuNTI4LTE2LjY3MiA1OS44NzItNDEuNDA4bDI0LjA2NC02My43MTJjMS4wODgtMi45MTIgMS4yMTYtNS44ODggMS40NC04LjgzMmg0NTAuNTI4YzAuMjI0IDIuOTQ0IDAuMzUyIDUuOTIgMS40NCA4LjgzMmwyNC4wNjQgNjMuNjQ4YTY0LjI1NiA2NC4yNTYgMCAwIDAgNTkuODcyIDQxLjQ3Mmg4OS43NnYxMDQuOTZIMTI4eiBtNzg0LjgzMi0xNjguOTZsLTg5Ljc2LTAuMDMyLTE4Ljg0OC00OS45NTJoMTA4LjYwOHY0OS45ODR6TTIxOC41MjggNDI2Ljk0NGEzMC45NDQgMzAuOTQ0IDAgMCAwIDIuODE2LTkuNTY4TDI2MS4xODQgMjgyLjI0YzQuNDgtMTIuMTYgMjMuNTItMjYuMjQgNDEuNDA4LTI2LjI0SDcyOGMxNy44ODggMCAzNi45MjggMTQuMDggNDAuNzM2IDI0LjE5Mmw1NS4xMDQgMTg2Ljg4SDIwNi43MmwxMS44MDgtNDAuMTI4eiBtMi4xNDQgMTA0LjE2bC0xOC44OCA0OS45ODRIMTI4di00OS45ODRoOTIuNjcyeiIvPjxwYXRoIGQ9Ik02MTQuNzUyIDYyNi4yNGgtMTg4LjY0YTMyIDMyIDAgMSAwIDAgNjRoMTg4LjY0YTMyIDMyIDAgMSAwIDAtNjR6Ii8+PC9zdmc+;rounded=0;fontFamily=Times New Roman;fontSize=14;" parent="1" vertex="1">
          <mxGeometry x="-450" y="530" width="70" height="70" as="geometry" />
        </mxCell>
        <mxCell id="CC2tJVd6ZYIFMn7QWzai-10" style="edgeStyle=orthogonalEdgeStyle;rounded=0;orthogonalLoop=1;jettySize=auto;html=1;exitX=0;exitY=0.5;exitDx=0;exitDy=0;fontFamily=Times New Roman;fontSize=14;" parent="1" source="nNQXx-ZQJlEM0W2rjv_R-18" target="CC2tJVd6ZYIFMn7QWzai-2" edge="1">
          <mxGeometry relative="1" as="geometry" />
        </mxCell>
        <mxCell id="nNQXx-ZQJlEM0W2rjv_R-18" value="" style="shape=image;verticalLabelPosition=bottom;labelBackgroundColor=default;verticalAlign=top;aspect=fixed;imageAspect=0;image=data:image/svg+xml,PHN2ZyB4bWxuczp4bGluaz0iaHR0cDovL3d3dy53My5vcmcvMTk5OS94bGluayIgeG1sbnM9Imh0dHA6Ly93d3cudzMub3JnLzIwMDAvc3ZnIiBoZWlnaHQ9IjIwMCIgd2lkdGg9IjIwMCIgdmVyc2lvbj0iMS4xIiB2aWV3Qm94PSIwIDAgMTAyNCAxMDI0IiBjbGFzcz0iaWNvbiI+PHBhdGggZD0iTTY0Mi4wNDggNDQ3LjQ4OGwtMjU3LjAyNCAwIDAtMTI4IDI1Ny4wMjQgMCAwIDEyOHpNNjQyLjA0OCA2NDBsLTI1Ny4wMjQgMCAwLTEyOCAyNTcuMDI0IDAgMCAxMjh6TTY0Mi4wNDggODMxLjQ4OGwtMjU3LjAyNCAwIDAtMTI4IDI1Ny4wMjQgMCAwIDEyOHpNNzA1LjUzNiAxMjYuOTc2cTI2LjYyNCAwIDQ5LjY2NCAxMC4yNHQ0MC40NDggMjcuNjQ4IDI3LjY0OCA0MC40NDggMTAuMjQgNDkuNjY0bDAgNjQxLjAyNHEwIDI2LjYyNC0xMC4yNCA0OS42NjR0LTI3LjY0OCA0MC40NDgtNDAuNDQ4IDI3LjY0OC00OS42NjQgMTAuMjRsLTM4NCAwcS0yNi42MjQgMC00OS42NjQtMTAuMjR0LTQwLjQ0OC0yNy42NDgtMjcuNjQ4LTQwLjQ0OC0xMC4yNC00OS42NjRsMC02NDEuMDI0cTAtMjYuNjI0IDEwLjI0LTQ5LjY2NHQyNy42NDgtNDAuNDQ4IDQwLjQ0OC0yNy42NDggNDkuNjY0LTEwLjI0bDYzLjQ4OCAwcTAtMjYuNjI0IDE4Ljk0NC00NS4wNTZ0NDUuNTY4LTE4LjQzMmwxMjggMHEyNi42MjQgMCA0NS41NjggMTguNDMydDE4Ljk0NCA0NS4wNTZsNjMuNDg4IDB6TTcwNS41MzYgMjU0Ljk3NmwtMzg0IDAgMCA2NDEuMDI0IDM4NCAwIDAtNjQxLjAyNHoiLz48L3N2Zz4=;rounded=0;fontFamily=Times New Roman;fontSize=14;" parent="1" vertex="1">
          <mxGeometry x="-620" y="430" width="20" height="20" as="geometry" />
        </mxCell>
        <mxCell id="nNQXx-ZQJlEM0W2rjv_R-19" value="" style="shape=image;verticalLabelPosition=bottom;labelBackgroundColor=default;verticalAlign=top;aspect=fixed;imageAspect=0;image=data:image/svg+xml,PHN2ZyB4bWxuczp4bGluaz0iaHR0cDovL3d3dy53My5vcmcvMTk5OS94bGluayIgeG1sbnM9Imh0dHA6Ly93d3cudzMub3JnLzIwMDAvc3ZnIiBoZWlnaHQ9IjIwMCIgd2lkdGg9IjIwMCIgdmVyc2lvbj0iMS4xIiB2aWV3Qm94PSIwIDAgMTAyNCAxMDI0IiBjbGFzcz0iaWNvbiI+PHBhdGggZD0iTTEwMjIuOTc2IDU3Ny41MzZsMCAyNzYuNDhxMCAxMy4zMTItNi42NTYgMjMuNTUydC0yMC45OTIgMTAuMjRxLTUuMTIgMC0xMi44LTQuMDk2dC0xNS4zNi04LjcwNC0xNC4zMzYtOS4yMTYtOS43MjgtNy42OHEtOC4xOTItNy4xNjgtMjYuMTEyLTIzLjU1MnQtMzYuMzUyLTM2Ljg2NC0zMi4yNTYtNDEuOTg0LTEzLjgyNC0zOS45MzYgMTUuMzYtNDEuNDcyIDM1Ljg0LTQ1LjU2OCA0Mi40OTYtNDEuNDcyIDM2LjM1Mi0yOC4xNnE2LjE0NC00LjA5NiAxNS4zNi05LjIxNnQxNi4zODQtNS4xMnExNi4zODQgMCAyMS41MDQgOS4yMTZ0NS4xMiAyMi41MjhsMCAxLjAyNHpNNzg0LjM4NCA1MjAuMTkycTcuMTY4IDAgMTUuODcyIDQuMDk2dDE1Ljg3MiAxMC43NTIgMTEuNzc2IDE0Ljg0OCA0LjYwOCAxNS4zNmwwIDM1My4yOHEwIDYuMTQ0LTUuNjMyIDE0LjMzNnQtMTMuODI0IDE1Ljg3Mi0xNi44OTYgMTIuOC0xNC44NDggNS4xMmwtNzIzLjk2OCAwcS0yNS42IDAtNDEuNDcyLTE2LjM4NHQtMTUuODcyLTM4LjkxMmwwLTM0NC4wNjRxMC0yMC40OCAxNC4zMzYtMzMuNzkydDM0LjgxNi0xMy4zMTJsMTQxLjMxMiAwcS0zOS45MzYtNi4xNDQtNzQuNzUyLTI2LjExMnQtNjAuNDE2LTQ5LjY2NC00MC40NDgtNjcuMDcyLTE0Ljg0OC03OS4zNnEwLTQ3LjEwNCAxNy45Mi04OC4wNjR0NDguNjQtNzEuNjggNzEuNjgtNDguMTI4IDg4LjA2NC0xNy40MDhxNjEuNDQgMCAxMTIuMTI4IDI4LjY3MnQ4MC4zODQgNzcuODI0cTI5LjY5Ni00OS4xNTIgODAuMzg0LTc4Ljg0OHQxMTIuMTI4LTI5LjY5NnE0Ny4xMDQgMCA4OC4wNjQgMTcuOTJ0NzEuNjggNDguNjQgNDguMTI4IDcxLjY4IDE3LjQwOCA4Ny4wNHEwIDQ1LjA1Ni0xNi4zODQgODQuNDh0LTQ0LjU0NCA2OS4xMi02Ni4wNDggNDguNjQtODEuOTIgMjIuMDE2bDE1Ni42NzIgMHpNNDE5Ljg0IDQxNC43MnEtMjUuNiA0MS45ODQtNjYuNTYgNjkuNjMydC05MS4xMzYgMzUuODRsMzMyLjggMHEtNTUuMjk2LTQuMDk2LTEwMS4zNzYtMzIuMjU2dC03My43MjgtNzMuMjE2ek0zODQgOTAzLjE2OGwtMi4wNDgtMzE2LjQxNi02NC41MTItMi4wNDggMCAxMjgtNjEuNDQgMCAyLjA0OC0xMjgtNjYuNTYgMCAwIDMyMC41MTIgNjQuNTEyIDAgMC0xMzAuMDQ4IDYzLjQ4OCAwLTIuMDQ4IDEzMC4wNDh6TTY0NC4wOTYgNjUxLjI2NHEtNC4wOTYtMTcuNDA4LTEzLjMxMi0zMS43NDQtOC4xOTItMTIuMjg4LTIwLjQ4LTIyLjUyOHQtMzIuNzY4LTEwLjI0bC0xMzAuMDQ4IDAgMCAzMjAuNTEyIDEzMC4wNDggMHEyMC40OCAwIDMyLjc2OC05LjcyOHQyMC40OC0yMi4wMTZxOS4yMTYtMTQuMzM2IDEzLjMxMi0zMi43NjhsMC0xOTEuNDg4ek01MTIgNjQ5LjIxNmw2My40ODggMCAwIDE5Mi41MTItNjMuNDg4IDAgMC0xOTIuNTEyeiIvPjwvc3ZnPg==;rounded=0;fontFamily=Times New Roman;fontSize=14;" parent="1" vertex="1">
          <mxGeometry x="-600" y="430" width="20" height="20" as="geometry" />
        </mxCell>
        <mxCell id="CC2tJVd6ZYIFMn7QWzai-8" style="edgeStyle=orthogonalEdgeStyle;rounded=0;orthogonalLoop=1;jettySize=auto;html=1;exitX=0;exitY=0.5;exitDx=0;exitDy=0;entryX=1;entryY=0.5;entryDx=0;entryDy=0;fontFamily=Times New Roman;fontSize=14;" parent="1" source="nNQXx-ZQJlEM0W2rjv_R-20" target="CC2tJVd6ZYIFMn7QWzai-1" edge="1">
          <mxGeometry relative="1" as="geometry" />
        </mxCell>
        <mxCell id="nNQXx-ZQJlEM0W2rjv_R-20" value="" style="shape=image;verticalLabelPosition=bottom;labelBackgroundColor=default;verticalAlign=top;aspect=fixed;imageAspect=0;image=data:image/svg+xml,PHN2ZyB4bWxuczp4bGluaz0iaHR0cDovL3d3dy53My5vcmcvMTk5OS94bGluayIgeG1sbnM9Imh0dHA6Ly93d3cudzMub3JnLzIwMDAvc3ZnIiBoZWlnaHQ9IjIwMCIgd2lkdGg9IjIwMCIgdmVyc2lvbj0iMS4xIiB2aWV3Qm94PSIwIDAgMTAyNCAxMDI0IiBjbGFzcz0iaWNvbiI+PHBhdGggZD0iTTMyNy44IDQ3LjhDMzEyLjIgMzguMSAyOTQuMSAzMyAyNzUuNyAzM2MtMTUuOSAwLTMxLjMgMy44LTQ1IDEwLjgtMTMuNyA3LTI1LjggMTcuMy0zNS4xIDMwLjFsLTExNy42IDE2M2MtOSAxMi40LTEzLjggMjcuNC0xMy44IDQyLjggMCAxMi42IDMuMiAyNC43IDkuMSAzNS4zIDUuOSAxMC43IDE0LjQgMTkuOCAyNS4xIDI2LjVsNjI5LjYgMzk1LjNjMTUuOCA5LjkgMzQuMSAxNS4yIDUyLjggMTUuMiAxNi4xIDAgMzEuNy0zLjkgNDUuNy0xMS4xIDEzLjktNy4yIDI2LjEtMTcuNyAzNS40LTMwLjlMMTAyNC4yIDQ4MCAzMjcuOCA0Ny44eiBtNDgxLjggNjI1LjNjLTYuNiA5LjQtMTcuMyAxNC45LTI4LjggMTQuOS0zLjMgMC02LjYtMC41LTkuOC0xLjQtMy4yLTAuOS02LjItMi4zLTktNEwxMzIuNCAyODcuM2MtMi42LTEuNy00LjItNC42LTQuMi03LjcgMC0xLjkgMC42LTMuOCAxLjctNS4zbDExNy42LTE2M2M2LjUtOSAxNy0xNC40IDI4LjItMTQuNCAzLjIgMCA2LjUgMC41IDkuNSAxLjMgMy4xIDAuOSA2IDIuMiA4LjggMy45bDYzOC43IDM5Ni40LTEyMy4xIDE3NC42ek03NTQuMSA3NjhjLTExLjEgMC0yMi0xLjUtMzIuNi00LjUtMTAuNi0zLTIwLjctNy40LTMwLjItMTMuMmwtNjExLjgtMzczYy02LjctNC4xLTE1LjMgMC43LTE1LjMgOC42djIyLjZjMCAxNC42IDcuNiAyOC4yIDIwIDM1LjhsMTgyLjUgMTEyLjNDMjQxLjIgNTcyIDIyNC4yIDYwMCAyMjQuMiA2MzJjMCAyMC4yIDYuOCAzOC44IDE4LjMgNTMuN2E2Mi41MTggNjIuNTE4IDAgMCAxLTQ0LjIgMTguM0g2NC4ydi00Ni44YzAtMjktMTkuNS01NC40LTQ3LjYtNjEuOUwwLjIgNTkxbC0wLjIgMzY5IDI4LjgtMTQuM2MyMS43LTEwLjggMzUuNS0zMyAzNS41LTU3LjNWNzY4aDEzNS41YzI1LjkgMCA1MC44LTEwLjMgNjkuMi0yOC43bDMuMS0zLjFjMTAuNi0xMC42IDI1LTE2LjMgNDAtMTYuM2gwLjJjNDYuNCAwIDg0LjQtMzUuOSA4Ny44LTgxLjRMNjc0LjIgODA3LjJjOS4yIDUuNyAxOS45IDguNyAzMC43IDguNyA5LjggMCAxOS4zLTIuNSAyNy43LTYuOSA4LjQtNC41IDE1LjctMTEgMjEuMS0xOS4ybDYuOC0xMC4xYzMuMi01LTAuNC0xMS43LTYuNC0xMS43ek0zMTIuMiA2NTZjLTEzLjIgMC0yNC0xMC44LTI0LTI0czEwLjgtMjQgMjQtMjQgMjQgMTAuOCAyNCAyNC0xMC44IDI0LTI0IDI0eiIvPjwvc3ZnPg==;rounded=0;fontFamily=Times New Roman;fontSize=14;" parent="1" vertex="1">
          <mxGeometry x="-600" y="475" width="20" height="20" as="geometry" />
        </mxCell>
        <mxCell id="1w-lBArUNMY6uGgX4F4p-1" value="" style="shape=image;verticalLabelPosition=bottom;labelBackgroundColor=none;verticalAlign=top;aspect=fixed;imageAspect=0;image=data:image/svg+xml,PHN2ZyB4bWxuczp4bGluaz0iaHR0cDovL3d3dy53My5vcmcvMTk5OS94bGluayIgeG1sbnM9Imh0dHA6Ly93d3cudzMub3JnLzIwMDAvc3ZnIiBoZWlnaHQ9IjIwMCIgd2lkdGg9IjIwMCIgdmVyc2lvbj0iMS4xIiB2aWV3Qm94PSIwIDAgMTAyNCAxMDI0IiBjbGFzcz0iaWNvbiI+PHBhdGggZD0iTTY2OS45IDIyNi43bC01Mi42IDM2LjRDNjMyIDI4NC40IDY0MCAzMDkuNiA2NDAgMzM2cy04IDUxLjYtMjIuNyA3Mi45bDUyLjYgMzYuNGMyMS41LTMxIDM0LjEtNjguNyAzNC4xLTEwOS4zcy0xMi42LTc4LjMtMzQuMS0xMDkuM3ogbS0zMTUuOCAwYy0yMS41IDMxLTM0LjEgNjguNy0zNC4xIDEwOS4zczEyLjYgNzguMyAzNC4xIDEwOS4zbDUyLjYtMzYuNEMzOTIgMzg3LjYgMzg0IDM2Mi40IDM4NCAzMzZzOC01MS42IDIyLjctNzIuOWwtNTIuNi0zNi40ek03NjIuNCAxNjIuNkw3MDkuOCAxOTljOS4xIDEzLjMgMTYuOCAyNy40IDIzLjEgNDIuNCAxMi43IDI5LjkgMTkuMSA2MS43IDE5LjEgOTQuNiAwIDMyLjgtNi40IDY0LjYtMTkuMSA5NC42LTYuMyAxNC45LTE0IDI5LjEtMjMuMSA0Mi40bDUyLjYgMzYuNEM3OTYuMiA0NjAgODE2IDQwMC4zIDgxNiAzMzZzLTE5LjgtMTI0LTUzLjYtMTczLjR6IG0tNDUyLjIgMzMuN2wtNTIuNi0zNi40QzIyMi41IDIwOS43IDIwMiAyNzAuNSAyMDIgMzM2czIwLjUgMTI2LjMgNTUuNSAxNzYuMmw1Mi42LTM2LjRjLTkuOS0xNC4xLTE4LjMtMjkuMi0yNS4xLTQ1LjItMTIuNi0zMC0xOS02MS44LTE5LTk0LjZzNi40LTY0LjcgMTkuMS05NC42YzYuNy0xNiAxNS4xLTMxLjEgMjUuMS00NS4xek04ODEuOCA4MGwtNTIuNiAzNi40YzE0LjQgMjEgMjYuNyA0My41IDM2LjcgNjcuMSAyMCA0Ny4zIDMwLjIgOTcuNiAzMC4yIDE0OS41Uzg4NiA0MzUuMSA4NjUuOSA0ODIuNWMtMTAuNyAyNS4yLTIzLjkgNDktMzkuNSA3MS4yTDg3OSA1OTBjNTEuMS03Mi44IDgxLTE2MS40IDgxLTI1NyAwLTkzLjktMjguOS0xODEtNzguMi0yNTN6TTEyOCAzMzNjMC01MS45IDEwLjEtMTAyLjIgMzAuMi0xNDkuNSAxMC0yMy43IDIyLjMtNDYuMSAzNi43LTY3LjFMMTQyLjIgODBDOTIuOSAxNTIgNjQgMjM5LjEgNjQgMzMzYzAgOTUuNiAzMCAxODQuMyA4MSAyNTdsNTIuNi0zNi40Yy0xNS42LTIyLjItMjguOC00Ni0zOS41LTcxLjItMjAtNDcuMy0zMC4xLTk3LjUtMzAuMS0xNDkuNHpNODQ4IDczNmMtMjYuNSAwLTQ4IDIxLjUtNDggNDhzMjEuNSA0OCA0OCA0OCA0OC0yMS41IDQ4LTQ4LTIxLjUtNDgtNDgtNDh6TTcyMCA3MzZjLTI2LjUgMC00OCAyMS41LTQ4IDQ4czIxLjUgNDggNDggNDggNDgtMjEuNSA0OC00OC0yMS41LTQ4LTQ4LTQ4ek01OTIgNzUyYy0xNy43IDAtMzIgMTQuMy0zMiAzMnMxNC4zIDMyIDMyIDMyIDMyLTE0LjMgMzItMzItMTQuMy0zMi0zMi0zMnpNMTI4IDc1MmgzNTJ2NjRIMTI4eiIvPjxwYXRoIGQ9Ik0xMDA4IDY0MEg1NzZjLTE3LjcgMC0zMi0xNC4zLTMyLTMyVjMyMGMwLTE3LjctMTQuMy0zMi0zMi0zMnMtMzIgMTQuMy0zMiAzMnYyODhjMCAxNy43LTE0LjMgMzItMzIgMzJIMTZjLTguOCAwLTE2IDcuMi0xNiAxNnYyNTZjMCA4LjggNy4yIDE2IDE2IDE2aDk5MmM4LjggMCAxNi03LjIgMTYtMTZWNjU2YzAtOC44LTcuMi0xNi0xNi0xNnogbS00OCAyMjBjMCAyLjItMS44IDQtNCA0SDY4Yy0yLjIgMC00LTEuOC00LTRWNzA4YzAtMi4yIDEuOC00IDQtNGg4ODhjMi4yIDAgNCAxLjggNCA0djE1MnoiLz48L3N2Zz4=;rounded=0;fontFamily=Times New Roman;fontSize=14;" parent="1" vertex="1">
          <mxGeometry x="-780" y="405" width="50" height="50" as="geometry" />
        </mxCell>
        <mxCell id="CC2tJVd6ZYIFMn7QWzai-11" style="edgeStyle=orthogonalEdgeStyle;rounded=0;orthogonalLoop=1;jettySize=auto;html=1;exitX=0;exitY=0.5;exitDx=0;exitDy=0;entryX=1;entryY=0.7;entryDx=0;entryDy=0;entryPerimeter=0;fontFamily=Times New Roman;fontSize=14;" parent="1" source="CC2tJVd6ZYIFMn7QWzai-2" target="1w-lBArUNMY6uGgX4F4p-1" edge="1">
          <mxGeometry relative="1" as="geometry" />
        </mxCell>
        <mxCell id="CC2tJVd6ZYIFMn7QWzai-2" value="" style="shape=image;verticalLabelPosition=bottom;labelBackgroundColor=none;verticalAlign=top;aspect=fixed;imageAspect=0;image=data:image/svg+xml,PHN2ZyB4bWxuczp4bGluaz0iaHR0cDovL3d3dy53My5vcmcvMTk5OS94bGluayIgeG1sbnM9Imh0dHA6Ly93d3cudzMub3JnLzIwMDAvc3ZnIiBoZWlnaHQ9IjIwMCIgd2lkdGg9IjIwMCIgdmVyc2lvbj0iMS4xIiB2aWV3Qm94PSIwIDAgMTAyNCAxMDI0IiBjbGFzcz0iaWNvbiI+PHBhdGggZmlsbD0iIiBkPSJNODY0IDI1NS4xMDRINzMwLjE0OHYtNjAuNTU2YzAtMTcuNjczLTE0LjMyNy0zMi0zMi0zMmgtMjEuODYxdi0zMS42NjljMC0xNy42NzMtMTQuMzI3LTMyLTMyLTMySDM4MS43MTNjLTE3LjY3MyAwLTMyIDE0LjMyNy0zMiAzMnYzMS42NjloLTIxLjg2MWMtMTcuNjczIDAtMzIgMTQuMzI3LTMyIDMydjYwLjU1NkgxNjBjLTE3LjY3MyAwLTMyIDE0LjMyNy0zMiAzMnY1MTguNzI3YzAgMTcuNjczIDE0LjMyNyAzMiAzMiAzMmg3MDRjMTcuNjczIDAgMzItMTQuMzI3IDMyLTMyVjI4Ny4xMDRjMC0xNy42NzMtMTQuMzI3LTMyLTMyLTMyeiBtLTMyIDUxOC43MjdIMTkyVjMxOS4xMDRoMTM1Ljg1MmMxNy42NzMgMCAzMi0xNC4zMjcgMzItMzJ2LTYwLjU1NmgyMS44NjFjMTcuNjczIDAgMzItMTQuMzI3IDMyLTMydi0zMS42NjloMTk4LjU3NHYzMS42NjljMCAxNy42NzMgMTQuMzI3IDMyIDMyIDMyaDIxLjg2MXY2MC41NTZjMCAxNy42NzMgMTQuMzI3IDMyIDMyIDMySDgzMnY0NTQuNzI3eiIvPjxwYXRoIGZpbGw9IiIgZD0iTTI1Ni41NTIgNDE1LjE0NHYyNTUuODIyYzAgMTcuNjczIDE0LjMyNyAzMiAzMiAzMmg0NDcuOTdjMTcuNjczIDAgMzItMTQuMzI3IDMyLTMyVjQxNS4xNDRjMC0xNy42NzMtMTQuMzI3LTMyLTMyLTMyaC00NDcuOTdjLTE3LjY3MyAwLTMyIDE0LjMyNi0zMiAzMnogbTY0IDMyaDM4My45N3YxOTEuODIySDY2My4wOVY1ODMuNDRjMC0xNy42NzMtMTQuMzI3LTMyLTMyLTMycy0zMiAxNC4zMjctMzIgMzJ2NTUuNTI1aC01My4yNjFWNTgzLjQ0YzAtMTcuNjczLTE0LjMyNy0zMi0zMi0zMnMtMzIgMTQuMzI3LTMyIDMydjU1LjUyNWgtNTAuNDU1VjU4My40NGMwLTE3LjY3My0xNC4zMjctMzItMzItMzJzLTMyIDE0LjMyNy0zMiAzMnY1NS41MjVoLTQ2LjgyMlY0NDcuMTQ0eiIvPjwvc3ZnPg==;fontFamily=Times New Roman;fontSize=14;" parent="1" vertex="1">
          <mxGeometry x="-680" y="430" width="20" height="20" as="geometry" />
        </mxCell>
        <mxCell id="CC2tJVd6ZYIFMn7QWzai-9" style="edgeStyle=orthogonalEdgeStyle;rounded=0;orthogonalLoop=1;jettySize=auto;html=1;exitX=0;exitY=0.5;exitDx=0;exitDy=0;fontFamily=Times New Roman;fontSize=14;" parent="1" source="CC2tJVd6ZYIFMn7QWzai-1" target="1w-lBArUNMY6uGgX4F4p-1" edge="1">
          <mxGeometry relative="1" as="geometry" />
        </mxCell>
        <mxCell id="CC2tJVd6ZYIFMn7QWzai-1" value="" style="shape=image;html=1;verticalAlign=top;verticalLabelPosition=bottom;labelBackgroundColor=none;imageAspect=0;aspect=fixed;image=https://cdn4.iconfinder.com/data/icons/ionicons/512/icon-wifi-128.png;sketch=1;hachureGap=4;jiggle=2;curveFitting=1;fontFamily=Times New Roman;fontSize=14;" parent="1" vertex="1">
          <mxGeometry x="-680" y="475" width="20" height="20" as="geometry" />
        </mxCell>
        <mxCell id="CC2tJVd6ZYIFMn7QWzai-6" style="edgeStyle=orthogonalEdgeStyle;rounded=0;orthogonalLoop=1;jettySize=auto;html=1;exitX=0;exitY=0.5;exitDx=0;exitDy=0;entryX=1;entryY=0.5;entryDx=0;entryDy=0;fontFamily=Times New Roman;fontSize=14;" parent="1" source="CC2tJVd6ZYIFMn7QWzai-5" target="nNQXx-ZQJlEM0W2rjv_R-3" edge="1">
          <mxGeometry relative="1" as="geometry" />
        </mxCell>
        <mxCell id="CC2tJVd6ZYIFMn7QWzai-5" value="" style="shape=image;verticalLabelPosition=bottom;labelBackgroundColor=default;verticalAlign=top;aspect=fixed;imageAspect=0;image=data:image/svg+xml,PHN2ZyB4bWxuczp4bGluaz0iaHR0cDovL3d3dy53My5vcmcvMTk5OS94bGluayIgeG1sbnM9Imh0dHA6Ly93d3cudzMub3JnLzIwMDAvc3ZnIiBoZWlnaHQ9IjIwMCIgd2lkdGg9IjIwMCIgdmVyc2lvbj0iMS4xIiB2aWV3Qm94PSIwIDAgMTAyNCAxMDI0IiBjbGFzcz0iaWNvbiI+PHBhdGggZD0iTTMyNy44IDQ3LjhDMzEyLjIgMzguMSAyOTQuMSAzMyAyNzUuNyAzM2MtMTUuOSAwLTMxLjMgMy44LTQ1IDEwLjgtMTMuNyA3LTI1LjggMTcuMy0zNS4xIDMwLjFsLTExNy42IDE2M2MtOSAxMi40LTEzLjggMjcuNC0xMy44IDQyLjggMCAxMi42IDMuMiAyNC43IDkuMSAzNS4zIDUuOSAxMC43IDE0LjQgMTkuOCAyNS4xIDI2LjVsNjI5LjYgMzk1LjNjMTUuOCA5LjkgMzQuMSAxNS4yIDUyLjggMTUuMiAxNi4xIDAgMzEuNy0zLjkgNDUuNy0xMS4xIDEzLjktNy4yIDI2LjEtMTcuNyAzNS40LTMwLjlMMTAyNC4yIDQ4MCAzMjcuOCA0Ny44eiBtNDgxLjggNjI1LjNjLTYuNiA5LjQtMTcuMyAxNC45LTI4LjggMTQuOS0zLjMgMC02LjYtMC41LTkuOC0xLjQtMy4yLTAuOS02LjItMi4zLTktNEwxMzIuNCAyODcuM2MtMi42LTEuNy00LjItNC42LTQuMi03LjcgMC0xLjkgMC42LTMuOCAxLjctNS4zbDExNy42LTE2M2M2LjUtOSAxNy0xNC40IDI4LjItMTQuNCAzLjIgMCA2LjUgMC41IDkuNSAxLjMgMy4xIDAuOSA2IDIuMiA4LjggMy45bDYzOC43IDM5Ni40LTEyMy4xIDE3NC42ek03NTQuMSA3NjhjLTExLjEgMC0yMi0xLjUtMzIuNi00LjUtMTAuNi0zLTIwLjctNy40LTMwLjItMTMuMmwtNjExLjgtMzczYy02LjctNC4xLTE1LjMgMC43LTE1LjMgOC42djIyLjZjMCAxNC42IDcuNiAyOC4yIDIwIDM1LjhsMTgyLjUgMTEyLjNDMjQxLjIgNTcyIDIyNC4yIDYwMCAyMjQuMiA2MzJjMCAyMC4yIDYuOCAzOC44IDE4LjMgNTMuN2E2Mi41MTggNjIuNTE4IDAgMCAxLTQ0LjIgMTguM0g2NC4ydi00Ni44YzAtMjktMTkuNS01NC40LTQ3LjYtNjEuOUwwLjIgNTkxbC0wLjIgMzY5IDI4LjgtMTQuM2MyMS43LTEwLjggMzUuNS0zMyAzNS41LTU3LjNWNzY4aDEzNS41YzI1LjkgMCA1MC44LTEwLjMgNjkuMi0yOC43bDMuMS0zLjFjMTAuNi0xMC42IDI1LTE2LjMgNDAtMTYuM2gwLjJjNDYuNCAwIDg0LjQtMzUuOSA4Ny44LTgxLjRMNjc0LjIgODA3LjJjOS4yIDUuNyAxOS45IDguNyAzMC43IDguNyA5LjggMCAxOS4zLTIuNSAyNy43LTYuOSA4LjQtNC41IDE1LjctMTEgMjEuMS0xOS4ybDYuOC0xMC4xYzMuMi01LTAuNC0xMS43LTYuNC0xMS43ek0zMTIuMiA2NTZjLTEzLjIgMC0yNC0xMC44LTI0LTI0czEwLjgtMjQgMjQtMjQgMjQgMTAuOCAyNCAyNC0xMC44IDI0LTI0IDI0eiIvPjwvc3ZnPg==;rounded=0;fontFamily=Times New Roman;fontSize=14;" parent="1" vertex="1">
          <mxGeometry x="-590" y="580" width="20" height="20" as="geometry" />
        </mxCell>
        <mxCell id="MM1KDcKoI-MTzxc4Ed4U-9" style="edgeStyle=orthogonalEdgeStyle;rounded=0;orthogonalLoop=1;jettySize=auto;html=1;exitX=1;exitY=0.5;exitDx=0;exitDy=0;entryX=0;entryY=0.5;entryDx=0;entryDy=0;fontFamily=Times New Roman;fontSize=14;" parent="1" source="MM1KDcKoI-MTzxc4Ed4U-1" target="MM1KDcKoI-MTzxc4Ed4U-7" edge="1">
          <mxGeometry relative="1" as="geometry" />
        </mxCell>
        <mxCell id="MM1KDcKoI-MTzxc4Ed4U-1" value="Edge Computing" style="swimlane;hachureGap=4;fontFamily=Times New Roman;fontSize=14;" parent="1" vertex="1">
          <mxGeometry x="-830" y="270" width="170" height="130" as="geometry" />
        </mxCell>
        <mxCell id="MM1KDcKoI-MTzxc4Ed4U-2" value="" style="shape=image;verticalLabelPosition=bottom;labelBackgroundColor=default;verticalAlign=top;aspect=fixed;imageAspect=0;image=data:image/svg+xml,PHN2ZyB4bWxuczp4bGluaz0iaHR0cDovL3d3dy53My5vcmcvMTk5OS94bGluayIgeG1sbnM9Imh0dHA6Ly93d3cudzMub3JnLzIwMDAvc3ZnIiBoZWlnaHQ9IjIwMCIgd2lkdGg9IjIwMCIgdmVyc2lvbj0iMS4xIiB2aWV3Qm94PSIwIDAgMTAyNCAxMDI0IiBjbGFzcz0iaWNvbiI+PHBhdGggZmlsbD0iIzM4NDI0NCIgZD0iTTE4OC45NjYgMjA0LjQwOGg2MDAuNTQxdjYwMC41MjhIMTg4Ljk2NnoiLz48cGF0aCBmaWxsPSIjRkZGRkZGIiBkPSJNMjY4LjEwMSAyODMuNTNoNDQyLjI3M3Y0NDIuMjgxSDI2OC4xMDF6Ii8+PHBhdGggZmlsbD0iIzY5NkY2RiIgZD0iTTMwMi43NzggMTE4LjM2NmgyMi41ODd2ODYuMDQyaC0yMi41ODd6TTM1Mi44MjEgMTE4LjM2NmgyMi41OTZ2ODYuMDQyaC0yMi41OTZ6TTQwMi44NzcgMTE4LjM2NmgyMi41ODh2ODYuMDQyaC0yMi41ODh6TTQ1Mi45MiAxMTguMzY2aDIyLjU4OHY4Ni4wNDJINDUyLjkyek01MDIuOTY2IDExOC4zNjZoMjIuNTk2djg2LjA0MmgtMjIuNTk2ek01NTMuMDEzIDExOC4zNjZoMjIuNTkxdjg2LjA0MmgtMjIuNTkxek02MDMuMDU2IDExOC4zNjZoMjIuNTk5djg2LjA0MmgtMjIuNTk5ek02NTMuMTA4IDExOC4zNjZoMjIuNTl2ODYuMDQyaC0yMi41OXoiLz48cGF0aCBmaWxsPSIjNjk2RjZGIiBkPSJNMzAyLjc3OCA4MDQuOTM2aDIyLjU4N3Y4Ni4wMzFoLTIyLjU4N3pNMzUyLjgyMSA4MDQuOTM2aDIyLjU5NnY4Ni4wMzFoLTIyLjU5NnpNNDAyLjg3NyA4MDQuOTM2aDIyLjU4OHY4Ni4wMzFoLTIyLjU4OHpNNDUyLjkyIDgwNC45MzZoMjIuNTg4djg2LjAzMUg0NTIuOTJ6TTUwMi45NjYgODA0LjkzNmgyMi41OTZ2ODYuMDMxaC0yMi41OTZ6TTU1My4wMTMgODA0LjkzNmgyMi41OTF2ODYuMDMxaC0yMi41OTF6TTYwMy4wNTYgODA0LjkzNmgyMi41OTl2ODYuMDMxaC0yMi41OTl6TTY1My4xMDggODA0LjkzNmgyMi41OXY4Ni4wMzFoLTIyLjU5eiIvPjxwYXRoIGZpbGw9IiM2OTZGNkYiIGQ9Ik03ODkuNTA3IDMxOC4yMDhoODYuMDMydjIyLjU4OGgtODYuMDMyek03ODkuNTA3IDM2OC4yNTRoODYuMDMydjIyLjU4OGgtODYuMDMyek03ODkuNTA3IDQxOC4zaDg2LjAzMnYyMi41OTVoLTg2LjAzMnpNNzg5LjUwNyA0NjguMzU0aDg2LjAzMnYyMi41ODVoLTg2LjAzMnpNNzg5LjUwNyA1MTguMzk1aDg2LjAzMnYyMi41OWgtODYuMDMyek03ODkuNTA3IDU2OC40NDNoODYuMDMydjIyLjU5MmgtODYuMDMyek03ODkuNTA3IDYxOC40OWg4Ni4wMzJ2MjIuNTk0aC04Ni4wMzJ6TTc4OS41MDcgNjY4LjUzOWg4Ni4wMzJ2MjIuNTg4aC04Ni4wMzJ6Ii8+PHBhdGggZmlsbD0iIzY5NkY2RiIgZD0iTTEwMi45MzYgMzE4LjIwOGg4Ni4wM3YyMi41ODhoLTg2LjAzek0xMDIuOTM2IDM2OC4yNTRoODYuMDN2MjIuNTg4aC04Ni4wM3pNMTAyLjkzNiA0MTguM2g4Ni4wM3YyMi41OTVoLTg2LjAzek0xMDIuOTM2IDQ2OC4zNTRoODYuMDN2MjIuNTg1aC04Ni4wM3pNMTAyLjkzNiA1MTguMzk1aDg2LjAzdjIyLjU5aC04Ni4wM3pNMTAyLjkzNiA1NjguNDQzaDg2LjAzdjIyLjU5MmgtODYuMDN6TTEwMi45MzYgNjE4LjQ5aDg2LjAzdjIyLjU5NGgtODYuMDN6TTEwMi45MzYgNjY4LjUzOWg4Ni4wM3YyMi41ODhoLTg2LjAzeiIvPjxwYXRoIGZpbGw9IiMyMUE0RDQiIGQ9Ik0zMjEuNiA0NDIuNTcxaDg0LjQ1NnYyNi40OTlIMzIxLjZ6TTMyMS42IDU0MC4yNzVoODQuNDU2djI2LjQ5NkgzMjEuNnoiLz48cGF0aCBmaWxsPSIjMjFBNEQ0IiBkPSJNMzE5LjYyOSA0NDIuNTcxaDI2LjQ5NnYxMjQuMmgtMjYuNDk2eiIvPjxwYXRoIGZpbGw9IiMyMUE0RDQiIGQ9Ik01NjEuMTQ0IDQ0Mi4wMTdoMjYuNDk2djEyNS4zMDFoLTI2LjQ5NnpNNjMyLjM1IDQ0Mi4wMTdoMjYuNDk2djEyNS4zMDFINjMyLjM1eiIvPjxwYXRoIGZpbGw9IiMyMUE0RDQiIGQ9Ik01NjEuMTQ0IDU0MC44MjJoOTcuNzAydjI2LjQ5NmgtOTcuNzAyeiIvPjxwYXRoIGZpbGw9IiMyMUE0RDQiIGQ9Ik00MzQuODI5IDQ0Mi41NzFoODQuNDUydjI2LjQ5OWgtODQuNDUyek00MzQuODI5IDQ5OC4wNDRoOTcuNzAydjI2LjQ5M2gtOTcuNzAyeiIvPjxwYXRoIGZpbGw9IiMyMUE0RDQiIGQ9Ik00MzIuODYgNDQyLjU3MWgyNi40OTR2MTI0LjJINDMyLjg2ek01MTMuNDg4IDQ0Mi41NzFoMjYuNDk0djgxLjk2NmgtMjYuNDk0eiIvPjwvc3ZnPg==;fontFamily=Times New Roman;fontSize=14;" parent="MM1KDcKoI-MTzxc4Ed4U-1" vertex="1">
          <mxGeometry y="30" width="55" height="55" as="geometry" />
        </mxCell>
        <mxCell id="MM1KDcKoI-MTzxc4Ed4U-3" value="" style="shape=image;verticalLabelPosition=bottom;labelBackgroundColor=default;verticalAlign=top;aspect=fixed;imageAspect=0;image=data:image/svg+xml,PHN2ZyB4bWxuczp4bGluaz0iaHR0cDovL3d3dy53My5vcmcvMTk5OS94bGluayIgeG1sbnM9Imh0dHA6Ly93d3cudzMub3JnLzIwMDAvc3ZnIiBoZWlnaHQ9IjIwMCIgd2lkdGg9IjIwMCIgdmVyc2lvbj0iMS4xIiB2aWV3Qm94PSIwIDAgMTAyNCAxMDI0IiBjbGFzcz0iaWNvbiI+PHBhdGggZmlsbD0iIzM4NDI0NCIgZD0iTTE4OC45NjYgMjA0LjQwOGg2MDAuNTQxdjYwMC41MjhIMTg4Ljk2NnoiLz48cGF0aCBmaWxsPSIjRkZGRkZGIiBkPSJNMjY4LjEwMSAyODMuNTNoNDQyLjI3M3Y0NDIuMjgxSDI2OC4xMDF6Ii8+PHBhdGggZmlsbD0iIzY5NkY2RiIgZD0iTTMwMi43NzggMTE4LjM2NmgyMi41ODd2ODYuMDQyaC0yMi41ODd6TTM1Mi44MjEgMTE4LjM2NmgyMi41OTZ2ODYuMDQyaC0yMi41OTZ6TTQwMi44NzcgMTE4LjM2NmgyMi41ODh2ODYuMDQyaC0yMi41ODh6TTQ1Mi45MiAxMTguMzY2aDIyLjU4OHY4Ni4wNDJINDUyLjkyek01MDIuOTY2IDExOC4zNjZoMjIuNTk2djg2LjA0MmgtMjIuNTk2ek01NTMuMDEzIDExOC4zNjZoMjIuNTkxdjg2LjA0MmgtMjIuNTkxek02MDMuMDU2IDExOC4zNjZoMjIuNTk5djg2LjA0MmgtMjIuNTk5ek02NTMuMTA4IDExOC4zNjZoMjIuNTl2ODYuMDQyaC0yMi41OXoiLz48cGF0aCBmaWxsPSIjNjk2RjZGIiBkPSJNMzAyLjc3OCA4MDQuOTM2aDIyLjU4N3Y4Ni4wMzFoLTIyLjU4N3pNMzUyLjgyMSA4MDQuOTM2aDIyLjU5NnY4Ni4wMzFoLTIyLjU5NnpNNDAyLjg3NyA4MDQuOTM2aDIyLjU4OHY4Ni4wMzFoLTIyLjU4OHpNNDUyLjkyIDgwNC45MzZoMjIuNTg4djg2LjAzMUg0NTIuOTJ6TTUwMi45NjYgODA0LjkzNmgyMi41OTZ2ODYuMDMxaC0yMi41OTZ6TTU1My4wMTMgODA0LjkzNmgyMi41OTF2ODYuMDMxaC0yMi41OTF6TTYwMy4wNTYgODA0LjkzNmgyMi41OTl2ODYuMDMxaC0yMi41OTl6TTY1My4xMDggODA0LjkzNmgyMi41OXY4Ni4wMzFoLTIyLjU5eiIvPjxwYXRoIGZpbGw9IiM2OTZGNkYiIGQ9Ik03ODkuNTA3IDMxOC4yMDhoODYuMDMydjIyLjU4OGgtODYuMDMyek03ODkuNTA3IDM2OC4yNTRoODYuMDMydjIyLjU4OGgtODYuMDMyek03ODkuNTA3IDQxOC4zaDg2LjAzMnYyMi41OTVoLTg2LjAzMnpNNzg5LjUwNyA0NjguMzU0aDg2LjAzMnYyMi41ODVoLTg2LjAzMnpNNzg5LjUwNyA1MTguMzk1aDg2LjAzMnYyMi41OWgtODYuMDMyek03ODkuNTA3IDU2OC40NDNoODYuMDMydjIyLjU5MmgtODYuMDMyek03ODkuNTA3IDYxOC40OWg4Ni4wMzJ2MjIuNTk0aC04Ni4wMzJ6TTc4OS41MDcgNjY4LjUzOWg4Ni4wMzJ2MjIuNTg4aC04Ni4wMzJ6Ii8+PHBhdGggZmlsbD0iIzY5NkY2RiIgZD0iTTEwMi45MzYgMzE4LjIwOGg4Ni4wM3YyMi41ODhoLTg2LjAzek0xMDIuOTM2IDM2OC4yNTRoODYuMDN2MjIuNTg4aC04Ni4wM3pNMTAyLjkzNiA0MTguM2g4Ni4wM3YyMi41OTVoLTg2LjAzek0xMDIuOTM2IDQ2OC4zNTRoODYuMDN2MjIuNTg1aC04Ni4wM3pNMTAyLjkzNiA1MTguMzk1aDg2LjAzdjIyLjU5aC04Ni4wM3pNMTAyLjkzNiA1NjguNDQzaDg2LjAzdjIyLjU5MmgtODYuMDN6TTEwMi45MzYgNjE4LjQ5aDg2LjAzdjIyLjU5NGgtODYuMDN6TTEwMi45MzYgNjY4LjUzOWg4Ni4wM3YyMi41ODhoLTg2LjAzeiIvPjxwYXRoIGZpbGw9IiMyMUE0RDQiIGQ9Ik0zMjEuNiA0NDIuNTcxaDg0LjQ1NnYyNi40OTlIMzIxLjZ6TTMyMS42IDU0MC4yNzVoODQuNDU2djI2LjQ5NkgzMjEuNnoiLz48cGF0aCBmaWxsPSIjMjFBNEQ0IiBkPSJNMzE5LjYyOSA0NDIuNTcxaDI2LjQ5NnYxMjQuMmgtMjYuNDk2eiIvPjxwYXRoIGZpbGw9IiMyMUE0RDQiIGQ9Ik01NjEuMTQ0IDQ0Mi4wMTdoMjYuNDk2djEyNS4zMDFoLTI2LjQ5NnpNNjMyLjM1IDQ0Mi4wMTdoMjYuNDk2djEyNS4zMDFINjMyLjM1eiIvPjxwYXRoIGZpbGw9IiMyMUE0RDQiIGQ9Ik01NjEuMTQ0IDU0MC44MjJoOTcuNzAydjI2LjQ5NmgtOTcuNzAyeiIvPjxwYXRoIGZpbGw9IiMyMUE0RDQiIGQ9Ik00MzQuODI5IDQ0Mi41NzFoODQuNDUydjI2LjQ5OWgtODQuNDUyek00MzQuODI5IDQ5OC4wNDRoOTcuNzAydjI2LjQ5M2gtOTcuNzAyeiIvPjxwYXRoIGZpbGw9IiMyMUE0RDQiIGQ9Ik00MzIuODYgNDQyLjU3MWgyNi40OTR2MTI0LjJINDMyLjg2ek01MTMuNDg4IDQ0Mi41NzFoMjYuNDk0djgxLjk2NmgtMjYuNDk0eiIvPjwvc3ZnPg==;fontFamily=Times New Roman;fontSize=14;" parent="MM1KDcKoI-MTzxc4Ed4U-1" vertex="1">
          <mxGeometry x="45" y="30" width="55" height="55" as="geometry" />
        </mxCell>
        <mxCell id="MM1KDcKoI-MTzxc4Ed4U-4" value="" style="shape=image;verticalLabelPosition=bottom;labelBackgroundColor=default;verticalAlign=top;aspect=fixed;imageAspect=0;image=data:image/svg+xml,PHN2ZyB4bWxuczp4bGluaz0iaHR0cDovL3d3dy53My5vcmcvMTk5OS94bGluayIgeG1sbnM9Imh0dHA6Ly93d3cudzMub3JnLzIwMDAvc3ZnIiBoZWlnaHQ9IjIwMCIgd2lkdGg9IjIwMCIgdmVyc2lvbj0iMS4xIiB2aWV3Qm94PSIwIDAgMTAyNCAxMDI0IiBjbGFzcz0iaWNvbiI+PHBhdGggZmlsbD0iIzM5NTQ5RiIgZD0iTTk2My43MTg3MzcgNTY3Ljk2OTY4NGMwLTMxLjYzNjIxMS0xOS4yNDA0MjEtNjguNDE5MzY4LTQyLjk1NDEwNS04Mi4xMDg2MzFMMTgxLjQ5MDUyNiA1OS4wNDE2ODRjLTIzLjcxMzY4NC0xMy42ODkyNjMtNDIuOTU0MTA1IDAuODYyMzE2LTQyLjk1NDEwNSAzMi40OTg1Mjd2MzYyLjgxOTM2OGMwIDMxLjYzNjIxMSAxOS4yNDA0MjEgNjguNDE5MzY4IDQyLjk1NDEwNSA4Mi4xMDg2MzJsNzM5LjI3NDEwNiA0MjYuODE5MzY4YzIzLjcxMzY4NCAxMy42ODkyNjMgNDIuOTU0MTA1LTAuODg5MjYzIDQyLjk1NDEwNS0zMi40OTg1MjZWNTY3Ljk2OTY4NHoiLz48cGF0aCBmaWxsPSIjMzk1NDlGIiBkPSJNNjYuMjM2NjMyIDEwNS4wOTQ3MzdsODguNDk1MTU3LTQ5LjAxNzI2MyAyMS4yMzQ1MjcgMzkuODAxMjYzLTM3LjQyOTg5NSA1MC41ODAyMUw2Ni4yMzY2MzIgMTA1LjA5NDczN3pNODY1LjI1MzA1MyAxMDEzLjc4Njk0N2w4NS4zMTUzNjgtNDkuMjU5Nzg5LTc3LjM5Mjg0Mi00OS43NDQ4NDItNy45MjI1MjYgOTkuMDA0NjMxeiIvPjxwYXRoIGZpbGw9IiMxODE3MUMiIGQ9Ik04ODAuODAxNjg0IDYxNS44MjgyMTFjMC0zMS42MDkyNjMtMTkuMjY3MzY4LTY4LjM5MjQyMS00Mi45ODEwNTItODIuMDgxNjg1TDk4LjU3MzQ3NCAxMDYuOTI3MTU4Qzc0Ljg1OTc4OSA5My4yMzc4OTUgNTUuNTkyNDIxIDEwNy43ODk0NzQgNTUuNTkyNDIxIDEzOS4zOTg3Mzd2MzYyLjg0NjMxNmMwIDMxLjYwOTI2MyAxOS4yNjczNjggNjguMzkyNDIxIDQyLjk4MTA1MyA4Mi4wODE2ODRsNzM5LjI0NzE1OCA0MjYuODE5MzY4YzIzLjcxMzY4NCAxMy42ODkyNjMgNDIuOTgxMDUzLTAuODYyMzE2IDQyLjk4MTA1Mi0zMi40NzE1NzlWNjE1LjgyODIxMXoiLz48cGF0aCBmaWxsPSIjNkQ4QUNBIiBkPSJNNDY3LjM0ODIxMSA1NTguMjY4NjMycy0xMjIuNTU2NjMyLTIzNC43NjU0NzQtMTc3LjkwNjUyNy0zMTYuMjU0MzE2Yy01LjMwODYzMi03LjgxNDczNy0yMS4yMDc1NzktMzQuNjU0MzE2LTI4LjI5NDczNy00MS40OTg5NDgtOC4wMDMzNjgtNy43MDY5NDctMjguNjcyLTE2LjU0NTY4NC0zNS4wNTg1MjYtMjAuMjM3NDczTDk2Ljg0ODg0MiAxMDUuNjYwNjMyQzczLjEzNTE1OCA5MS45NzEzNjggNTMuODk0NzM3IDEwNi41MjI5NDcgNTMuODk0NzM3IDEzOC4xNTkxNTh2MzYyLjgxOTM2OGMwIDMxLjYzNjIxMSAxOS4yNDA0MjEgNjguNDE5MzY4IDQyLjk1NDEwNSA4Mi4xMDg2MzJsMTQxLjk4NTY4NCA4MS45NDY5NDdjNy4yNDg4NDIgNC4yMDM3ODkgNDMuNTIgNS44MjA2MzIgNTQuNDA2NzM3IDIuNDI1MjYzIDM0LjQzODczNy0xMC43MjUwNTMgMTc0LjEwNjk0Ny04Ny40NzExNTggMTc0LjEwNjk0OC04Ny40NzExNTd2LTIxLjcxOTU3OXogbS0zMC45ODk0NzQtMTcuMDMwNzM3cy0xMDQuMTc4NTI2LTE5OS41NzIyMTEtMTUxLjIyODYzMi0yNjguODUzODk1Yy00LjUyNzE1OC02LjY1Ni0xOC4wMjc3ODktMjkuNDUzNDc0LTI0LjA2NC0zNS4zMDEwNTMtNi43OTA3MzctNi41NDgyMTEtMjQuMzg3MzY4LTE0LjA2NjUyNi0yOS44MDM3ODktMTcuMTkyNDIxTDEyMS4zOTc4OTUgMTU2LjQ1NjQyMWMtMjAuMTU2NjMyLTExLjY0MTI2My0zNi41MTM2ODQgMC43Mjc1NzktMzYuNTEzNjg0IDI3LjYyMTA1M3YzMDguNDY2NTI2YzAgMjYuODY2NTI2IDE2LjM1NzA1MyA1OC4xNTI0MjEgMzYuNTEzNjg0IDY5Ljc5MzY4NGwxMjAuNjk3MjYzIDY5LjY4NTg5NWM2LjE3MDk0NyAzLjU1NzA1MyAzNi45OTg3MzcgNC45MzEzNjggNDYuMjQxNjg0IDIuMDQ4IDI5LjI5MTc4OS05LjEwODIxMSAxNDguMDIxODk1LTc0LjM0Nzc4OSAxNDguMDIxODk1LTc0LjM0Nzc5di0xOC40ODU4OTR6Ii8+PHBhdGggZmlsbD0iIzZEOEFDQSIgZD0iTTQ2Ny4zNDgyMTEgNTU4LjUzODEwNXMxMjIuNTU2NjMyIDIzNC43NjU0NzQgMTc3LjkwNjUyNiAzMTYuMjU0MzE2YzUuMzA4NjMyIDcuODE0NzM3IDIxLjIwNzU3OSAzNC42NTQzMTYgMjguMjk0NzM3IDQxLjUyNTg5NSA4LjAwMzM2OCA3LjcwNjk0NyAyOC42NzIgMTYuNTQ1Njg0IDM1LjA1ODUyNiAyMC4yMzc0NzNsMTI5LjIxMjYzMiA3NC41OTAzMTZjMjMuNzEzNjg0IDEzLjY4OTI2MyA0Mi45ODEwNTMtMC44NjIzMTYgNDIuOTgxMDUyLTMyLjQ3MTU3OVY2MTUuODI4MjExYzAtMzEuNjA5MjYzLTE5LjI2NzM2OC02OC4zOTI0MjEtNDIuOTgxMDUyLTgyLjA4MTY4NWwtMTQxLjk1ODczNy04MS45NzM4OTRjLTcuMjQ4ODQyLTQuMjAzNzg5LTQzLjUyLTUuODIwNjMyLTU0LjQwNjczNy0yLjQyNTI2NC0zNC40Mzg3MzcgMTAuNzI1MDUzLTE3NC4xMDY5NDcgODcuNDcxMTU4LTE3NC4xMDY5NDcgODcuNDcxMTU4djIxLjcxOTU3OXogbTMwLjk4OTQ3MyAxNy4wMzA3MzdzMTA0LjE3ODUyNiAxOTkuNTcyMjExIDE1MS4yMjg2MzIgMjY4Ljg1Mzg5NWM0LjUyNzE1OCA2LjY1NiAxOC4wMjc3ODkgMjkuNDgwNDIxIDI0LjA2NCAzNS4zMDEwNTIgNi43OTA3MzcgNi41NDgyMTEgMjQuMzg3MzY4IDE0LjA2NjUyNiAyOS44MDM3ODkgMTcuMjE5MzY5bDEwOS44NjQ0MjEgNjMuNDA3MTU4YzIwLjE1NjYzMiAxMS42NDEyNjMgMzYuNTEzNjg0LTAuNzI3NTc5IDM2LjUxMzY4NS0yNy42MjEwNTNWNjI0LjI4OTY4NGMwLTI2Ljg5MzQ3NC0xNi4zNTcwNTMtNTguMTUyNDIxLTM2LjUxMzY4NS02OS43OTM2ODRsLTEyMC42OTcyNjMtNjkuNjg1ODk1Yy02LjE3MDk0Ny0zLjU4NC0zNi45OTg3MzctNC45NTgzMTYtNDYuMjQxNjg0LTIuMDc0OTQ3LTI5LjI5MTc4OSA5LjEzNTE1OC0xNDguMDIxODk1IDc0LjM3NDczNy0xNDguMDIxODk1IDc0LjM3NDczN3YxOC40NTg5NDd6Ii8+PHBhdGggZD0iTTQzNi4zNTg3MzcgNTQxLjIzNzg5NXMtMTA0LjE3ODUyNi0xOTkuNTcyMjExLTE1MS4yMjg2MzItMjY4Ljg1Mzg5NWMtNC41MjcxNTgtNi42NTYtMTguMDI3Nzg5LTI5LjQ1MzQ3NC0yNC4wNjQtMzUuMzAxMDUzLTYuNzkwNzM3LTYuNTQ4MjExLTI0LjM4NzM2OC0xNC4wNjY1MjYtMjkuODAzNzg5LTE3LjE5MjQyMUwxMjEuMzk3ODk1IDE1Ni40NTY0MjFjLTIwLjE1NjYzMi0xMS42NDEyNjMtMzYuNTEzNjg0IDAuNzI3NTc5LTM2LjUxMzY4NCAyNy42MjEwNTN2MzA4LjQ2NjUyNmMwIDI2Ljg2NjUyNiAxNi4zNTcwNTMgNTguMTUyNDIxIDM2LjUxMzY4NCA2OS43OTM2ODRsMTIwLjY5NzI2MyA2OS42ODU4OTVjNi4xNzA5NDcgMy41NTcwNTMgMzYuOTk4NzM3IDQuOTMxMzY4IDQ2LjI0MTY4NCAyLjA0OCAyOS4yOTE3ODktOS4xMDgyMTEgMTQ4LjAyMTg5NS03NC4zNDc3ODkgMTQ4LjAyMTg5NS03NC4zNDc3OXYtMTguNDg1ODk0ek00OTguMzM3Njg0IDU3NS41Njg4NDJzMTA0LjE3ODUyNiAxOTkuNTcyMjExIDE1MS4yMjg2MzIgMjY4Ljg1Mzg5NWM0LjUyNzE1OCA2LjY1NiAxOC4wMjc3ODkgMjkuNDgwNDIxIDI0LjA2NCAzNS4zMDEwNTIgNi43OTA3MzcgNi41NDgyMTEgMjQuMzg3MzY4IDE0LjA2NjUyNiAyOS44MDM3ODkgMTcuMjE5MzY5bDEwOS44NjQ0MjEgNjMuNDA3MTU4YzIwLjE1NjYzMiAxMS42NDEyNjMgMzYuNTEzNjg0LTAuNzI3NTc5IDM2LjUxMzY4NS0yNy42MjEwNTNWNjI0LjI4OTY4NGMwLTI2Ljg5MzQ3NC0xNi4zNTcwNTMtNTguMTUyNDIxLTM2LjUxMzY4NS02OS43OTM2ODRsLTEyMC42OTcyNjMtNjkuNjg1ODk1Yy02LjE3MDk0Ny0zLjU4NC0zNi45OTg3MzctNC45NTgzMTYtNDYuMjQxNjg0LTIuMDc0OTQ3LTI5LjI5MTc4OSA5LjEzNTE1OC0xNDguMDIxODk1IDc0LjM3NDczNy0xNDguMDIxODk1IDc0LjM3NDczN3YxOC40NTg5NDd6Ii8+PHBhdGggZmlsbD0iIzZEOEFDQSIgZD0iTTQ3Ni43MjU4OTUgNTMxLjY5ODUyNmwtMzQuMTE1MzY5IDE5LjY5ODUyNyAxOC40NTg5NDggMzIuMDEzNDczIDI4LjY3Mi0xNi41NDU2ODQtMTMuMDE1NTc5LTM1LjE2NjMxNnoiLz48cGF0aCBmaWxsPSIjQThBOEE4IiBkPSJNMTY0LjEzNjQyMSA0MTAuOTQ3MzY4bC0xMC40Mjg2MzItNi4wMDkyNjNjLTEuMTMxNzg5LTIuMjA5Njg0LTEuNjcwNzM3LTYuOTI1NDc0LTEuNjcwNzM2LTE0LjIwMTI2M3YtMC4wODA4NDJsMC4wNTM4OTQtMy4yMzM2ODQgMC4xMDc3OS02LjkyNTQ3NGMwLTEuODU5MzY4LTEuMDc3ODk1LTMuNDIyMzE2LTMuMjYwNjMyLTQuNjYxODk1djI2LjI3MzY4NWwtMTAuNDAxNjg0LTYuMDA5MjY0di01NC43ODRsMTIuODUzODk1IDcuNDEwNTI3YTI2LjA4NTA1MyAyNi4wODUwNTMgMCAwIDEgNy42NTMwNTIgNi43NjM3ODkgMTQuNzEzMjYzIDE0LjcxMzI2MyAwIDAgMSAzLjI2MDYzMiA5LjI0Mjk0OHY2LjU3NTE1N2MwIDQuMjU3Njg0LTIuMTI4ODQyIDUuOTAxNDc0LTYuNDQwNDIxIDQuOTA0NDIyIDQuMzExNTc5IDMuNjkxNzg5IDYuNDk0MzE2IDcuOTQ5NDc0IDYuNDk0MzE2IDEyLjhsLTAuMTYxNjg0IDUuOTAxNDczYzAgOC43ODQ4NDIgMC42NDY3MzcgMTQuMTIwNDIxIDEuOTQwMjEgMTYuMDMzNjg0eiBtLTExLjk5MTU3OS00Mi44MTkzNjh2LTkuMDU0MzE2YzAtMS45MTMyNjMtMS4wNTA5NDctMy40NzYyMTEtMy4yMDY3MzctNC43MTU3ODl2MTQuODIxMDUyYzIuMTU1Nzg5IDEuMjM5NTc5IDMuMjA2NzM3IDAuODg5MjYzIDMuMjA2NzM3LTEuMDUwOTQ3ek0xODcuMjg0MjExIDM3Ni42MTY0MjFsLTUuODIwNjMyLTMuMzY4NDIxdjQ3LjY0Mjk0N2wtMTAuNDAxNjg0LTYuMDA5MjYzdi00Ny42NDI5NDdsLTUuODQ3NTc5LTMuMzY4NDIxdi03LjE0MTA1M2wyMi4wNjk4OTUgMTIuNzQ2MTA1djcuMTQxMDUzek0yMTguNzU4NzM3IDQ0Mi40MjE4OTVsLTExLjE4MzE1OC02LjQ2NzM2OS00Ljc2OTY4NC0yMC4zNzIyMS00LjQ0NjMxNiAxNS4wMzY2MzEtOS45NzA1MjYtNS43Mzk3ODkgOC4xOTItMjYuNDA4NDIxLTYuMDYzMTU4LTI3LjE2Mjk0OCAxMC4wMjQ0MjEgNS43OTM2ODUgMy42OTE3ODkgMTguMDI3Nzg5IDQuMTQ5ODk1LTEzLjUwMDYzMSA5LjM1MDczNyA1LjQxNjQyMS03LjExNDEwNSAyMS4yNjE0NzMgOC4xMzgxMDUgMzQuMTE1MzY5ek0yMzEuOTM2IDQyNy4wNjE4OTVsOS41NjYzMTYgNS41MjQyMXYxMi45ODg2MzJjMCAxLjM0NzM2OCAwLjYxOTc4OSAyLjM3MTM2OCAxLjg4NjMxNiAzLjA5ODk0NyAxLjIzOTU3OSAwLjcyNzU3OSAxLjg4NjMxNiAwLjQzMTE1OCAxLjg4NjMxNS0wLjkxNjIxdi0xMi42OTIyMTFhNS45ODIzMTYgNS45ODIzMTYgMCAwIDAtMC45NDMxNTgtMy41MDMxNTggMTEuNDI1Njg0IDExLjQyNTY4NCAwIDAgMC0zLjUzMDEwNS0yLjgyOTQ3M3YtNi4xNzA5NDhjMi45NjQyMTEgMS42OTc2ODQgNC40NzMyNjMgMS41MDkwNTMgNC40NzMyNjMtMC42NDY3Mzd2LTkuNzAxMDUyYzAtMS4xMDQ4NDItMC42NDY3MzctMS45OTQxMDUtMS44ODYzMTUtMi43MjE2ODQtMS4zMjA0MjEtMC43NTQ1MjYtMS45NjcxNTgtMC41OTI4NDItMS45NjcxNTggMC41MTJ2MTAuMDc4MzE1bC05LjIxNi01LjMzNTU3OXYtMTAuMTU5MTU4YzAtNi40NjczNjggMy44NTM0NzQtNy40NjQ0MjEgMTEuNjE0MzE1LTIuOTkxMTU3IDMuMDk4OTQ3IDEuODA1NDc0IDUuODIwNjMyIDQuMTQ5ODk1IDguMTM4MTA2IDcuMDMzMjYzYTE0LjY1OTM2OCAxNC42NTkzNjggMCAwIDEgMy40NzYyMSA5LjM3NzY4NHY3LjUxODMxNmMwIDQuMzkyNDIxLTEuODA1NDc0IDYuMjc4NzM3LTUuNDE2NDIxIDUuNzEyODQyYTE3LjI0NjMxNiAxNy4yNDYzMTYgMCAwIDEgNS41NzgxMDUgMTMuMzY1ODk1djguMTM4MTA1YzAgNy42MjYxMDUtMy45MzQzMTYgOS4xNjIxMDUtMTEuNzQ5MDUyIDQuNjYxODk1LTcuOTQ5NDc0LTQuNjA4LTExLjkxMDczNy0xMC4zNDc3ODktMTEuOTEwNzM3LTE3LjI3MzI2NHYtMTMuMDY5NDczek0yNTcuNDI4MjExIDQ1NS4zODM1NzlWNDIwLjEwOTQ3NGMwLTcuMDg3MTU4IDQuMDk2LTguMjcyODQyIDEyLjI4OC0zLjU1NzA1MyA4LjAzMDMxNiA0LjYzNDk0NyAxMi4wNDU0NzQgMTAuNDgyNTI2IDEyLjA0NTQ3MyAxNy41NDI3Mzd2MzUuMjQ3MTU4YzAgMy4xNTI4NDItMS4xMzE3ODkgNC45NTgzMTYtMy4zOTUzNjggNS4zODk0NzMtMi4yNjM1NzkgMC40MzExNTgtNS4xNzM4OTUtMC4zNzcyNjMtOC43MzA5NDgtMi40NTIyMWEyOC45NDE0NzQgMjguOTQxNDc0IDAgMCAxLTguODM4NzM2LTcuNjUzMDUzIDE1LjMzMzA1MyAxNS4zMzMwNTMgMCAwIDEtMy4zNjg0MjEtOS4yNDI5NDd6IG0xMy45MDQ4NDIgOC41OTYyMXYtMzcuMzIyMTA1YzAtMS4xMDQ4NDItMC41NjU4OTUtMS45NjcxNTgtMS42OTc2ODUtMi42MTM4OTUtMS4xODU2ODQtMC43MDA2MzItMS43Nzg1MjYtMC40ODUwNTMtMS43Nzg1MjYgMC41OTI4NDN2MzcuMzQ5MDUyYzAgMS4wNzc4OTUgMC41OTI4NDIgMS45NjcxNTggMS43Nzg1MjYgMi42Njc3OSAxLjEzMTc4OSAwLjY0NjczNyAxLjY5NzY4NCAwLjQzMTE1OCAxLjY5NzY4NS0wLjY3MzY4NXpNMjgzLjc1NTc4OSA0NTcuMDU0MzE2bDEwLjEzMjIxMSA1Ljg0NzU3OXYxMy45NTg3MzdjMCAxLjE4NTY4NCAwLjU5Mjg0MiAyLjEyODg0MiAxLjc1MTU3OSAyLjgwMjUyNiAxLjEzMTc4OSAwLjY0NjczNyAxLjY5NzY4NCAwLjM3NzI2MyAxLjY5NzY4NC0wLjgwODQyMXYtMTYuMjc2MjExYy0wLjc1NDUyNiAwLjQ4NTA1My0yLjEyODg0MiAwLjEzNDczNy00LjE3Njg0Mi0xLjA1MDk0N2EyMC45MzgxMDUgMjAuOTM4MTA1IDAgMCAxLTYuNzkwNzM3LTYuMjI0ODQyIDEzLjg1MDk0NyAxMy44NTA5NDcgMCAwIDEtMi42MTM4OTUtNy45NDk0NzR2LTEyLjc3MzA1MmMwLTMuMTc5Nzg5IDEuMDc3ODk1LTUuMDEyMjExIDMuMjYwNjMyLTUuNDcwMzE2IDIuMTgyNzM3LTAuNDU4MTA1IDUuMDM5MTU4IDAuMzIzMzY4IDguNTQyMzE2IDIuMzcxMzY4IDMuNTg0IDIuMDQ4IDYuNDY3MzY4IDQuNTgxMDUzIDguNjUwMTA1IDcuNTQ1MjYzYTE1LjM2IDE1LjM2IDAgMCAxIDMuMjg3NTc5IDkuMTg5MDUzdjM1LjMwMTA1M2MwIDcuMDg3MTU4LTMuOTg4MjExIDguMzI2NzM3LTExLjk5MTU3OSAzLjY5MTc4OS03Ljg0MTY4NC00LjUyNzE1OC0xMS43NDkwNTMtMTAuMjkzODk1LTExLjc0OTA1My0xNy4zMjcxNTh2LTEyLjgyNjk0N3ogbTEzLjU4MTQ3NC0yLjE1NTc5di0xMy4xNTAzMTVhMy4wNzIgMy4wNzIgMCAwIDAtMS42OTc2ODQtMi43NzU1NzljLTEuMTU4NzM3LTAuNjczNjg0LTEuNzUxNTc5LTAuNDA0MjExLTEuNzUxNTc5IDAuNzgxNDczdjEzLjE1MDMxNmMwIDEuMTg1Njg0IDAuNTkyODQyIDIuMTI4ODQyIDEuNzUxNTc5IDIuODAyNTI2IDEuMTMxNzg5IDAuNjQ2NzM3IDEuNjk3Njg0IDAuMzc3MjYzIDEuNjk3Njg0LTAuODA4NDIxek0zMDkuNDA5Njg0IDQ4NS40MDI5NDd2LTM1LjI3NDEwNWMwLTcuMTE0MTA1IDQuMDk2LTguMjk5Nzg5IDEyLjI4OC0zLjU1NzA1MyA4LjAzMDMxNiA0LjYzNDk0NyAxMi4wNDU0NzQgMTAuNDgyNTI2IDEyLjA0NTQ3NCAxNy41MTU3OXYzNS4yNzQxMDVjMCAzLjE1Mjg0Mi0xLjEzMTc4OSA0Ljk1ODMxNi0zLjM5NTM2OSA1LjM2MjUyNy0yLjI2MzU3OSAwLjQzMTE1OC01LjE3Mzg5NS0wLjM3NzI2My04LjczMDk0Ny0yLjQyNTI2NGEyOC4zNDg2MzIgMjguMzQ4NjMyIDAgMCAxLTguODM4NzM3LTcuNjggMTUuMjUyMjExIDE1LjI1MjIxMSAwIDAgMS0zLjM2ODQyMS05LjIxNnogbTEzLjkwNDg0MiA4LjU5NjIxMXYtMzcuMzIyMTA1YzAtMS4xMDQ4NDItMC41NjU4OTUtMS45NjcxNTgtMS42OTc2ODQtMi42NDA4NDItMS4xODU2ODQtMC42NzM2ODQtMS43Nzg1MjYtMC40NTgxMDUtMS43Nzg1MjYgMC42MTk3ODl2MzcuMzIyMTA1YzAgMS4xMDQ4NDIgMC41OTI4NDIgMS45OTQxMDUgMS43Nzg1MjYgMi42OTQ3MzcgMS4xMzE3ODkgMC42NDY3MzcgMS42OTc2ODQgMC40MDQyMTEgMS42OTc2ODQtMC42NzM2ODR6Ii8+PHBhdGggZmlsbD0iIzNCNTdBNiIgZD0iTTcwNC43Mjc1NzkgNTM1LjQ5ODEwNWM2OS40NDMzNjggNDAuMDk3Njg0IDEyNS44MTcyNjMgMTM3Ljc4MTg5NSAxMjUuODE3MjYzIDIxNy45NzcyNjNzLTU2LjM3Mzg5NSAxMTIuNzQ3Nzg5LTEyNS44MTcyNjMgNzIuNjUwMTA2Yy02OS40NzAzMTYtNDAuMDk3Njg0LTEyNS44NDQyMTEtMTM3Ljc4MTg5NS0xMjUuODQ0MjExLTIxNy45NzcyNjMgMC04MC4xNjg0MjEgNTYuMzczODk1LTExMi43NDc3ODkgMTI1Ljg0NDIxMS03Mi42NTAxMDZ6Ii8+PHBhdGggZmlsbD0iIzQ3NjJBRiIgZD0iTTY5My45NDg2MzIgNTQxLjcyMjk0N2M2OS40NDMzNjggNDAuMDk3Njg0IDEyNS44NDQyMTEgMTM3Ljc1NDk0NyAxMjUuODQ0MjEgMjE3Ljk1MDMxNiAwIDgwLjE5NTM2OC01Ni40MDA4NDIgMTEyLjc0Nzc4OS0xMjUuODQ0MjEgNzIuNjUwMTA1cy0xMjUuODQ0MjExLTEzNy43NTQ5NDctMTI1Ljg0NDIxMS0yMTcuOTUwMzE1YzAtODAuMTk1MzY4IDU2LjQwMDg0Mi0xMTIuNzQ3Nzg5IDEyNS44NDQyMTEtNzIuNjUwMTA2eiIvPjxwYXRoIGZpbGw9IiM2RDhBQ0EiIGQ9Ik02OTMuOTQ4NjMyIDY0NS43MTI4NDJjMTkuNzUyNDIxIDExLjM5ODczNyAzNS43ODYxMDUgMzkuMTgxNDc0IDM1Ljc4NjEwNSA2MS45Nzg5NDcgMCAyMi43OTc0NzQtMTYuMDMzNjg0IDMyLjA0MDQyMS0zNS43ODYxMDUgMjAuNjQxNjg1LTE5Ljc1MjQyMS0xMS4zOTg3MzctMzUuNzg2MTA1LTM5LjE1NDUyNi0zNS43ODYxMDYtNjEuOTUyIDAtMjIuODI0NDIxIDE2LjAzMzY4NC0zMi4wNjczNjggMzUuNzg2MTA2LTIwLjY2ODYzMnoiLz48cGF0aCBmaWxsPSIjMzk1NDlGIiBkPSJNNjkzLjk0ODYzMiA2NTUuNDY3Nzg5YzE1LjA5MDUyNiA4LjcwNCAyNy4zMjQ2MzIgMjkuOTExNTc5IDI3LjMyNDYzMSA0Ny4zNDY1MjcgMCAxNy40MDgtMTIuMjM0MTA1IDI0LjQ2ODIxMS0yNy4zMjQ2MzEgMTUuNzY0MjEtMTUuMDkwNTI2LTguNzA0LTI3LjMyNDYzMi0yOS45MTE1NzktMjcuMzI0NjMyLTQ3LjMxOTU3OSAwLTE3LjQzNDk0NyAxMi4yMzQxMDUtMjQuNDk1MTU4IDI3LjMyNDYzMi0xNS43OTExNTh6Ii8+PHBhdGggZmlsbD0iIzZEOEFDQSIgZD0iTTY3Ni43NTYyMTEgNTM1LjkwMjMxNmMtMzMuMTE4MzE2LTE5LjEzMjYzMi01OS45ODQ4NDItMTEuMTAyMzE2LTU5Ljk4NDg0MyAxNy44NjYxMDUgMCAyOC45OTUzNjggMjYuODY2NTI2IDY4LjA2OTA1MyA1OS45ODQ4NDMgODcuMTc0NzM3LTkuOTQzNTc5LTE3Ljk3Mzg5NS0xOC4wMDA4NDItNDEuOTU3MDUzLTE4LjAwMDg0My02Mi45MjIxMDUgMC0yMC45MzgxMDUgOC4wNTcyNjMtMzUuNTk3NDc0IDE4LjAwMDg0My00Mi4xMTg3Mzd6TTc2MS4xODIzMTYgNjAzLjE2Mjk0N2MtMjcuMDU1MTU4LTM3LjY0NTQ3NC02MC42ODU0NzQtNTUuODM0OTQ3LTc0Ljk5NDUyNy00MC42MDk2ODQtMTQuMzM2IDE1LjIyNTI2My0zLjk4ODIxMSA1OC4xMjU0NzQgMjMuMDkzODk1IDk1Ljc3MDk0OC0yLjA3NDk0Ny0xNy43MzEzNjggMC44ODkyNjMtMzcuMDI1Njg0IDExLjIzNzA1My00OC4wNDcxNTggMTAuMzQ3Nzg5LTEwLjk5NDUyNiAyNi40ODkyNjMtMTEuOTY0NjMyIDQwLjY2MzU3OS03LjExNDEwNnoiLz48cGF0aCBmaWxsPSIjNkQ4QUNBIiBkPSJNODE1LjYxNiA3MjIuMDgxNjg0Yy01LjAxMjIxMS00MC42OTA1MjYtMjkuMjM3ODk1LTgxLjc4NTI2My01NC4wNTY0MjEtOTEuNzI4ODQyLTI0LjgxODUyNi05LjkxNjYzMi00MC44NzkxNTggMTUuMDYzNTc5LTM1Ljg2Njk0NyA1NS43NTQxMDUgOC45NzM0NzQtOC4wMDMzNjggMjQuMzA2NTI2LTExLjMxNzg5NSA0Mi4yMjY1MjYtNC4xMjI5NDcgMTcuOTQ2OTQ3IDcuMTY4IDM1LjcwNTI2MyAyMy42ODY3MzcgNDcuNjk2ODQyIDQwLjA5NzY4NHoiLz48cGF0aCBmaWxsPSIjNkQ4QUNBIiBkPSJNNzg5LjAxODk0NyA4MjYuNDIxODk1YzI2LjQ2MjMxNi03LjY4IDM0LjY1NDMxNi00Mi4wMTA5NDcgMTguMjk3MjY0LTc2LjU4NDQyMS0xNi4zNTcwNTMtMzQuNTczNDc0LTUxLjExOTE1OC01Ni40MDA4NDItNzcuNTgxNDc0LTQ4LjY5Mzg5NSAxNC44NDggMTIuMzE0OTQ3IDMyLjIwMjEwNSAzMy40Njg2MzIgNDQuMDMyIDU4LjQ0ODg0MiAxMS44MDI5NDcgMjUuMDA3MTU4IDE2LjI3NjIxMSA0OS45MDY1MjYgMTUuMjUyMjEgNjYuODI5NDc0ek02OTEuOTAwNjMyIDgyNC45MTI4NDJjMzEuNjM2MjExIDI5LjUzNDMxNiA2NC4wNTM4OTUgMzIuMjAyMTA1IDcyLjM1MzY4NCA1Ljk1NTM2OSA4LjMyNjczNy0yNi4yNzM2ODQtMTAuNjE3MjYzLTcxLjU3MjIxMS00Mi4yNTM0NzQtMTAxLjEzMzQ3NCA1Ljk4MjMxNiAxOS45NjggOC4xMzgxMDUgNDQuNjc4NzM3IDIuMTI4ODQyIDYzLjY0OTY4NC02LjAwOTI2MyAxOC45NzA5NDctMTkuMjQwNDIxIDI5LjI5MTc4OS0zMi4yMjkwNTIgMzEuNTI4NDIxeiIvPjxwYXRoIGZpbGw9IiM2RDhBQ0EiIGQ9Ik02MTUuNjY2NTI2IDc0Ni45NTQxMDVjMTkuNzI1NDc0IDQyLjA5MTc4OSA1Mi42NTUxNTggNzEuNTE4MzE2IDczLjQ1ODUyNyA2NS42OTc2ODQgMjAuNzc2NDIxLTUuODIwNjMyIDIxLjYzODczNy00NC43MzI2MzIgMS45MTMyNjMtODYuODI0NDIxLTIuODgzMzY4IDE1LjA5MDUyNi0xMS45Mzc2ODQgMjkuMjEwOTQ3LTI2Ljk3NDMxNiAzMy40NDE2ODUtMTUuMDM2NjMyIDQuMjAzNzg5LTMzLjY4NDIxMS0yLjE1NTc4OS00OC4zOTc0NzQtMTIuMzE0OTQ4eiIvPjxwYXRoIGZpbGw9IiM2RDhBQ0EiIGQ9Ik01NzQuNzMzNDc0IDY1Mi4yMDcxNThjMy4wOTg5NDcgMzguOTY1ODk1IDI1LjkyMzM2OCA4MC4xMTQ1MjYgNTAuOTg0NDIxIDkxLjgwOTY4NCAyNS4wNjEwNTMgMTEuNjk1MTU4IDQyLjg3MzI2My0xMC40NTU1NzkgMzkuODAxMjYzLTQ5LjQ0ODQyMS05LjY3NDEwNSA2Ljc2Mzc4OS0yNS42IDguNDYxNDc0LTQzLjcwODYzMiAwLTE4LjEwODYzMi04LjQzNDUyNi0zNS41NDM1NzktMjUuNzM0NzM3LTQ3LjA3NzA1Mi00Mi4zNjEyNjN6Ii8+PHBhdGggZmlsbD0iIzZEOEFDQSIgZD0iTTU3Ni4zMjMzNjggNTY3LjQzMDczN2MtMTIuMjA3MTU4IDI3LjU0MDIxMS0zLjI2MDYzMiA2OS42NTg5NDcgMTkuOTQxMDUzIDkzLjk5MjQyMSAyMy4yMDE2ODQgMjQuMzA2NTI2IDUxLjk4MTQ3NCAyMS42OTI2MzIgNjQuMTg4NjMyLTUuODc0NTI2LTEzLjQ3MzY4NC0yLjAyMTA1My0zMS45MzI2MzItMTEuNTA2NTI2LTQ4LjY5Mzg5NS0yOS4wNzYyMTFhMTY1LjgzNDEwNSAxNjUuODM0MTA1IDAgMCAxLTM1LjQzNTc5LTU5LjA0MTY4NHoiLz48cGF0aCBmaWxsPSIjMjgzOTYxIiBkPSJNMjc1LjI0MDQyMSA3Ni42NjUyNjNMMTkyLjU2NTg5NSAyOC45NDE0NzR2ODMuNDgyOTQ3bDgyLjY3NDUyNiA0Ny43NTA3MzdWNzYuNjY1MjYzeiIvPjxwYXRoIGZpbGw9IiNFMkIzNkIiIGQ9Ik0yNzUuMjQwNDIxIDQ3Ljc1MDczN0wxOTIuNTY1ODk1IDB2MzkuMjYyMzE2bDgyLjY3NDUyNiA0Ny43MjM3ODlWNDcuNzUwNzM3eiIvPjxwYXRoIGZpbGw9IiNFMUNCQTkiIGQ9Ik0yMDMuODI5ODk1IDYuNDk0MzE2TDE5OS41NzIyMTEgNC4wNDIxMDV2MzkuMjYyMzE2bDQuMjU3Njg0IDIuNDUyMjExVjYuNDk0MzE2ek0yMTQuMDE2IDEyLjM5NTc4OUwyMDkuNzU4MzE2IDkuOTQzNTc5djM5LjIzNTM2OGw0LjI1NzY4NCAyLjQ3OTE1OFYxMi4zOTU3ODl6TTIyNC4yMjkwNTMgMTguMjk3MjYzTDIxOS45NzEzNjggMTUuODE4MTA1djM5LjI2MjMxNmw0LjI1NzY4NSAyLjQ1MjIxMVYxOC4yOTcyNjN6TTIzNC40NDIxMDUgMjQuMTcxNzg5TDIzMC4xNTc0NzQgMjEuNzE5NTc5djM5LjI2MjMxNmw0LjI4NDYzMSAyLjQ1MjIxVjI0LjE3MTc4OXpNMjQ0LjYyODIxMSAzMC4wNzMyNjNsLTQuMjU3Njg1LTIuNDc5MTU4djM5LjI2MjMxNmw0LjI1NzY4NSAyLjQ3OTE1OFYzMC4wNzMyNjN6TTI1NC44NDEyNjMgMzUuOTQ3Nzg5bC00LjI1NzY4NC0yLjQ1MjIxVjcyLjc1Nzg5NWw0LjI1NzY4NCAyLjQ1MjIxVjM1Ljk0Nzc4OXpNMjY1LjA1NDMxNiA0MS44NDkyNjNsLTQuMjg0NjMyLTIuNDUyMjF2MzkuMjYyMzE1bDQuMjg0NjMyIDIuNDUyMjExVjQxLjg0OTI2M3pNMjc1LjI0MDQyMSA0Ny43NTA3MzdsLTQuMjU3Njg0LTIuNDc5MTU4djM5LjI2MjMxNmw0LjI1NzY4NCAyLjQ1MjIxVjQ3Ljc1MDczN3oiLz48cGF0aCBmaWxsPSIjMjgzOTYxIiBkPSJNMjg3LjI4NTg5NSAxMTMuODI1Njg0bC0yMi43NDM1NzktMTMuMTUwMzE2djUzLjMyODg0M2wyMi43NDM1NzkgMTMuMTIzMzY4VjExMy44MjU2ODR6TTY4OC42OTM4OTUgMzEyLjU2MjUyNkwyODcuMjg1ODk1IDgwLjc4ODIxMXY4Ni4zMzkzNjhsNDAxLjQwOCAyMzEuNzQ3MzY4di04Ni4zMTI0MjF6Ii8+PHBhdGggZmlsbD0iI0UyQjM2QiIgZD0iTTY4OC42OTM4OTUgMjg1LjEzMDEwNUwyODcuMjg1ODk1IDUzLjM1NTc4OXYzOS4yMzUzNjlsNDAxLjQwOCAyMzEuNzc0MzE2di0zOS4yMzUzNjl6Ii8+PHBhdGggZmlsbD0iI0UxQ0JBOSIgZD0iTTI5MS41NDM1NzkgNTUuODM0OTQ3bC00LjI1NzY4NC0yLjQ3OTE1OHYzOS4yNjIzMTZsNC4yNTc2ODQgMi40NzkxNThWNTUuODM0OTQ3ek0zMDMuOTY2MzE2IDYzLjAwMjk0N2wtNC4yNTc2ODQtMi40NzkxNTh2MzkuMjYyMzE2bDQuMjU3Njg0IDIuNDUyMjExVjYzLjAwMjk0N3pNMzE2LjM2MjEwNSA3MC4xNDRsLTQuMjU3Njg0LTIuNDUyMjExdjM5LjI2MjMxNmw0LjI1NzY4NCAyLjQ1MjIxMVY3MC4xNDR6TTMyOC43ODQ4NDIgNzcuMzEybC00LjI1NzY4NC0yLjQ1MjIxMXYzOS4yNjIzMTZsNC4yNTc2ODQgMi40NTIyMTFWNzcuMzEyek0zNDEuMjA3NTc5IDg0LjQ4bC00LjI4NDYzMi0yLjQ1MjIxMXYzOS4yNjIzMTZsNC4yODQ2MzIgMi40NTIyMTFWODQuNDh6TTM1My42MDMzNjggOTEuNjQ4bC00LjI1NzY4NC0yLjQ1MjIxMXYzOS4yNjIzMTZsNC4yNTc2ODQgMi40NTIyMTFWOTEuNjQ4ek0zNjYuMDI2MTA1IDk4LjgxNmwtNC4yODQ2MzEtMi40NTIyMTF2MzkuMjYyMzE2bDQuMjg0NjMxIDIuNDUyMjExVjk4LjgxNnpNMzc4LjQyMTg5NSAxMDUuOTg0bC00LjI1NzY4NC0yLjQ1MjIxMXYzOS4yMzUzNjlsNC4yNTc2ODQgMi40NzkxNThWMTA1Ljk4NHpNMzkwLjg0NDYzMiAxMTMuMTUybC00LjI1NzY4NS0yLjQ1MjIxMXYzOS4yMzUzNjlsNC4yNTc2ODUgMi40NzkxNThWMTEzLjE1MnpNNDAzLjI0MDQyMSAxMjAuMzJsLTQuMjU3Njg0LTIuNDc5MTU4VjE1Ny4xMDMxNThsNC4yNTc2ODQgMi40NzkxNThWMTIwLjMyek00MTUuNjYzMTU4IDEyNy40ODhsLTQuMjU3Njg0LTIuNDc5MTU4djM5LjI2MjMxNmw0LjI1NzY4NCAyLjQ3OTE1OFYxMjcuNDg4ek00MjguMDU4OTQ3IDEzNC42NTZsLTQuMjU3Njg0LTIuNDc5MTU4djM5LjI2MjMxNmw0LjI1NzY4NCAyLjQ1MjIxVjEzNC42NTZ6TTQ0MC40ODE2ODQgMTQxLjgyNGwtNC4yNTc2ODQtMi40NzkxNTh2MzkuMjYyMzE2bDQuMjU3Njg0IDIuNDUyMjFWMTQxLjgyNHpNNDUyLjkwNDQyMSAxNDguOTY1MDUzbC00LjI4NDYzMi0yLjQ1MjIxMXYzOS4yNjIzMTZsNC4yODQ2MzIgMi40NTIyMVYxNDguOTY1MDUzek00NjUuMzAwMjExIDE1Ni4xMzMwNTNsLTQuMjU3Njg1LTIuNDUyMjExVjE5Mi45NDMxNThsNC4yNTc2ODUgMi40NTIyMVYxNTYuMTMzMDUzek00NzcuNzIyOTQ3IDE2My4zMDEwNTNsLTQuMjg0NjMxLTIuNDUyMjExdjM5LjI2MjMxNmw0LjI4NDYzMSAyLjQ1MjIxVjE2My4zMDEwNTN6TTQ5MC4xMTg3MzcgMTcwLjQ2OTA1M2wtNC4yNTc2ODQtMi40NTIyMTF2MzkuMjYyMzE2bDQuMjU3Njg0IDIuNDUyMjFWMTcwLjQ2OTA1M3pNNTAyLjU0MTQ3NCAxNzcuNjM3MDUzbC00LjI1NzY4NS0yLjQ1MjIxMXYzOS4yNjIzMTZsNC4yNTc2ODUgMi40NTIyMVYxNzcuNjM3MDUzek01MTQuOTM3MjYzIDE4NC44MDUwNTNsLTQuMjU3Njg0LTIuNDUyMjExdjM5LjIzNTM2OWw0LjI1NzY4NCAyLjQ3OTE1N1YxODQuODA1MDUzek01MjcuMzYgMTkxLjk3MzA1M2wtNC4yNTc2ODQtMi40NTIyMTF2MzkuMjM1MzY5bDQuMjU3Njg0IDIuNDc5MTU3VjE5MS45NzMwNTN6TTUzOS43ODI3MzcgMTk5LjE0MTA1M2wtNC4yODQ2MzItMi40NzkxNTh2MzkuMjYyMzE2bDQuMjg0NjMyIDIuNDc5MTU3VjE5OS4xNDEwNTN6TTU1Mi4xNzg1MjYgMjA2LjMwOTA1M2wtNC4yNTc2ODQtMi40NzkxNTh2MzkuMjYyMzE2bDQuMjU3Njg0IDIuNDc5MTU3VjIwNi4zMDkwNTN6TTU2NC42MDEyNjMgMjEzLjQ3NzA1M2wtNC4yODQ2MzEtMi40NzkxNTh2MzkuMjYyMzE2bDQuMjg0NjMxIDIuNDUyMjFWMjEzLjQ3NzA1M3pNNTc2Ljk5NzA1MyAyMjAuNjQ1MDUzbC00LjI1NzY4NS0yLjQ3OTE1OHYzOS4yNjIzMTZsNC4yNTc2ODUgMi40NTIyMVYyMjAuNjQ1MDUzek01ODkuNDE5Nzg5IDIyNy43ODYxMDVsLTQuMjU3Njg0LTIuNDUyMjF2MzkuMjYyMzE2bDQuMjU3Njg0IDIuNDUyMjFWMjI3Ljc4NjEwNXpNNjAxLjgxNTU3OSAyMzQuOTU0MTA1bC00LjI1NzY4NC0yLjQ1MjIxdjM5LjI2MjMxNmw0LjI1NzY4NCAyLjQ1MjIxVjIzNC45NTQxMDV6TTYxNC4yMzgzMTYgMjQyLjEyMjEwNWwtNC4yNTc2ODQtMi40NTIyMXYzOS4yNjIzMTZsNC4yNTc2ODQgMi40NTIyMVYyNDIuMTIyMTA1ek02MjYuNjM0MTA1IDI0OS4yOTAxMDVsLTQuMjU3Njg0LTIuNDUyMjF2MzkuMjYyMzE2bDQuMjU3Njg0IDIuNDUyMjFWMjQ5LjI5MDEwNXpNNjM5LjA1Njg0MiAyNTYuNDU4MTA1bC00LjI1NzY4NC0yLjQ1MjIxdjM5LjI2MjMxNmw0LjI1NzY4NCAyLjQ1MjIxVjI1Ni40NTgxMDV6TTY1MS40Nzk1NzkgMjYzLjYyNjEwNWwtNC4yODQ2MzItMi40NTIyMXYzOS4yMzUzNjhsNC4yODQ2MzIgMi40NzkxNThWMjYzLjYyNjEwNXpNNjYzLjg3NTM2OCAyNzAuNzk0MTA1bC00LjI1NzY4NC0yLjQ1MjIxdjM5LjIzNTM2OGw0LjI1NzY4NCAyLjQ3OTE1OHYtMzkuMjYyMzE2ek02NzYuMjk4MTA1IDI3Ny45NjIxMDVsLTQuMjg0NjMxLTIuNDc5MTU4djM5LjI2MjMxNmw0LjI4NDYzMSAyLjQ3OTE1OHYtMzkuMjYyMzE2ek02ODguNjkzODk1IDI4NS4xMzAxMDVsLTQuMjU3Njg0LTIuNDc5MTU4djM5LjI2MjMxNmw0LjI1NzY4NCAyLjQ3OTE1OHYtMzkuMjYyMzE2eiIvPjxwYXRoIGZpbGw9IiMyODM5NjEiIGQ9Ik02ODguNjkzODk1IDI4NS4xMzAxMDVzNy44Njg2MzIgMTAzLjIzNTM2OCA4LjgzODczNyAxMDMuMjM1MzY5YzAuOTQzMTU4IDAtOC44Mzg3MzcgMTAuNTA5NDc0LTguODM4NzM3IDEwLjUwOTQ3MyIvPjxwYXRoIGZpbGw9IiM2RDhBQ0EiIGQ9Ik02ODguNjkzODk1IDkwOS42MzUzNjhMMjI5LjI2ODIxMSA2NDQuMzY1NDc0djE1LjE0NDQyMWw0NTkuNDI1Njg0IDI2NS4yNjk4OTR2LTE1LjE0NDQyMXoiLz48cGF0aCBmaWxsPSIjMjgzOTYxIiBkPSJNNzYwLjU4OTQ3NCA0MDUuODU0MzE2bC01My43MDYxMDYgMzEuMDE2NDIxIDEwLjIxMzA1MyA1LjkwMTQ3NCA1My43MDYxMDUtMzEuMDE2NDIyLTEwLjIxMzA1Mi01LjkwMTQ3M3pNNzg3LjI5NDMxNiA0MjEuMjk1MTU4bC01My42NzkxNTggMzAuOTg5NDc0IDEwLjIxMzA1MyA1LjkwMTQ3MyA1My43MDYxMDUtMzAuOTg5NDczLTEwLjI0LTUuOTAxNDc0ek04MTQuMDI2MTA1IDQzNi43MzZsLTUzLjcwNjEwNSAzMC45ODk0NzQgMTAuMjQgNS45MDE0NzMgNTMuNjc5MTU4LTMxLjAxNjQyMS0xMC4yMTMwNTMtNS44NzQ1MjZ6TTg0MC43NTc4OTUgNDUyLjE0OTg5NWwtNTMuNzA2MTA2IDMxLjAxNjQyMSAxMC4yMTMwNTMgNS44NzQ1MjYgNTMuNzA2MTA1LTMwLjk4OTQ3NC0xMC4yMTMwNTItNS45MDE0NzN6TTg2Ny40NjI3MzcgNDY3LjU5MDczN2wtNTMuNjc5MTU4IDMwLjk4OTQ3NCAxMC4yMTMwNTMgNS45MDE0NzMgNTMuNzA2MTA1LTMwLjk4OTQ3My0xMC4yNC01LjkwMTQ3NHpNODk0LjE5NDUyNiA0ODMuMDA0NjMybC01My43MDYxMDUgMzEuMDE2NDIxIDEwLjI0IDUuODc0NTI2IDUzLjY3OTE1OC0zMC45ODk0NzQtMTAuMjEzMDUzLTUuOTAxNDczek05NTAuNjc2MjExIDU5NC45MTcwNTNsLTU4LjIzMzI2NCAzMy42MzAzMTV2MTMuNzk3MDUzbDU4LjIzMzI2NC0zMy42MDMzNjh2LTEzLjgyNHpNOTUwLjc4NCA2MjguMTk3MDUzbC01OC4yMzMyNjMgMzMuNjMwMzE1djEzLjc5NzA1M2w1OC4yMzMyNjMtMzMuNjMwMzE2di0xMy43OTcwNTJ6TTk1MC45MTg3MzcgNjYxLjQ3NzA1M2wtNTguMjYwMjExIDMzLjYzMDMxNXYxMy43OTcwNTNsNTguMjYwMjExLTMzLjYzMDMxNnYtMTMuNzk3MDUyek05NTEuMDI2NTI2IDY5NC43NTcwNTNMODkyLjc2NjMxNiA3MjguMzg3MzY4djEzLjc5NzA1M2w1OC4yNjAyMS0zMy42MzAzMTZ2LTEzLjc5NzA1MnpNOTUxLjEzNDMxNiA3MjguMDM3MDUzbC01OC4yNjAyMTEgMzMuNjMwMzE1djEzLjc5NzA1M2w1OC4yNjAyMTEtMzMuNjMwMzE2di0xMy43OTcwNTJ6TTk1MS4yNDIxMDUgNzYxLjMxNzA1M0w4OTIuOTgxODk1IDc5NC45NDczNjh2MTMuNzk3MDUzbDU4LjI2MDIxLTMzLjYzMDMxNnYtMTMuNzk3MDUyek05NTEuMzQ5ODk1IDc5NC41OTcwNTNsLTU4LjI2MDIxMSAzMy42MzAzMTV2MTMuNzk3MDUzbDU4LjI2MDIxMS0zMy42MzAzMTZ2LTEzLjc5NzA1MnpNOTUxLjQ1NzY4NCA4MjcuODc3MDUzbC01OC4yNjAyMSAzMy42MzAzMTV2MTMuNzk3MDUzbDU4LjI2MDIxLTMzLjYzMDMxNnYtMTMuNzk3MDUyek05NTEuNTY1NDc0IDg2MS4xNTcwNTNsLTU4LjI2MDIxMSAzMy42MzAzMTV2MTMuNzk3MDUzbDU4LjI2MDIxMS0zMy42MzAzMTZ2LTEzLjc5NzA1MnpNOTUxLjY3MzI2MyA4OTQuNDM3MDUzbC01OC4yNjAyMSAzMy42MDMzNjh2MTMuODI0bDU4LjI2MDIxLTMzLjYzMDMxNnYtMTMuNzk3MDUyeiIvPjwvc3ZnPg==;fontFamily=Times New Roman;fontSize=14;" parent="MM1KDcKoI-MTzxc4Ed4U-1" vertex="1">
          <mxGeometry x="110" y="50" width="60" height="60" as="geometry" />
        </mxCell>
        <mxCell id="MM1KDcKoI-MTzxc4Ed4U-5" value="" style="shape=image;verticalLabelPosition=bottom;labelBackgroundColor=default;verticalAlign=top;aspect=fixed;imageAspect=0;image=data:image/svg+xml,PHN2ZyB4bWxuczp4bGluaz0iaHR0cDovL3d3dy53My5vcmcvMTk5OS94bGluayIgeG1sbnM9Imh0dHA6Ly93d3cudzMub3JnLzIwMDAvc3ZnIiBoZWlnaHQ9IjIwMCIgd2lkdGg9IjIwMCIgdmVyc2lvbj0iMS4xIiB2aWV3Qm94PSIwIDAgMTAyNCAxMDI0IiBjbGFzcz0iaWNvbiI+PHBhdGggZmlsbD0iIzM4NDI0NCIgZD0iTTE4OC45NjYgMjA0LjQwOGg2MDAuNTQxdjYwMC41MjhIMTg4Ljk2NnoiLz48cGF0aCBmaWxsPSIjRkZGRkZGIiBkPSJNMjY4LjEwMSAyODMuNTNoNDQyLjI3M3Y0NDIuMjgxSDI2OC4xMDF6Ii8+PHBhdGggZmlsbD0iIzY5NkY2RiIgZD0iTTMwMi43NzggMTE4LjM2NmgyMi41ODd2ODYuMDQyaC0yMi41ODd6TTM1Mi44MjEgMTE4LjM2NmgyMi41OTZ2ODYuMDQyaC0yMi41OTZ6TTQwMi44NzcgMTE4LjM2NmgyMi41ODh2ODYuMDQyaC0yMi41ODh6TTQ1Mi45MiAxMTguMzY2aDIyLjU4OHY4Ni4wNDJINDUyLjkyek01MDIuOTY2IDExOC4zNjZoMjIuNTk2djg2LjA0MmgtMjIuNTk2ek01NTMuMDEzIDExOC4zNjZoMjIuNTkxdjg2LjA0MmgtMjIuNTkxek02MDMuMDU2IDExOC4zNjZoMjIuNTk5djg2LjA0MmgtMjIuNTk5ek02NTMuMTA4IDExOC4zNjZoMjIuNTl2ODYuMDQyaC0yMi41OXoiLz48cGF0aCBmaWxsPSIjNjk2RjZGIiBkPSJNMzAyLjc3OCA4MDQuOTM2aDIyLjU4N3Y4Ni4wMzFoLTIyLjU4N3pNMzUyLjgyMSA4MDQuOTM2aDIyLjU5NnY4Ni4wMzFoLTIyLjU5NnpNNDAyLjg3NyA4MDQuOTM2aDIyLjU4OHY4Ni4wMzFoLTIyLjU4OHpNNDUyLjkyIDgwNC45MzZoMjIuNTg4djg2LjAzMUg0NTIuOTJ6TTUwMi45NjYgODA0LjkzNmgyMi41OTZ2ODYuMDMxaC0yMi41OTZ6TTU1My4wMTMgODA0LjkzNmgyMi41OTF2ODYuMDMxaC0yMi41OTF6TTYwMy4wNTYgODA0LjkzNmgyMi41OTl2ODYuMDMxaC0yMi41OTl6TTY1My4xMDggODA0LjkzNmgyMi41OXY4Ni4wMzFoLTIyLjU5eiIvPjxwYXRoIGZpbGw9IiM2OTZGNkYiIGQ9Ik03ODkuNTA3IDMxOC4yMDhoODYuMDMydjIyLjU4OGgtODYuMDMyek03ODkuNTA3IDM2OC4yNTRoODYuMDMydjIyLjU4OGgtODYuMDMyek03ODkuNTA3IDQxOC4zaDg2LjAzMnYyMi41OTVoLTg2LjAzMnpNNzg5LjUwNyA0NjguMzU0aDg2LjAzMnYyMi41ODVoLTg2LjAzMnpNNzg5LjUwNyA1MTguMzk1aDg2LjAzMnYyMi41OWgtODYuMDMyek03ODkuNTA3IDU2OC40NDNoODYuMDMydjIyLjU5MmgtODYuMDMyek03ODkuNTA3IDYxOC40OWg4Ni4wMzJ2MjIuNTk0aC04Ni4wMzJ6TTc4OS41MDcgNjY4LjUzOWg4Ni4wMzJ2MjIuNTg4aC04Ni4wMzJ6Ii8+PHBhdGggZmlsbD0iIzY5NkY2RiIgZD0iTTEwMi45MzYgMzE4LjIwOGg4Ni4wM3YyMi41ODhoLTg2LjAzek0xMDIuOTM2IDM2OC4yNTRoODYuMDN2MjIuNTg4aC04Ni4wM3pNMTAyLjkzNiA0MTguM2g4Ni4wM3YyMi41OTVoLTg2LjAzek0xMDIuOTM2IDQ2OC4zNTRoODYuMDN2MjIuNTg1aC04Ni4wM3pNMTAyLjkzNiA1MTguMzk1aDg2LjAzdjIyLjU5aC04Ni4wM3pNMTAyLjkzNiA1NjguNDQzaDg2LjAzdjIyLjU5MmgtODYuMDN6TTEwMi45MzYgNjE4LjQ5aDg2LjAzdjIyLjU5NGgtODYuMDN6TTEwMi45MzYgNjY4LjUzOWg4Ni4wM3YyMi41ODhoLTg2LjAzeiIvPjxwYXRoIGZpbGw9IiMyMUE0RDQiIGQ9Ik0zMjEuNiA0NDIuNTcxaDg0LjQ1NnYyNi40OTlIMzIxLjZ6TTMyMS42IDU0MC4yNzVoODQuNDU2djI2LjQ5NkgzMjEuNnoiLz48cGF0aCBmaWxsPSIjMjFBNEQ0IiBkPSJNMzE5LjYyOSA0NDIuNTcxaDI2LjQ5NnYxMjQuMmgtMjYuNDk2eiIvPjxwYXRoIGZpbGw9IiMyMUE0RDQiIGQ9Ik01NjEuMTQ0IDQ0Mi4wMTdoMjYuNDk2djEyNS4zMDFoLTI2LjQ5NnpNNjMyLjM1IDQ0Mi4wMTdoMjYuNDk2djEyNS4zMDFINjMyLjM1eiIvPjxwYXRoIGZpbGw9IiMyMUE0RDQiIGQ9Ik01NjEuMTQ0IDU0MC44MjJoOTcuNzAydjI2LjQ5NmgtOTcuNzAyeiIvPjxwYXRoIGZpbGw9IiMyMUE0RDQiIGQ9Ik00MzQuODI5IDQ0Mi41NzFoODQuNDUydjI2LjQ5OWgtODQuNDUyek00MzQuODI5IDQ5OC4wNDRoOTcuNzAydjI2LjQ5M2gtOTcuNzAyeiIvPjxwYXRoIGZpbGw9IiMyMUE0RDQiIGQ9Ik00MzIuODYgNDQyLjU3MWgyNi40OTR2MTI0LjJINDMyLjg2ek01MTMuNDg4IDQ0Mi41NzFoMjYuNDk0djgxLjk2NmgtMjYuNDk0eiIvPjwvc3ZnPg==;fontFamily=Times New Roman;fontSize=14;" parent="MM1KDcKoI-MTzxc4Ed4U-1" vertex="1">
          <mxGeometry y="80" width="55" height="55" as="geometry" />
        </mxCell>
        <mxCell id="MM1KDcKoI-MTzxc4Ed4U-6" value="" style="shape=image;verticalLabelPosition=bottom;labelBackgroundColor=default;verticalAlign=top;aspect=fixed;imageAspect=0;image=data:image/svg+xml,PHN2ZyB4bWxuczp4bGluaz0iaHR0cDovL3d3dy53My5vcmcvMTk5OS94bGluayIgeG1sbnM9Imh0dHA6Ly93d3cudzMub3JnLzIwMDAvc3ZnIiBoZWlnaHQ9IjIwMCIgd2lkdGg9IjIwMCIgdmVyc2lvbj0iMS4xIiB2aWV3Qm94PSIwIDAgMTAyNCAxMDI0IiBjbGFzcz0iaWNvbiI+PHBhdGggZmlsbD0iIzM4NDI0NCIgZD0iTTE4OC45NjYgMjA0LjQwOGg2MDAuNTQxdjYwMC41MjhIMTg4Ljk2NnoiLz48cGF0aCBmaWxsPSIjRkZGRkZGIiBkPSJNMjY4LjEwMSAyODMuNTNoNDQyLjI3M3Y0NDIuMjgxSDI2OC4xMDF6Ii8+PHBhdGggZmlsbD0iIzY5NkY2RiIgZD0iTTMwMi43NzggMTE4LjM2NmgyMi41ODd2ODYuMDQyaC0yMi41ODd6TTM1Mi44MjEgMTE4LjM2NmgyMi41OTZ2ODYuMDQyaC0yMi41OTZ6TTQwMi44NzcgMTE4LjM2NmgyMi41ODh2ODYuMDQyaC0yMi41ODh6TTQ1Mi45MiAxMTguMzY2aDIyLjU4OHY4Ni4wNDJINDUyLjkyek01MDIuOTY2IDExOC4zNjZoMjIuNTk2djg2LjA0MmgtMjIuNTk2ek01NTMuMDEzIDExOC4zNjZoMjIuNTkxdjg2LjA0MmgtMjIuNTkxek02MDMuMDU2IDExOC4zNjZoMjIuNTk5djg2LjA0MmgtMjIuNTk5ek02NTMuMTA4IDExOC4zNjZoMjIuNTl2ODYuMDQyaC0yMi41OXoiLz48cGF0aCBmaWxsPSIjNjk2RjZGIiBkPSJNMzAyLjc3OCA4MDQuOTM2aDIyLjU4N3Y4Ni4wMzFoLTIyLjU4N3pNMzUyLjgyMSA4MDQuOTM2aDIyLjU5NnY4Ni4wMzFoLTIyLjU5NnpNNDAyLjg3NyA4MDQuOTM2aDIyLjU4OHY4Ni4wMzFoLTIyLjU4OHpNNDUyLjkyIDgwNC45MzZoMjIuNTg4djg2LjAzMUg0NTIuOTJ6TTUwMi45NjYgODA0LjkzNmgyMi41OTZ2ODYuMDMxaC0yMi41OTZ6TTU1My4wMTMgODA0LjkzNmgyMi41OTF2ODYuMDMxaC0yMi41OTF6TTYwMy4wNTYgODA0LjkzNmgyMi41OTl2ODYuMDMxaC0yMi41OTl6TTY1My4xMDggODA0LjkzNmgyMi41OXY4Ni4wMzFoLTIyLjU5eiIvPjxwYXRoIGZpbGw9IiM2OTZGNkYiIGQ9Ik03ODkuNTA3IDMxOC4yMDhoODYuMDMydjIyLjU4OGgtODYuMDMyek03ODkuNTA3IDM2OC4yNTRoODYuMDMydjIyLjU4OGgtODYuMDMyek03ODkuNTA3IDQxOC4zaDg2LjAzMnYyMi41OTVoLTg2LjAzMnpNNzg5LjUwNyA0NjguMzU0aDg2LjAzMnYyMi41ODVoLTg2LjAzMnpNNzg5LjUwNyA1MTguMzk1aDg2LjAzMnYyMi41OWgtODYuMDMyek03ODkuNTA3IDU2OC40NDNoODYuMDMydjIyLjU5MmgtODYuMDMyek03ODkuNTA3IDYxOC40OWg4Ni4wMzJ2MjIuNTk0aC04Ni4wMzJ6TTc4OS41MDcgNjY4LjUzOWg4Ni4wMzJ2MjIuNTg4aC04Ni4wMzJ6Ii8+PHBhdGggZmlsbD0iIzY5NkY2RiIgZD0iTTEwMi45MzYgMzE4LjIwOGg4Ni4wM3YyMi41ODhoLTg2LjAzek0xMDIuOTM2IDM2OC4yNTRoODYuMDN2MjIuNTg4aC04Ni4wM3pNMTAyLjkzNiA0MTguM2g4Ni4wM3YyMi41OTVoLTg2LjAzek0xMDIuOTM2IDQ2OC4zNTRoODYuMDN2MjIuNTg1aC04Ni4wM3pNMTAyLjkzNiA1MTguMzk1aDg2LjAzdjIyLjU5aC04Ni4wM3pNMTAyLjkzNiA1NjguNDQzaDg2LjAzdjIyLjU5MmgtODYuMDN6TTEwMi45MzYgNjE4LjQ5aDg2LjAzdjIyLjU5NGgtODYuMDN6TTEwMi45MzYgNjY4LjUzOWg4Ni4wM3YyMi41ODhoLTg2LjAzeiIvPjxwYXRoIGZpbGw9IiMyMUE0RDQiIGQ9Ik0zMjEuNiA0NDIuNTcxaDg0LjQ1NnYyNi40OTlIMzIxLjZ6TTMyMS42IDU0MC4yNzVoODQuNDU2djI2LjQ5NkgzMjEuNnoiLz48cGF0aCBmaWxsPSIjMjFBNEQ0IiBkPSJNMzE5LjYyOSA0NDIuNTcxaDI2LjQ5NnYxMjQuMmgtMjYuNDk2eiIvPjxwYXRoIGZpbGw9IiMyMUE0RDQiIGQ9Ik01NjEuMTQ0IDQ0Mi4wMTdoMjYuNDk2djEyNS4zMDFoLTI2LjQ5NnpNNjMyLjM1IDQ0Mi4wMTdoMjYuNDk2djEyNS4zMDFINjMyLjM1eiIvPjxwYXRoIGZpbGw9IiMyMUE0RDQiIGQ9Ik01NjEuMTQ0IDU0MC44MjJoOTcuNzAydjI2LjQ5NmgtOTcuNzAyeiIvPjxwYXRoIGZpbGw9IiMyMUE0RDQiIGQ9Ik00MzQuODI5IDQ0Mi41NzFoODQuNDUydjI2LjQ5OWgtODQuNDUyek00MzQuODI5IDQ5OC4wNDRoOTcuNzAydjI2LjQ5M2gtOTcuNzAyeiIvPjxwYXRoIGZpbGw9IiMyMUE0RDQiIGQ9Ik00MzIuODYgNDQyLjU3MWgyNi40OTR2MTI0LjJINDMyLjg2ek01MTMuNDg4IDQ0Mi41NzFoMjYuNDk0djgxLjk2NmgtMjYuNDk0eiIvPjwvc3ZnPg==;fontFamily=Times New Roman;fontSize=14;" parent="MM1KDcKoI-MTzxc4Ed4U-1" vertex="1">
          <mxGeometry x="45" y="80" width="55" height="55" as="geometry" />
        </mxCell>
        <mxCell id="MM1KDcKoI-MTzxc4Ed4U-11" style="edgeStyle=orthogonalEdgeStyle;rounded=0;orthogonalLoop=1;jettySize=auto;html=1;exitX=1;exitY=0.5;exitDx=0;exitDy=0;fontFamily=Times New Roman;fontSize=14;" parent="1" source="MM1KDcKoI-MTzxc4Ed4U-7" target="MM1KDcKoI-MTzxc4Ed4U-10" edge="1">
          <mxGeometry relative="1" as="geometry" />
        </mxCell>
        <mxCell id="MM1KDcKoI-MTzxc4Ed4U-7" value="" style="shape=image;verticalLabelPosition=bottom;labelBackgroundColor=default;verticalAlign=top;aspect=fixed;imageAspect=0;image=data:image/svg+xml,PHN2ZyB4bWxuczp4bGluaz0iaHR0cDovL3d3dy53My5vcmcvMTk5OS94bGluayIgeG1sbnM9Imh0dHA6Ly93d3cudzMub3JnLzIwMDAvc3ZnIiBoZWlnaHQ9IjIwMCIgd2lkdGg9IjIwMCIgdmVyc2lvbj0iMS4xIiB2aWV3Qm94PSIwIDAgMTAyNCAxMDI0IiBjbGFzcz0iaWNvbiI+PHBhdGggZmlsbD0iIzJCODVGQiIgZD0iTTY2NS42IDUwOS45NTJIMzQ3LjY0OGMtMTIuOCAwLTIxLjUwNCA4LjcwNC0yMS41MDQgMjEuNTA0djIwNC44YzAgMTIuOCA4LjcwNCAyMS41MDQgMjEuNTA0IDIxLjUwNGgzMTUuOTA0YzEyLjggMCAyMS41MDQtOC43MDQgMjEuNTA0LTIxLjUwNHYtMjA0LjhjMi4wNDgtMTIuOC04LjcwNC0yMS41MDQtMTkuNDU2LTIxLjUwNHogbS0xMzIuMDk2IDE1MS41NTJzMCAyLjA0OCAwIDBjMCAxMi44LTguNzA0IDIzLjU1Mi0yMS41MDQgMjMuNTUycy0yMS41MDQtOC43MDQtMjEuNTA0LTIxLjUwNHYtMi4wNDhjLTEyLjgtNi4xNDQtMjEuNTA0LTIxLjUwNC0yMS41MDQtMzYuMzUyIDAtMjMuNTUyIDE5LjQ1Ni00Mi40OTYgNDIuNDk2LTQyLjQ5NnM0Mi40OTYgMTkuNDU2IDQyLjQ5NiA0Mi40OTZjMC41MTIgMTQuODQ4LTcuNjggMjkuNjk2LTIwLjQ4IDM2LjM1MnoiLz48cGF0aCBmaWxsPSIjMkI4NUZCIiBkPSJNOTgxLjUwNCA0OTIuNTQ0Qzk3MC43NTIgMjQzLjIgNzYzLjkwNCA0NC41NDQgNTEyIDQ0LjU0NFM1My4yNDggMjQzLjIgNDIuNDk2IDQ5Mi41NDR2MzEuNzQ0QzQ4LjY0IDc3OC4yNCAyNTYgOTgzLjA0IDUxMiA5ODMuMDRzNDYyLjg0OC0yMDQuOCA0NjkuNTA0LTQ1OC43NTJ2LTMxLjc0NHogbS0xNzEuMDA4LTIxOS42NDhjLTQyLjQ5NiAzNC4zMDQtOTEuNjQ4IDUxLjItMTMwLjA0OCA2MS45NTItMjMuNTUyLTg3LjU1Mi02NC0xNTkuNzQ0LTEwOC41NDQtMTk4LjE0NCA5NS43NDQgMTQuODQ4IDE3OS4yIDY0IDIzOC41OTIgMTM2LjE5MnogbS0zNTguNC0xMzYuMTkyQzQwOS42IDE3NS4xMDQgMzY5LjE1MiAyNDcuMjk2IDM0NS42IDMzMi44Yy0zOC40LTEwLjc1Mi04NS41MDQtMjcuNjQ4LTEyOC02MS45NTJDMjc1LjQ1NiAxOTguNjU2IDM1OC40IDE1MS41NTIgNDUyLjA5NiAxMzYuNzA0eiBtMzczLjI0OCA1OTYuOTkyYy0xNi44OTYtMTQuODQ4LTM4LjQtMjcuNjQ4LTU5LjkwNC00MC40NDgtMjkuNjk2LTE0Ljg0OC00NS4wNTYgMTQuODQ4LTE2Ljg5NiAyNy42NDggMTkuNDU2IDguNzA0IDM4LjQgMjEuNTA0IDU3LjM0NCAzNi4zNTItNjEuOTUyIDc0Ljc1Mi0xNDkuNTA0IDEyMy45MDQtMjQ5Ljg1NiAxMzQuNjU2IDIxLjUwNC0xNC44NDggNDUuMDU2LTQwLjQ0OCA2NC03Mi43MDQgNi42NTYtMTYuODk2LTIxLjUwNC0yNy42NDgtMzYuMzUyLTIuMDQ4LTI1LjYgMzYuMzUyLTUxLjIgNTcuMzQ0LTc0Ljc1MiA1Ny4zNDQtMjEuNTA0IDAtNDkuMTUyLTIxLjUwNC03Mi43MDQtNTUuMjk2LTIxLjUwNC0zMS43NDQtNDIuNDk2LTE0Ljg0OC0zOC40IDAgMTkuNDU2IDI5LjY5NiA0MC40NDggNTMuMjQ4IDYxLjk1MiA3MC42NTYtOTguMzA0LTguNzA0LTE4My4yOTYtNTcuMzQ0LTI0My4yLTEzMC4wNDggMTkuNDU2LTE0Ljg0OCAzOC40LTI3LjY0OCA1Ny4zNDQtMzYuMzUyIDI3LjY0OC0xNC44NDggMTAuNzUyLTQyLjQ5Ni0xNi44OTYtMjcuNjQ4LTE5LjQ1NiAxMC43NTItNDAuNDQ4IDIzLjU1Mi01OS45MDQgMzguNC00Mi40OTYtNTkuOTA0LTY2LjA0OC0xMzIuMDk2LTY4LjA5Ni0yMDguODk2SDI2MS4xMmM4LjcwNCAwIDE2Ljg5Ni02LjY1NiAxNi44OTYtMTYuODk2UzI3MS44NzIgNDkxLjUyIDI2MS4xMiA0OTEuNTJIMTMwLjA0OGM0LjA5Ni03Mi43MDQgMjcuNjQ4LTE0MC44IDY4LjA5Ni0xOTguMTQ0IDM4LjQgMzQuMzA0IDkxLjY0OCA1NS4yOTYgMTM4Ljc1MiA2OC4wOTYtNC4wOTYgMjEuNTA0LTguNzA0IDQyLjQ5Ni0xMC43NTIgNjYuMDQ4IDAgMTkuNDU2IDMyLjI1NiAxOS40NTYgMzIuMjU2IDAgMTYuODk2LTE0OS41MDQgOTYuMjU2LTI4My42NDggMTUzLjYtMjgzLjY0OHMxMzYuNzA0IDEzNi43MDQgMTU1LjY0OCAyODguMjU2YzIuMDQ4IDE5LjQ1NiAzNC4zMDQgMTYuODk2IDMxLjc0NCAwLTIuMDQ4LTIxLjUwNC02LjY1Ni00Mi40OTYtMTAuNzUyLTY0IDQ5LjE1Mi0xMi44IDEwMi40LTM0LjMwNCAxNDAuOC02OC4wOTYgMzguNCA1NS4yOTYgNjEuOTUyIDEyMy45MDQgNjYuMDQ4IDE5NC4wNDhoLTEzMi4wOTZjLTguNzA0IDAtMTYuODk2IDYuMTQ0LTE2Ljg5NiAxNi44OTYgMCAxMC43NTIgNi4xNDQgMTYuODk2IDE2Ljg5NiAxNi44OTZIODk2Yy0yLjA0OCA3NS43NzYtMjcuNjQ4IDE0Ni40MzItNzAuNjU2IDIwNS44MjR6Ii8+PHBhdGggZmlsbD0iIzJCODVGQiIgZD0iTTUxMiAzMTcuOTUyYy01OS45MDQgMC0xMDYuNDk2IDQ3LjEwNC0xMDYuNDk2IDEwNi40OTZ2MzEuNzQ0aDQyLjQ5NnYtMzEuNzQ0YzAtMzQuMzA0IDI3LjY0OC02NCA2NC02NHM2NCAyNy42NDggNjQgNjR2MTQ5LjUwNGg0Mi40OTZWNDI0LjQ0OGMwLTU5LjkwNC00Ni41OTItMTA2LjQ5Ni0xMDYuNDk2LTEwNi40OTZ6Ii8+PC9zdmc+;fontFamily=Times New Roman;fontSize=14;" parent="1" vertex="1">
          <mxGeometry x="-590" y="315" width="40" height="40" as="geometry" />
        </mxCell>
        <mxCell id="MM1KDcKoI-MTzxc4Ed4U-10" value="" style="shape=image;verticalLabelPosition=bottom;labelBackgroundColor=default;verticalAlign=top;aspect=fixed;imageAspect=0;image=data:image/svg+xml,PHN2ZyB4bWxuczp4bGluaz0iaHR0cDovL3d3dy53My5vcmcvMTk5OS94bGluayIgeG1sbnM9Imh0dHA6Ly93d3cudzMub3JnLzIwMDAvc3ZnIiBoZWlnaHQ9IjIwMCIgd2lkdGg9IjIwMCIgdmVyc2lvbj0iMS4xIiB2aWV3Qm94PSIwIDAgMTAyNCAxMDI0IiBjbGFzcz0iaWNvbiI+PHBhdGggZmlsbD0iIiBkPSJNOTA5Ljk4OSAzNDMuMjgxYy0yMS43Ni01MS40NDYtNTIuOTA0LTk3LjY0My05Mi41NjgtMTM3LjMwNy0zOS42NjMtMzkuNjY0LTg1Ljg2LTcwLjgwOC0xMzcuMzA2LTkyLjU2OC01My4yOC0yMi41MzYtMTA5Ljg1OC0zMy45NjItMTY4LjE2NC0zMy45NjJTMzk3LjA2NyA5MC44NyAzNDMuNzg3IDExMy40MDZjLTUxLjQ0NiAyMS43Ni05Ny42NDMgNTIuOTA0LTEzNy4zMDcgOTIuNTY4LTM5LjY2NCAzOS42NjQtNzAuODA4IDg1Ljg2LTkyLjU2OCAxMzcuMzA3LTIyLjUzNiA1My4yOC0zMy45NjIgMTA5Ljg1OC0zMy45NjIgMTY4LjE2NHMxMS40MjYgMTE0Ljg4NCAzMy45NjIgMTY4LjE2NGMyMS43NiA1MS40NDUgNTIuOTA0IDk3LjY0MyA5Mi41NjggMTM3LjMwNiAzOS42NjQgMzkuNjY0IDg1Ljg2IDcwLjgwOSAxMzcuMzA3IDkyLjU2OCA1My4yOCAyMi41MzUgMTA5Ljg1OCAzMy45NjIgMTY4LjE2NCAzMy45NjJzMTE0Ljg4NC0xMS40MjcgMTY4LjE2NC0zMy45NjJjNTEuNDQ1LTIxLjc2IDk3LjY0My01Mi45MDQgMTM3LjMwNi05Mi41NjggMzkuNjY0LTM5LjY2MyA3MC44MDktODUuODYgOTIuNTY4LTEzNy4zMDYgMjIuNTM1LTUzLjI4IDMzLjk2Mi0xMDkuODU4IDMzLjk2Mi0xNjguMTY0cy0xMS40MjctMTE0Ljg4NC0zMy45NjItMTY4LjE2NHpNNTQzLjk1MSAzNzYuMDNjMTcuNTctMC4yNDMgMzUuMDk1LTAuNjgzIDUyLjUzNi0xLjM2OGExOTkwLjc2MiAxOTkwLjc2MiAwIDAgMCA5MS4xMzEtNS42NzhjMTAuMTU3IDM0LjM3OCAxNi42NDMgNzEuMzE0IDE5LjM4OSAxMTAuNDZINTQzLjk1MVYzNzYuMDN6IG0wLTY0LjA2OVYxNjMuNDFjMTcuNjE3IDEyLjE3NiAzOS4zNzIgMjkuODQ1IDYxLjA3NCA1NC4xOTcgMjMuNDIgMjYuMjggNDMuMTA5IDU2LjEzOCA1OC43ODQgODkuMDE5LTQxLjkzNyAzLjE0Ny04Mi4xMTcgNC43ODMtMTE5Ljg1OCA1LjMzNXogbS02NC0xNDQuNzYzdjE0NC43MDVhMjAzOC41NzIgMjAzOC41NzIgMCAwIDEtMTAzLjQxLTQuMzA5IDE5MjkuNiAxOTI5LjYgMCAwIDEtMTEuMTgzLTAuNzg2YzE1LjE5NS0zMS45MTUgMzQuMTc1LTYwLjk5MSA1Ni42NzYtODYuNzExIDIwLjI4NC0yMy4xODUgNDAuNzIyLTQwLjQ5IDU3LjkxNy01Mi44OTl6TTM3MC44NDIgMzcxLjM1NGEyMTI0LjMwMSAyMTI0LjMwMSAwIDAgMCAxMDkuMTA5IDQuNjA2djEwMy40ODRIMzIyLjI1YzIuNzQyLTM5LjA3OSA5LjIwOC03NS45NiAxOS4zMzUtMTEwLjI4NSA5LjQ1MyAwLjc3NiAxOS4yMSAxLjUxMiAyOS4yNTcgMi4xOTV6IG0tMTEyLjczMSAxMDguMDlIMTQ1LjM0MmMzLjkxNi00NS43NTcgMTYuMjA4LTg5Ljc3OCAzNi4xMzktMTMwLjI3NiAyMC4yNTcgMy41NzggNTIuODM2IDguNzU5IDk1LjQwNyAxMy42NDEtOS45MDIgMzYuNjk5LTE2LjE4MiA3NS42ODItMTguNzc3IDExNi42MzV6IG0tMC44NTkgNjRjMS45NzUgMzkuMTQ0IDkuNzEyIDc4LjI0MiAyMy4xMDEgMTE2Ljc5OS00NC4wOTMgNC45NzYtNzcuNzk3IDEwLjMxOS05OC42MjEgMTMuOTkyLTIwLjA4LTQwLjY0LTMyLjQ1OC04NC44NDEtMzYuMzktMTMwLjc5MmgxMTEuOTF6IG02NC4wOTggMGgxNTguNjAxdjEwNC4wNDhjLTM2LjM3IDAuNjAyLTcyLjgxOCAyLjEzLTEwOS4xMDkgNC42MDEtOC40MSAwLjU3My0xNi42MTIgMS4xODItMjQuNjA5IDEuODIxLTE0LjMyMi0zNi41MjMtMjIuNjU5LTczLjU0My0yNC44ODMtMTEwLjQ3eiBtMTU4LjYwMSAxNjguMTAzdjEzMS43MTJjLTE2Ljk3NC0xNS44NzctMzYuNTc0LTM1Ljk2Mi01Ni4wMzgtNTkuNzM1LTE4LjA2NC0yMi4wNjQtMzMuODkyLTQ0LjY5OC00Ny4zNzktNjcuNjY4YTIwMzguMzggMjAzOC4zOCAwIDAgMSAxMDMuNDE3LTQuMzA5eiBtNjQgMTM2LjY2NVY3MTEuNDg3YzM0LjM4NyAwLjUwMyA3MC43ODIgMS45MDMgMTA4LjY4IDQuNTI3LTEzLjQ2NyAyMi45MTUtMjkuMjYzIDQ1LjQ5Ni00Ny4yODYgNjcuNTA5LTIxLjU0NyAyNi4zMi00My4yNjIgNDguMTE5LTYxLjM5NCA2NC42ODl6IG01Mi41MzYtMTk5LjQyNmEyMDYzLjE4NyAyMDYzLjE4NyAwIDAgMC01Mi41MzYtMS4zODRWNTQzLjQ0NGgxNjMuOTU4Yy0yLjIyNyAzNi45NzUtMTAuNTgyIDc0LjA0NS0yNC45MzkgMTEwLjYxNWExOTk0Ljk3MiAxOTk0Ljk3MiAwIDAgMC04Ni40ODMtNS4yNzN6IG0xNzUuNTIxLTEwNS4zNDJIODc4LjU2Yy0zLjkyOCA0NS44OTgtMTYuMjgzIDkwLjA1MS0zNi4zMjIgMTMwLjY1MmExODIyLjg0IDE4MjIuODQgMCAwIDAtOTMuNDc2LTEzLjQzOWMxMy40NzgtMzguNjkxIDIxLjI2NC03Ny45MjkgMjMuMjQ2LTExNy4yMTN6IG0tMC44NTktNjRjLTIuNjA1LTQxLjExMS04LjkyNC04MC4yMzgtMTguODkxLTExNy4wNjFhMTgyMS40OTEgMTgyMS40OTEgMCAwIDAgOTAuMjMzLTEzLjA3NWMxOS44OSA0MC40NiAzMi4xNTggODQuNDMyIDM2LjA3IDEzMC4xMzZINzcxLjE0OXogbTEuMDE3LTIyOC4yMTVhMzczLjE4OCAzNzMuMTg4IDAgMCAxIDM0LjA0NiAzOS4xNTUgMTc3Mi44NTMgMTc3Mi44NTMgMCAwIDEtNzUuMTE3IDkuOThjLTE5LjUyOS00Ni43ODUtNDUuODI1LTg4LjkxLTc4LjI5MS0xMjUuMzM4YTQyMy44NjMgNDIzLjg2MyAwIDAgMC01LjM4Ni01LjkyN2M0Ni4xODUgMTguMjYzIDg4LjU3MyA0NS45NTUgMTI0Ljc0OCA4Mi4xM3pNMzg0LjgxIDE2NS45MjNhNDIwLjc4OCA0MjAuNzg4IDAgMCAwLTguMzU1IDkuMTAyYy0zMi41NTIgMzYuNTI1LTU4LjkwNCA3OC43NzUtNzguNDQ5IDEyNS43MS0zMi4zNTctMy40ODQtNTkuNDgtNy4yNDQtODAuMjI2LTEwLjQ2OWEzNzMuMzg2IDM3My4zODYgMCAwIDEgMzMuOTU2LTM5LjAzN2MzOC4zMzgtMzguMzM4IDgzLjY1NC02Ny4xNTIgMTMzLjA3NC04NS4zMDZ6TTI1MS43MzYgNzcxLjY1OWEzNzMuNDQ0IDM3My40NDQgMCAwIDEtMzMuNTg0LTM4LjU0OGMyMi41MjYtMy40OTggNTIuNTI5LTcuNjE0IDg4LjYyNi0xMS4zMjggMTguMjI5IDM1LjU0MiA0MS4zMSA3MC4zNTYgNjguODY3IDEwMy44MDhhNjc4LjA2OCA2NzguMDY4IDAgMCAwIDM1LjcyNyAzOS45OTVjLTU5Ljc1Ny0xNi44NzUtMTE0LjUyNC00OC44MTQtMTU5LjYzNi05My45Mjd6IG0zNjguMjQ5IDkxLjc0NWE2NzcuMDMyIDY3Ny4wMzIgMCAwIDAgMzMuNjI5LTM3LjgxNGMyNy40NjktMzMuMzQ0IDUwLjQ4Ny02OC4wNDMgNjguNjg5LTEwMy40NjZhMTc4MC4zMTUgMTc4MC4zMTUgMCAwIDEgODMuNTI4IDEwLjg4IDM3My4zNCAzNzMuMzQgMCAwIDEtMzMuNjY1IDM4LjY1NGMtNDMuMjMgNDMuMjMyLTk1LjMyNCA3NC4zNzMtMTUyLjE4MSA5MS43NDZ6Ii8+PC9zdmc+;fontFamily=Times New Roman;fontSize=14;" parent="1" vertex="1">
          <mxGeometry x="-450" y="280" width="110" height="110" as="geometry" />
        </mxCell>
      </root>
    </mxGraphModel>
  </diagram>
  <diagram id="ulVVqdD6wapIZiyZOsqy" name="Page-4">
    <mxGraphModel dx="2631" dy="1005" grid="1" gridSize="10" guides="1" tooltips="1" connect="1" arrows="1" fold="1" page="1" pageScale="1" pageWidth="850" pageHeight="1100" math="0" shadow="0">
      <root>
        <mxCell id="0" />
        <mxCell id="1" parent="0" />
        <mxCell id="rhpsxSdR3AvD_BGeEZFR-46" value="" style="rounded=0;whiteSpace=wrap;html=1;" parent="1" vertex="1">
          <mxGeometry x="570.24" y="570" width="240" height="50" as="geometry" />
        </mxCell>
        <mxCell id="WUWI_GvQqqqH76l4evPQ-1" value="" style="endArrow=none;dashed=1;html=1;dashPattern=1 3;strokeWidth=2;rounded=0;" parent="1" edge="1">
          <mxGeometry width="50" height="50" relative="1" as="geometry">
            <mxPoint x="-4.76" y="190" as="sourcePoint" />
            <mxPoint x="595.24" y="190" as="targetPoint" />
          </mxGeometry>
        </mxCell>
        <mxCell id="rhpsxSdR3AvD_BGeEZFR-45" value="" style="rounded=0;whiteSpace=wrap;html=1;" parent="1" vertex="1">
          <mxGeometry x="570.24" y="570" width="240" height="130" as="geometry" />
        </mxCell>
        <mxCell id="WUWI_GvQqqqH76l4evPQ-2" value="" style="endArrow=none;dashed=1;html=1;dashPattern=1 3;strokeWidth=2;rounded=0;" parent="1" edge="1">
          <mxGeometry width="50" height="50" relative="1" as="geometry">
            <mxPoint y="530" as="sourcePoint" />
            <mxPoint x="600" y="530" as="targetPoint" />
          </mxGeometry>
        </mxCell>
        <mxCell id="t6pwAtFOleoMCXi76beE-14" style="edgeStyle=orthogonalEdgeStyle;rounded=0;orthogonalLoop=1;jettySize=auto;html=1;dashed=1;" parent="1" source="WUWI_GvQqqqH76l4evPQ-3" target="t6pwAtFOleoMCXi76beE-5" edge="1">
          <mxGeometry relative="1" as="geometry" />
        </mxCell>
        <mxCell id="WUWI_GvQqqqH76l4evPQ-3" value="&lt;span style=&quot;color: rgb(0, 0, 0); font-family: Helvetica; font-size: 7px; font-style: normal; font-variant-ligatures: normal; font-variant-caps: normal; font-weight: 400; letter-spacing: normal; orphans: 2; text-align: center; text-indent: 0px; text-transform: none; widows: 2; word-spacing: 0px; -webkit-text-stroke-width: 0px; background-color: rgb(251, 251, 251); text-decoration-thickness: initial; text-decoration-style: initial; text-decoration-color: initial; float: none; display: inline !important;&quot;&gt;Module&lt;/span&gt;" style="rounded=0;whiteSpace=wrap;html=1;fillColor=#d5e8d4;strokeColor=#82b366;" parent="1" vertex="1">
          <mxGeometry x="120" y="220" width="130" height="260" as="geometry" />
        </mxCell>
        <mxCell id="WUWI_GvQqqqH76l4evPQ-4" value="" style="rounded=1;whiteSpace=wrap;html=1;" parent="1" vertex="1">
          <mxGeometry x="130" y="245" width="30" height="230" as="geometry" />
        </mxCell>
        <mxCell id="WUWI_GvQqqqH76l4evPQ-5" value="" style="rounded=1;whiteSpace=wrap;html=1;" parent="1" vertex="1">
          <mxGeometry x="170" y="245" width="30" height="230" as="geometry" />
        </mxCell>
        <mxCell id="WUWI_GvQqqqH76l4evPQ-6" value="" style="rounded=1;whiteSpace=wrap;html=1;" parent="1" vertex="1">
          <mxGeometry x="210" y="245" width="30" height="230" as="geometry" />
        </mxCell>
        <mxCell id="t6pwAtFOleoMCXi76beE-16" style="edgeStyle=orthogonalEdgeStyle;rounded=0;orthogonalLoop=1;jettySize=auto;html=1;exitX=0.5;exitY=1;exitDx=0;exitDy=0;dashed=1;" parent="1" source="WUWI_GvQqqqH76l4evPQ-7" target="t6pwAtFOleoMCXi76beE-15" edge="1">
          <mxGeometry relative="1" as="geometry" />
        </mxCell>
        <mxCell id="WUWI_GvQqqqH76l4evPQ-7" value="" style="rounded=0;whiteSpace=wrap;html=1;fillColor=#d5e8d4;strokeColor=#82b366;" parent="1" vertex="1">
          <mxGeometry x="290" y="220" width="90" height="260" as="geometry" />
        </mxCell>
        <mxCell id="WUWI_GvQqqqH76l4evPQ-8" value="" style="rounded=1;whiteSpace=wrap;html=1;" parent="1" vertex="1">
          <mxGeometry x="300" y="245" width="30" height="230" as="geometry" />
        </mxCell>
        <mxCell id="WUWI_GvQqqqH76l4evPQ-9" value="" style="rounded=1;whiteSpace=wrap;html=1;" parent="1" vertex="1">
          <mxGeometry x="340" y="245" width="30" height="230" as="geometry" />
        </mxCell>
        <mxCell id="rhpsxSdR3AvD_BGeEZFR-14" style="edgeStyle=orthogonalEdgeStyle;rounded=0;orthogonalLoop=1;jettySize=auto;html=1;exitX=0.5;exitY=1;exitDx=0;exitDy=0;entryX=0.5;entryY=0;entryDx=0;entryDy=0;dashed=1;strokeColor=#FF0000;" parent="1" source="WUWI_GvQqqqH76l4evPQ-11" target="WUWI_GvQqqqH76l4evPQ-13" edge="1">
          <mxGeometry relative="1" as="geometry">
            <Array as="points">
              <mxPoint x="145" y="390" />
              <mxPoint x="145" y="390" />
            </Array>
          </mxGeometry>
        </mxCell>
        <mxCell id="WUWI_GvQqqqH76l4evPQ-11" value="" style="ellipse;whiteSpace=wrap;html=1;aspect=fixed;fillColor=#f8cecc;strokeColor=#b85450;gradientColor=#ea6b66;" parent="1" vertex="1">
          <mxGeometry x="140" y="250" width="10" height="10" as="geometry" />
        </mxCell>
        <mxCell id="WUWI_GvQqqqH76l4evPQ-13" value="" style="ellipse;whiteSpace=wrap;html=1;aspect=fixed;" parent="1" vertex="1">
          <mxGeometry x="140" y="460" width="10" height="10" as="geometry" />
        </mxCell>
        <mxCell id="WUWI_GvQqqqH76l4evPQ-14" value="&lt;font style=&quot;font-size: 15px;&quot;&gt;Selector&lt;/font&gt;" style="rounded=1;whiteSpace=wrap;html=1;" parent="1" vertex="1">
          <mxGeometry x="507.86" y="195" width="94.76" height="20" as="geometry" />
        </mxCell>
        <mxCell id="t6pwAtFOleoMCXi76beE-21" style="edgeStyle=orthogonalEdgeStyle;rounded=0;orthogonalLoop=1;jettySize=auto;html=1;" parent="1" source="WUWI_GvQqqqH76l4evPQ-15" target="WUWI_GvQqqqH76l4evPQ-14" edge="1">
          <mxGeometry relative="1" as="geometry" />
        </mxCell>
        <mxCell id="t6pwAtFOleoMCXi76beE-22" value="Initialization" style="edgeLabel;html=1;align=center;verticalAlign=middle;resizable=0;points=[];" parent="t6pwAtFOleoMCXi76beE-21" vertex="1" connectable="0">
          <mxGeometry x="-0.0841" relative="1" as="geometry">
            <mxPoint as="offset" />
          </mxGeometry>
        </mxCell>
        <mxCell id="WUWI_GvQqqqH76l4evPQ-15" value="Config" style="swimlane;whiteSpace=wrap;html=1;align=center;" parent="1" vertex="1">
          <mxGeometry x="515.24" y="280" width="80" height="90" as="geometry" />
        </mxCell>
        <mxCell id="WUWI_GvQqqqH76l4evPQ-17" value="stage_1" style="text;html=1;align=center;verticalAlign=middle;resizable=0;points=[];autosize=1;strokeColor=none;fillColor=none;" parent="WUWI_GvQqqqH76l4evPQ-15" vertex="1">
          <mxGeometry x="5" y="40" width="70" height="30" as="geometry" />
        </mxCell>
        <mxCell id="WUWI_GvQqqqH76l4evPQ-18" value="stage_2" style="text;html=1;align=center;verticalAlign=middle;resizable=0;points=[];autosize=1;strokeColor=none;fillColor=none;" parent="WUWI_GvQqqqH76l4evPQ-15" vertex="1">
          <mxGeometry x="5" y="60" width="70" height="30" as="geometry" />
        </mxCell>
        <mxCell id="WUWI_GvQqqqH76l4evPQ-16" value="stage_0" style="text;html=1;align=center;verticalAlign=middle;resizable=0;points=[];autosize=1;strokeColor=none;fillColor=none;" parent="WUWI_GvQqqqH76l4evPQ-15" vertex="1">
          <mxGeometry x="5" y="20" width="70" height="30" as="geometry" />
        </mxCell>
        <mxCell id="WUWI_GvQqqqH76l4evPQ-19" value="&lt;font style=&quot;font-size: 18px;&quot; color=&quot;#99ccff&quot;&gt;Tracing&lt;/font&gt;" style="text;html=1;align=center;verticalAlign=middle;resizable=0;points=[];autosize=1;strokeColor=none;fillColor=none;" parent="1" vertex="1">
          <mxGeometry x="-10" y="340" width="80" height="40" as="geometry" />
        </mxCell>
        <mxCell id="WUWI_GvQqqqH76l4evPQ-20" value="&lt;font color=&quot;#99ccff&quot;&gt;&lt;span style=&quot;font-size: 18px;&quot;&gt;Log&lt;/span&gt;&lt;/font&gt;" style="text;html=1;align=center;verticalAlign=middle;resizable=0;points=[];autosize=1;strokeColor=none;fillColor=none;" parent="1" vertex="1">
          <mxGeometry x="-10" y="545" width="50" height="40" as="geometry" />
        </mxCell>
        <mxCell id="rhpsxSdR3AvD_BGeEZFR-1" value="" style="endArrow=classic;html=1;rounded=0;entryX=0;entryY=0.5;entryDx=0;entryDy=0;strokeColor=#000000;" parent="1" target="WUWI_GvQqqqH76l4evPQ-11" edge="1">
          <mxGeometry width="50" height="50" relative="1" as="geometry">
            <mxPoint y="255" as="sourcePoint" />
            <mxPoint x="90" y="270" as="targetPoint" />
          </mxGeometry>
        </mxCell>
        <mxCell id="rhpsxSdR3AvD_BGeEZFR-32" value="Request" style="edgeLabel;html=1;align=center;verticalAlign=middle;resizable=0;points=[];" parent="rhpsxSdR3AvD_BGeEZFR-1" vertex="1" connectable="0">
          <mxGeometry x="-0.3557" y="1" relative="1" as="geometry">
            <mxPoint x="15" y="1" as="offset" />
          </mxGeometry>
        </mxCell>
        <mxCell id="rhpsxSdR3AvD_BGeEZFR-18" style="edgeStyle=orthogonalEdgeStyle;rounded=0;orthogonalLoop=1;jettySize=auto;html=1;exitX=0.5;exitY=1;exitDx=0;exitDy=0;entryX=0.5;entryY=0;entryDx=0;entryDy=0;strokeColor=#FF0000;dashed=1;" parent="1" source="rhpsxSdR3AvD_BGeEZFR-2" target="rhpsxSdR3AvD_BGeEZFR-4" edge="1">
          <mxGeometry relative="1" as="geometry" />
        </mxCell>
        <mxCell id="rhpsxSdR3AvD_BGeEZFR-2" value="" style="ellipse;whiteSpace=wrap;html=1;aspect=fixed;fillColor=#ffcd28;strokeColor=#d79b00;gradientColor=#ffa500;" parent="1" vertex="1">
          <mxGeometry x="180" y="250" width="10" height="10" as="geometry" />
        </mxCell>
        <mxCell id="rhpsxSdR3AvD_BGeEZFR-3" value="" style="ellipse;whiteSpace=wrap;html=1;aspect=fixed;" parent="1" vertex="1">
          <mxGeometry x="220" y="250" width="10" height="10" as="geometry" />
        </mxCell>
        <mxCell id="rhpsxSdR3AvD_BGeEZFR-4" value="" style="ellipse;whiteSpace=wrap;html=1;aspect=fixed;fillColor=#ffcd28;strokeColor=#d79b00;gradientColor=#ffa500;" parent="1" vertex="1">
          <mxGeometry x="180" y="460" width="10" height="10" as="geometry" />
        </mxCell>
        <mxCell id="rhpsxSdR3AvD_BGeEZFR-5" value="" style="ellipse;whiteSpace=wrap;html=1;aspect=fixed;fillColor=#f8cecc;strokeColor=#b85450;gradientColor=#ea6b66;" parent="1" vertex="1">
          <mxGeometry x="220" y="460" width="10" height="10" as="geometry" />
        </mxCell>
        <mxCell id="rhpsxSdR3AvD_BGeEZFR-22" style="edgeStyle=orthogonalEdgeStyle;rounded=0;orthogonalLoop=1;jettySize=auto;html=1;exitX=0.5;exitY=1;exitDx=0;exitDy=0;entryX=0.5;entryY=0;entryDx=0;entryDy=0;dashed=1;strokeColor=#3333FF;" parent="1" source="rhpsxSdR3AvD_BGeEZFR-6" target="rhpsxSdR3AvD_BGeEZFR-7" edge="1">
          <mxGeometry relative="1" as="geometry" />
        </mxCell>
        <mxCell id="rhpsxSdR3AvD_BGeEZFR-6" value="" style="ellipse;whiteSpace=wrap;html=1;aspect=fixed;fillColor=#f8cecc;gradientColor=#ea6b66;strokeColor=#b85450;" parent="1" vertex="1">
          <mxGeometry x="310" y="250" width="10" height="10" as="geometry" />
        </mxCell>
        <mxCell id="rhpsxSdR3AvD_BGeEZFR-7" value="" style="ellipse;whiteSpace=wrap;html=1;aspect=fixed;" parent="1" vertex="1">
          <mxGeometry x="310" y="460" width="10" height="10" as="geometry" />
        </mxCell>
        <mxCell id="rhpsxSdR3AvD_BGeEZFR-24" style="edgeStyle=orthogonalEdgeStyle;rounded=0;orthogonalLoop=1;jettySize=auto;html=1;exitX=0.5;exitY=1;exitDx=0;exitDy=0;entryX=0.5;entryY=0;entryDx=0;entryDy=0;strokeColor=#3333FF;dashed=1;" parent="1" source="rhpsxSdR3AvD_BGeEZFR-8" target="rhpsxSdR3AvD_BGeEZFR-9" edge="1">
          <mxGeometry relative="1" as="geometry" />
        </mxCell>
        <mxCell id="rhpsxSdR3AvD_BGeEZFR-8" value="" style="ellipse;whiteSpace=wrap;html=1;aspect=fixed;" parent="1" vertex="1">
          <mxGeometry x="350" y="250" width="10" height="10" as="geometry" />
        </mxCell>
        <mxCell id="rhpsxSdR3AvD_BGeEZFR-9" value="" style="ellipse;whiteSpace=wrap;html=1;aspect=fixed;fillColor=#f8cecc;gradientColor=#ea6b66;strokeColor=#b85450;" parent="1" vertex="1">
          <mxGeometry x="350" y="460" width="10" height="10" as="geometry" />
        </mxCell>
        <mxCell id="rhpsxSdR3AvD_BGeEZFR-17" value="" style="endArrow=classic;html=1;rounded=0;entryX=0;entryY=0.5;entryDx=0;entryDy=0;dashed=1;strokeColor=#FF0000;" parent="1" source="WUWI_GvQqqqH76l4evPQ-13" target="rhpsxSdR3AvD_BGeEZFR-2" edge="1">
          <mxGeometry width="50" height="50" relative="1" as="geometry">
            <mxPoint x="150" y="470" as="sourcePoint" />
            <mxPoint x="200" y="420" as="targetPoint" />
          </mxGeometry>
        </mxCell>
        <mxCell id="rhpsxSdR3AvD_BGeEZFR-19" style="edgeStyle=orthogonalEdgeStyle;rounded=0;orthogonalLoop=1;jettySize=auto;html=1;exitX=0.5;exitY=1;exitDx=0;exitDy=0;entryX=0.5;entryY=0;entryDx=0;entryDy=0;strokeColor=#FF0000;dashed=1;" parent="1" source="rhpsxSdR3AvD_BGeEZFR-3" target="rhpsxSdR3AvD_BGeEZFR-5" edge="1">
          <mxGeometry relative="1" as="geometry">
            <mxPoint x="195" y="270" as="sourcePoint" />
            <mxPoint x="195" y="470" as="targetPoint" />
          </mxGeometry>
        </mxCell>
        <mxCell id="rhpsxSdR3AvD_BGeEZFR-20" value="" style="endArrow=classic;html=1;rounded=0;entryX=0;entryY=0.5;entryDx=0;entryDy=0;dashed=1;strokeColor=#FF0000;exitX=0.5;exitY=0;exitDx=0;exitDy=0;" parent="1" source="rhpsxSdR3AvD_BGeEZFR-4" target="rhpsxSdR3AvD_BGeEZFR-3" edge="1">
          <mxGeometry width="50" height="50" relative="1" as="geometry">
            <mxPoint x="156" y="470" as="sourcePoint" />
            <mxPoint x="190" y="265" as="targetPoint" />
          </mxGeometry>
        </mxCell>
        <mxCell id="rhpsxSdR3AvD_BGeEZFR-21" value="" style="endArrow=classic;html=1;rounded=0;entryX=0;entryY=0.5;entryDx=0;entryDy=0;strokeColor=#000000;exitX=0.5;exitY=0;exitDx=0;exitDy=0;" parent="1" source="rhpsxSdR3AvD_BGeEZFR-5" target="rhpsxSdR3AvD_BGeEZFR-6" edge="1">
          <mxGeometry width="50" height="50" relative="1" as="geometry">
            <mxPoint x="195" y="470" as="sourcePoint" />
            <mxPoint x="230" y="265" as="targetPoint" />
          </mxGeometry>
        </mxCell>
        <mxCell id="rhpsxSdR3AvD_BGeEZFR-23" value="" style="endArrow=classic;html=1;rounded=0;entryX=0;entryY=0.5;entryDx=0;entryDy=0;dashed=1;strokeColor=#3333FF;exitX=0.5;exitY=0;exitDx=0;exitDy=0;" parent="1" source="rhpsxSdR3AvD_BGeEZFR-7" target="rhpsxSdR3AvD_BGeEZFR-8" edge="1">
          <mxGeometry width="50" height="50" relative="1" as="geometry">
            <mxPoint x="195" y="470" as="sourcePoint" />
            <mxPoint x="230" y="265" as="targetPoint" />
          </mxGeometry>
        </mxCell>
        <mxCell id="t6pwAtFOleoMCXi76beE-19" style="edgeStyle=orthogonalEdgeStyle;rounded=0;orthogonalLoop=1;jettySize=auto;html=1;exitX=0.5;exitY=1;exitDx=0;exitDy=0;dashed=1;" parent="1" source="rhpsxSdR3AvD_BGeEZFR-26" target="t6pwAtFOleoMCXi76beE-17" edge="1">
          <mxGeometry relative="1" as="geometry" />
        </mxCell>
        <mxCell id="rhpsxSdR3AvD_BGeEZFR-26" value="" style="rounded=0;whiteSpace=wrap;html=1;fillColor=#d5e8d4;strokeColor=#82b366;" parent="1" vertex="1">
          <mxGeometry x="420" y="220" width="50" height="260" as="geometry" />
        </mxCell>
        <mxCell id="rhpsxSdR3AvD_BGeEZFR-25" value="" style="rounded=1;whiteSpace=wrap;html=1;" parent="1" vertex="1">
          <mxGeometry x="430" y="245" width="30" height="230" as="geometry" />
        </mxCell>
        <mxCell id="rhpsxSdR3AvD_BGeEZFR-31" style="edgeStyle=orthogonalEdgeStyle;rounded=0;orthogonalLoop=1;jettySize=auto;html=1;exitX=0.5;exitY=1;exitDx=0;exitDy=0;entryX=0.5;entryY=0;entryDx=0;entryDy=0;strokeColor=#66FF66;dashed=1;" parent="1" source="rhpsxSdR3AvD_BGeEZFR-27" target="rhpsxSdR3AvD_BGeEZFR-28" edge="1">
          <mxGeometry relative="1" as="geometry" />
        </mxCell>
        <mxCell id="rhpsxSdR3AvD_BGeEZFR-27" value="" style="ellipse;whiteSpace=wrap;html=1;aspect=fixed;fillColor=#f8cecc;gradientColor=#ea6b66;strokeColor=#b85450;" parent="1" vertex="1">
          <mxGeometry x="440" y="250" width="10" height="10" as="geometry" />
        </mxCell>
        <mxCell id="rhpsxSdR3AvD_BGeEZFR-33" style="edgeStyle=orthogonalEdgeStyle;rounded=0;orthogonalLoop=1;jettySize=auto;html=1;exitX=1;exitY=0.5;exitDx=0;exitDy=0;" parent="1" source="rhpsxSdR3AvD_BGeEZFR-28" edge="1">
          <mxGeometry relative="1" as="geometry">
            <mxPoint x="590" y="465" as="targetPoint" />
          </mxGeometry>
        </mxCell>
        <mxCell id="rhpsxSdR3AvD_BGeEZFR-34" value="Result" style="edgeLabel;html=1;align=center;verticalAlign=middle;resizable=0;points=[];" parent="rhpsxSdR3AvD_BGeEZFR-33" vertex="1" connectable="0">
          <mxGeometry x="0.1687" relative="1" as="geometry">
            <mxPoint as="offset" />
          </mxGeometry>
        </mxCell>
        <mxCell id="rhpsxSdR3AvD_BGeEZFR-28" value="" style="ellipse;whiteSpace=wrap;html=1;aspect=fixed;fillColor=#f8cecc;gradientColor=#ea6b66;strokeColor=#b85450;" parent="1" vertex="1">
          <mxGeometry x="440" y="460" width="10" height="10" as="geometry" />
        </mxCell>
        <mxCell id="rhpsxSdR3AvD_BGeEZFR-30" value="" style="endArrow=classic;html=1;rounded=0;entryX=0;entryY=0.5;entryDx=0;entryDy=0;strokeColor=#000000;exitX=0.5;exitY=0;exitDx=0;exitDy=0;" parent="1" source="rhpsxSdR3AvD_BGeEZFR-9" target="rhpsxSdR3AvD_BGeEZFR-27" edge="1">
          <mxGeometry width="50" height="50" relative="1" as="geometry">
            <mxPoint x="235" y="470" as="sourcePoint" />
            <mxPoint x="320" y="265" as="targetPoint" />
          </mxGeometry>
        </mxCell>
        <mxCell id="rhpsxSdR3AvD_BGeEZFR-37" value="" style="ellipse;whiteSpace=wrap;html=1;aspect=fixed;fillColor=#f8cecc;gradientColor=#ea6b66;strokeColor=#b85450;" parent="1" vertex="1">
          <mxGeometry x="590.24" y="590" width="10" height="10" as="geometry" />
        </mxCell>
        <mxCell id="rhpsxSdR3AvD_BGeEZFR-38" value="" style="ellipse;whiteSpace=wrap;html=1;aspect=fixed;fillColor=#ffcd28;strokeColor=#d79b00;gradientColor=#ffa500;" parent="1" vertex="1">
          <mxGeometry x="590.24" y="670" width="10" height="10" as="geometry" />
        </mxCell>
        <mxCell id="rhpsxSdR3AvD_BGeEZFR-39" value="" style="ellipse;whiteSpace=wrap;html=1;aspect=fixed;" parent="1" vertex="1">
          <mxGeometry x="590.24" y="630" width="10" height="10" as="geometry" />
        </mxCell>
        <mxCell id="rhpsxSdR3AvD_BGeEZFR-42" value="阶段(stage)起始点,自动开启" style="text;html=1;align=center;verticalAlign=middle;resizable=0;points=[];autosize=1;strokeColor=none;fillColor=none;" parent="1" vertex="1">
          <mxGeometry x="615.24" y="580" width="170" height="30" as="geometry" />
        </mxCell>
        <mxCell id="rhpsxSdR3AvD_BGeEZFR-43" value="阶段(stage)内,未选中不活动" style="text;html=1;align=center;verticalAlign=middle;resizable=0;points=[];autosize=1;strokeColor=none;fillColor=none;" parent="1" vertex="1">
          <mxGeometry x="615.24" y="620" width="170" height="30" as="geometry" />
        </mxCell>
        <mxCell id="rhpsxSdR3AvD_BGeEZFR-44" value="阶段(stage)内,Selector选中开启" style="text;html=1;align=center;verticalAlign=middle;resizable=0;points=[];autosize=1;strokeColor=none;fillColor=none;" parent="1" vertex="1">
          <mxGeometry x="615.24" y="660" width="190" height="30" as="geometry" />
        </mxCell>
        <mxCell id="rhpsxSdR3AvD_BGeEZFR-47" value="" style="endArrow=none;html=1;rounded=0;exitX=-0.001;exitY=0.329;exitDx=0;exitDy=0;exitPerimeter=0;entryX=0.994;entryY=0.327;entryDx=0;entryDy=0;entryPerimeter=0;" parent="1" source="rhpsxSdR3AvD_BGeEZFR-45" target="rhpsxSdR3AvD_BGeEZFR-45" edge="1">
          <mxGeometry width="50" height="50" relative="1" as="geometry">
            <mxPoint x="640.24" y="650" as="sourcePoint" />
            <mxPoint x="690.24" y="600" as="targetPoint" />
          </mxGeometry>
        </mxCell>
        <mxCell id="rhpsxSdR3AvD_BGeEZFR-48" value="" style="endArrow=none;html=1;rounded=0;exitX=-0.001;exitY=0.329;exitDx=0;exitDy=0;exitPerimeter=0;entryX=0.994;entryY=0.327;entryDx=0;entryDy=0;entryPerimeter=0;" parent="1" edge="1">
          <mxGeometry width="50" height="50" relative="1" as="geometry">
            <mxPoint x="570.24" y="660" as="sourcePoint" />
            <mxPoint x="809.24" y="660" as="targetPoint" />
          </mxGeometry>
        </mxCell>
        <mxCell id="rhpsxSdR3AvD_BGeEZFR-50" value="" style="shape=crossbar;whiteSpace=wrap;html=1;rounded=1;" parent="1" vertex="1">
          <mxGeometry x="120" y="490" width="130" height="20" as="geometry" />
        </mxCell>
        <mxCell id="rhpsxSdR3AvD_BGeEZFR-52" value="" style="shape=crossbar;whiteSpace=wrap;html=1;rounded=1;" parent="1" vertex="1">
          <mxGeometry x="290" y="490" width="90" height="20" as="geometry" />
        </mxCell>
        <mxCell id="rhpsxSdR3AvD_BGeEZFR-53" value="" style="shape=crossbar;whiteSpace=wrap;html=1;rounded=1;" parent="1" vertex="1">
          <mxGeometry x="422.5" y="490" width="45" height="20" as="geometry" />
        </mxCell>
        <mxCell id="rhpsxSdR3AvD_BGeEZFR-54" value="Stage" style="text;html=1;align=center;verticalAlign=middle;resizable=0;points=[];autosize=1;strokeColor=none;fillColor=none;" parent="1" vertex="1">
          <mxGeometry x="310" y="500" width="50" height="30" as="geometry" />
        </mxCell>
        <mxCell id="rhpsxSdR3AvD_BGeEZFR-55" value="Stage" style="text;html=1;align=center;verticalAlign=middle;resizable=0;points=[];autosize=1;strokeColor=none;fillColor=none;" parent="1" vertex="1">
          <mxGeometry x="420" y="500" width="50" height="30" as="geometry" />
        </mxCell>
        <mxCell id="rhpsxSdR3AvD_BGeEZFR-56" value="&lt;font style=&quot;font-size: 7px;&quot;&gt;Module&lt;/font&gt;" style="text;html=1;align=center;verticalAlign=middle;resizable=0;points=[];autosize=1;strokeColor=none;fillColor=none;" parent="1" vertex="1">
          <mxGeometry x="120" y="215" width="50" height="30" as="geometry" />
        </mxCell>
        <mxCell id="rhpsxSdR3AvD_BGeEZFR-57" value="&lt;font style=&quot;font-size: 7px;&quot;&gt;Module&lt;/font&gt;" style="text;html=1;align=center;verticalAlign=middle;resizable=0;points=[];autosize=1;strokeColor=none;fillColor=none;" parent="1" vertex="1">
          <mxGeometry x="160" y="215" width="50" height="30" as="geometry" />
        </mxCell>
        <mxCell id="rhpsxSdR3AvD_BGeEZFR-58" value="&lt;font style=&quot;font-size: 7px;&quot;&gt;Module&lt;/font&gt;" style="text;html=1;align=center;verticalAlign=middle;resizable=0;points=[];autosize=1;strokeColor=none;fillColor=none;" parent="1" vertex="1">
          <mxGeometry x="200" y="215" width="50" height="30" as="geometry" />
        </mxCell>
        <mxCell id="rhpsxSdR3AvD_BGeEZFR-59" value="&lt;font style=&quot;font-size: 7px;&quot;&gt;Module&lt;/font&gt;" style="text;html=1;align=center;verticalAlign=middle;resizable=0;points=[];autosize=1;strokeColor=none;fillColor=none;" parent="1" vertex="1">
          <mxGeometry x="290" y="215" width="50" height="30" as="geometry" />
        </mxCell>
        <mxCell id="rhpsxSdR3AvD_BGeEZFR-60" value="&lt;font style=&quot;font-size: 7px;&quot;&gt;Module&lt;/font&gt;" style="text;html=1;align=center;verticalAlign=middle;resizable=0;points=[];autosize=1;strokeColor=none;fillColor=none;" parent="1" vertex="1">
          <mxGeometry x="160" y="255" width="50" height="30" as="geometry" />
        </mxCell>
        <mxCell id="rhpsxSdR3AvD_BGeEZFR-62" value="&lt;font style=&quot;font-size: 7px;&quot;&gt;Module&lt;/font&gt;" style="text;html=1;align=center;verticalAlign=middle;resizable=0;points=[];autosize=1;strokeColor=none;fillColor=none;" parent="1" vertex="1">
          <mxGeometry x="330" y="215" width="50" height="30" as="geometry" />
        </mxCell>
        <mxCell id="rhpsxSdR3AvD_BGeEZFR-63" value="&lt;font style=&quot;font-size: 7px;&quot;&gt;Module&lt;/font&gt;" style="text;html=1;align=center;verticalAlign=middle;resizable=0;points=[];autosize=1;strokeColor=none;fillColor=none;" parent="1" vertex="1">
          <mxGeometry x="420" y="215" width="50" height="30" as="geometry" />
        </mxCell>
        <mxCell id="t6pwAtFOleoMCXi76beE-5" value="" style="sketch=0;pointerEvents=1;shadow=0;dashed=0;html=1;strokeColor=none;fillColor=#434445;aspect=fixed;labelPosition=center;verticalLabelPosition=bottom;verticalAlign=top;align=center;outlineConnect=0;shape=mxgraph.vvd.log_files;labelBackgroundColor=#FFFFFF;hachureGap=4;jiggle=2;curveFitting=1;fontFamily=Times New Roman;fontSize=14;fontColor=#000000;" parent="1" vertex="1">
          <mxGeometry x="171" y="540" width="28" height="35" as="geometry" />
        </mxCell>
        <mxCell id="t6pwAtFOleoMCXi76beE-6" value="" style="ellipse;whiteSpace=wrap;html=1;aspect=fixed;fillColor=#f8cecc;gradientColor=#ea6b66;strokeColor=#b85450;" parent="1" vertex="1">
          <mxGeometry x="165" y="580" width="10" height="10" as="geometry" />
        </mxCell>
        <mxCell id="t6pwAtFOleoMCXi76beE-7" value="" style="ellipse;whiteSpace=wrap;html=1;aspect=fixed;fillColor=#ffcd28;strokeColor=#d79b00;gradientColor=#ffa500;" parent="1" vertex="1">
          <mxGeometry x="175" y="580" width="10" height="10" as="geometry" />
        </mxCell>
        <mxCell id="t6pwAtFOleoMCXi76beE-8" value="" style="ellipse;whiteSpace=wrap;html=1;aspect=fixed;fillColor=#ffcd28;strokeColor=#d79b00;gradientColor=#ffa500;" parent="1" vertex="1">
          <mxGeometry x="185" y="580" width="10" height="10" as="geometry" />
        </mxCell>
        <mxCell id="t6pwAtFOleoMCXi76beE-9" value="" style="ellipse;whiteSpace=wrap;html=1;aspect=fixed;fillColor=#f8cecc;gradientColor=#ea6b66;strokeColor=#b85450;" parent="1" vertex="1">
          <mxGeometry x="195" y="580" width="10" height="10" as="geometry" />
        </mxCell>
        <mxCell id="t6pwAtFOleoMCXi76beE-10" value="" style="ellipse;whiteSpace=wrap;html=1;aspect=fixed;fillColor=#f8cecc;gradientColor=#ea6b66;strokeColor=#b85450;" parent="1" vertex="1">
          <mxGeometry x="326" y="580" width="10" height="10" as="geometry" />
        </mxCell>
        <mxCell id="t6pwAtFOleoMCXi76beE-11" value="" style="ellipse;whiteSpace=wrap;html=1;aspect=fixed;fillColor=#f8cecc;gradientColor=#ea6b66;strokeColor=#b85450;" parent="1" vertex="1">
          <mxGeometry x="336" y="580" width="10" height="10" as="geometry" />
        </mxCell>
        <mxCell id="t6pwAtFOleoMCXi76beE-12" value="" style="ellipse;whiteSpace=wrap;html=1;aspect=fixed;fillColor=#f8cecc;gradientColor=#ea6b66;strokeColor=#b85450;" parent="1" vertex="1">
          <mxGeometry x="435" y="580" width="10" height="10" as="geometry" />
        </mxCell>
        <mxCell id="t6pwAtFOleoMCXi76beE-13" value="" style="ellipse;whiteSpace=wrap;html=1;aspect=fixed;fillColor=#f8cecc;gradientColor=#ea6b66;strokeColor=#b85450;" parent="1" vertex="1">
          <mxGeometry x="445" y="580" width="10" height="10" as="geometry" />
        </mxCell>
        <mxCell id="rhpsxSdR3AvD_BGeEZFR-51" value="Stage" style="text;html=1;align=center;verticalAlign=middle;resizable=0;points=[];autosize=1;strokeColor=none;fillColor=none;" parent="1" vertex="1">
          <mxGeometry x="160" y="500" width="50" height="30" as="geometry" />
        </mxCell>
        <mxCell id="t6pwAtFOleoMCXi76beE-15" value="" style="sketch=0;pointerEvents=1;shadow=0;dashed=0;html=1;strokeColor=none;fillColor=#434445;aspect=fixed;labelPosition=center;verticalLabelPosition=bottom;verticalAlign=top;align=center;outlineConnect=0;shape=mxgraph.vvd.log_files;labelBackgroundColor=#FFFFFF;hachureGap=4;jiggle=2;curveFitting=1;fontFamily=Times New Roman;fontSize=14;fontColor=#000000;" parent="1" vertex="1">
          <mxGeometry x="321" y="540" width="28" height="35" as="geometry" />
        </mxCell>
        <mxCell id="t6pwAtFOleoMCXi76beE-17" value="" style="sketch=0;pointerEvents=1;shadow=0;dashed=0;html=1;strokeColor=none;fillColor=#434445;aspect=fixed;labelPosition=center;verticalLabelPosition=bottom;verticalAlign=top;align=center;outlineConnect=0;shape=mxgraph.vvd.log_files;labelBackgroundColor=#FFFFFF;hachureGap=4;jiggle=2;curveFitting=1;fontFamily=Times New Roman;fontSize=14;fontColor=#000000;" parent="1" vertex="1">
          <mxGeometry x="431" y="540" width="28" height="35" as="geometry" />
        </mxCell>
      </root>
    </mxGraphModel>
  </diagram>
</mxfile>
